{
.appVersion = "1364";
date = "2024-03-01 10:00:47 +0000";
familyName = BUMING;
fontMaster = (
{
ascender = 800;
capHeight = 700;
descender = -200;
id = "BC79775B-A37D-4048-B0B8-E652625BF997";
xHeight = 500;
}
);
glyphs = (
{
export = 0;
glyphname = _part.0U01;
lastChange = "2024-04-30 01:46:24 +0000";
layers = (
{
layerId = "BC79775B-A37D-4048-B0B8-E652625BF997";
paths = (
{
closed = 1;
nodes = (
"44.75 620.8 LINE",
"955.25 620.8 LINE",
"955.25 748 LINE",
"44.75 748 LINE"
);
},
{
closed = 1;
nodes = (
"251.94 426 LINE",
"748.06 426 LINE",
"748.06 528.43 LINE",
"251.94 528.43 LINE"
);
},
{
closed = 1;
nodes = (
"412.93 198 LINE",
"587.07 198 LINE",
"587.07 697.02 LINE",
"412.93 697.02 LINE"
);
},
{
closed = 1;
nodes = (
"259.43 628.5 LINE",
"273.02 590.43 OFFCURVE",
"285.21 553.1 OFFCURVE",
"295.68 516.67 CURVE",
"402.99 538.07 LINE",
"391.99 575.72 OFFCURVE",
"380.31 612.03 OFFCURVE",
"367.79 646.66 CURVE"
);
},
{
closed = 1;
nodes = (
"632.2 646.66 LINE",
"619.68 612.03 OFFCURVE",
"608 575.71 OFFCURVE",
"597 538.07 CURVE",
"704.31 516.67 LINE",
"714.78 553.1 OFFCURVE",
"726.97 590.43 OFFCURVE",
"740.56 628.5 CURVE"
);
}
);
width = 1000;
}
);
},
{
export = 0;
glyphname = _part.0U02;
lastChange = "2024-04-30 01:46:24 +0000";
layers = (
{
layerId = "BC79775B-A37D-4048-B0B8-E652625BF997";
paths = (
{
closed = 1;
nodes = (
"412.93 198 LINE",
"587.07 198 LINE",
"587.07 477.21 LINE",
"412.93 477.21 LINE"
);
},
{
closed = 1;
nodes = (
"968 620.8 LINE",
"968 739.35 LINE",
"32 739.35 LINE",
"32 620.8 LINE",
"338.9 620.8 LINE",
"358.23 640.8 LINE",
"634.23 640.8 LINE",
"648.45 620.8 LINE"
);
},
{
closed = 1;
nodes = (
"439.64 569.83 LINE",
"439.64 771.94 LINE",
"257.42 771.94 LINE",
"257.42 699 LINE",
"273.42 680.08 LINE",
"273.42 569.83 LINE"
);
},
{
closed = 1;
nodes = (
"726.56 569.83 LINE",
"726.56 691.4 LINE",
"742.56 715 LINE",
"742.56 771.94 LINE",
"560.34 771.94 LINE",
"560.34 569.83 LINE"
);
},
{
closed = 1;
nodes = (
"263.42 429.29 LINE",
"736.56 429.29 LINE",
"736.56 520.67 LINE",
"263.42 520.67 LINE"
);
},
{
closed = 1;
nodes = (
"273.42 540.67 LINE",
"726.56 540.67 LINE",
"726.56 618.05 LINE",
"273.42 618.05 LINE"
);
}
);
width = 1000;
}
);
},
{
export = 0;
glyphname = _part.0U03;
lastChange = "2024-04-30 01:46:24 +0000";
layers = (
{
layerId = "BC79775B-A37D-4048-B0B8-E652625BF997";
paths = (
{
closed = 1;
nodes = (
"412.93 198 LINE",
"587.07 198 LINE",
"587.07 697.02 LINE",
"412.93 697.02 LINE"
);
},
{
closed = 1;
nodes = (
"263.43 429.29 LINE",
"736.57 429.29 LINE",
"736.57 508.93 LINE",
"263.43 508.93 LINE"
);
},
{
closed = 1;
nodes = (
"263.43 526.36 LINE",
"736.57 526.36 LINE",
"736.57 606 LINE",
"263.43 606 LINE"
);
},
{
closed = 1;
nodes = (
"105.91 621.89 LINE",
"451.24 621.89 OFFCURVE",
"667.74 623.93 OFFCURVE",
"923.24 634.8 CURVE",
"895.89 771.22 LINE",
"643.24 754.43 OFFCURVE",
"404.57 750.56 OFFCURVE",
"86.77 750.56 CURVE"
);
}
);
width = 1000;
}
);
},
{
export = 0;
glyphname = _part.0U04;
lastChange = "2024-04-30 01:46:24 +0000";
layers = (
{
layerId = "BC79775B-A37D-4048-B0B8-E652625BF997";
paths = (
{
closed = 1;
nodes = (
"412.93 198 LINE",
"587.07 198 LINE",
"587.07 477.21 LINE",
"412.93 477.21 LINE"
);
},
{
closed = 1;
nodes = (
"273.43 429.28 LINE",
"726.57 429.28 LINE",
"726.57 540.66 LINE",
"273.43 540.66 LINE"
);
},
{
closed = 1;
nodes = (
"402.24 429.28 LINE",
"402.24 771.94 LINE",
"259.43 771.94 LINE",
"259.43 675.33 LINE",
"273.43 652.66 LINE",
"273.43 429.28 LINE"
);
},
{
closed = 1;
nodes = (
"726.57 429.28 LINE",
"726.57 653.99 LINE",
"740.57 680.07 LINE",
"740.57 771.94 LINE",
"597.76 771.94 LINE",
"597.76 429.28 LINE"
);
},
{
closed = 1;
nodes = (
"42 620.79 LINE",
"341.83 620.79 LINE",
"341.83 739.34 LINE",
"42 739.34 LINE"
);
},
{
closed = 1;
nodes = (
"658.17 620.79 LINE",
"958 620.79 LINE",
"958 739.34 LINE",
"658.17 739.34 LINE"
);
},
{
closed = 1;
nodes = (
"420.24 692.98 LINE",
"579.77 692.98 LINE",
"579.77 761.92 LINE",
"420.24 761.92 LINE"
);
},
{
closed = 1;
nodes = (
"420.24 558.64 LINE",
"579.77 558.64 LINE",
"579.77 635.58 LINE",
"420.24 635.58 LINE"
);
},
{
closed = 1;
nodes = (
"420.24 558.64 LINE",
"489.74 558.64 LINE",
"489.74 761.92 LINE",
"420.24 761.92 LINE"
);
},
{
closed = 1;
nodes = (
"510.27 558.64 LINE",
"579.77 558.64 LINE",
"579.77 761.92 LINE",
"510.27 761.92 LINE"
);
}
);
width = 1000;
}
);
},
{
export = 0;
glyphname = _part.0U05;
lastChange = "2024-04-30 01:46:24 +0000";
layers = (
{
layerId = "BC79775B-A37D-4048-B0B8-E652625BF997";
paths = (
{
closed = 1;
nodes = (
"412.93 198 LINE",
"587.07 198 LINE",
"587.07 477.21 LINE",
"412.93 477.21 LINE"
);
},
{
closed = 1;
nodes = (
"273.43 429.28 LINE",
"726.57 429.28 LINE",
"726.57 508.97 LINE",
"273.43 508.97 LINE"
);
},
{
closed = 1;
nodes = (
"406.24 429.28 LINE",
"406.24 759.99 LINE",
"259.43 759.99 LINE",
"259.43 675.32 LINE",
"273.43 652.65 LINE",
"273.43 429.27 LINE"
);
},
{
closed = 1;
nodes = (
"726.57 429.27 LINE",
"726.57 653.98 LINE",
"740.57 680.06 LINE",
"740.57 759.98 LINE",
"593.76 759.98 LINE",
"593.76 429.27 LINE"
);
},
{
closed = 1;
nodes = (
"58 620.78 LINE",
"341.83 620.78 LINE",
"341.83 715.33 LINE",
"58 715.33 LINE"
);
},
{
closed = 1;
nodes = (
"658.17 620.78 LINE",
"942 620.78 LINE",
"942 715.33 LINE",
"658.17 715.33 LINE"
);
},
{
closed = 1;
nodes = (
"58 620.78 LINE",
"199.92 620.78 LINE",
"199.92 769.98 LINE",
"58 769.98 LINE"
);
},
{
closed = 1;
nodes = (
"800.08 620.78 LINE",
"942 620.78 LINE",
"942 769.98 LINE",
"800.08 769.98 LINE"
);
},
{
closed = 1;
nodes = (
"341.83 680.31 LINE",
"667.16 680.31 LINE",
"667.16 759.98 LINE",
"341.83 759.98 LINE"
);
},
{
closed = 1;
nodes = (
"341.83 604.63 LINE",
"667.16 604.63 LINE",
"667.16 660.3 LINE",
"341.83 660.3 LINE"
);
},
{
closed = 1;
nodes = (
"341.83 528.95 LINE",
"667.16 528.95 LINE",
"667.16 584.62 LINE",
"341.83 584.62 LINE"
);
}
);
width = 1000;
}
);
},
{
export = 0;
glyphname = _part.0U06;
lastChange = "2024-04-30 01:46:24 +0000";
layers = (
{
layerId = "BC79775B-A37D-4048-B0B8-E652625BF997";
paths = (
{
closed = 1;
nodes = (
"117.24 292 LINE",
"253.43 292 LINE",
"253.43 600 LINE",
"117.24 600 LINE"
);
},
{
closed = 1;
nodes = (
"746.57 292 LINE",
"882.76 292 LINE",
"882.76 600 LINE",
"746.57 600 LINE"
);
},
{
closed = 1;
nodes = (
"56.75 463.76 LINE",
"188.33 463.76 LINE",
"188.33 572.24 LINE",
"56.75 572.24 LINE"
);
},
{
closed = 1;
nodes = (
"38.75 326.72 LINE",
"188.33 326.72 LINE",
"188.33 440.94 LINE",
"38.75 440.94 LINE"
);
},
{
closed = 1;
nodes = (
"811.67 463.76 LINE",
"943.25 463.76 LINE",
"943.25 572.24 LINE",
"811.67 572.24 LINE"
);
},
{
closed = 1;
nodes = (
"811.67 326.72 LINE",
"961.25 326.72 LINE",
"961.25 440.94 LINE",
"811.67 440.94 LINE"
);
}
);
width = 1000;
}
);
},
{
export = 0;
glyphname = _part.0U07;
lastChange = "2024-04-30 01:46:24 +0000";
layers = (
{
layerId = "BC79775B-A37D-4048-B0B8-E652625BF997";
paths = (
{
closed = 1;
nodes = (
"117.24 292 LINE",
"253.43 292 LINE",
"253.43 600 LINE",
"117.24 600 LINE"
);
},
{
closed = 1;
nodes = (
"188.34 451.76 LINE",
"188.34 560.24 LINE",
"42.76 582.24 LINE",
"24.76 473.76 LINE"
);
},
{
closed = 1;
nodes = (
"811.68 451.76 LINE",
"975.26 473.76 LINE",
"951.26 582.24 LINE",
"811.68 560.24 LINE"
);
},
{
closed = 1;
nodes = (
"188.35 332.72 LINE",
"188.35 446.94 LINE",
"16.77 426.94 LINE",
"34.77 312.72 LINE"
);
},
{
closed = 1;
nodes = (
"882.78 426.67 LINE",
"882.78 600 LINE",
"746.59 600 LINE",
"746.59 366.62 LINE SMOOTH",
"746.59 316 OFFCURVE",
"770.59 297.77 OFFCURVE",
"815.21 297.77 CURVE SMOOTH",
"960.02 297.33 LINE",
"976.02 426.66 LINE"
);
}
);
width = 1000;
}
);
},
{
export = 0;
glyphname = _part.0U08;
lastChange = "2024-04-30 01:46:24 +0000";
layers = (
{
layerId = "BC79775B-A37D-4048-B0B8-E652625BF997";
paths = (
{
closed = 1;
nodes = (
"223.99 606 LINE",
"168.18 580.03 OFFCURVE",
"108.56 558.23 OFFCURVE",
"45.36 540.34 CURVE",
"96.57 427.82 LINE",
"165.34 448.49 OFFCURVE",
"228.73 473.07 OFFCURVE",
"286.47 501.74 CURVE"
);
},
{
closed = 1;
nodes = (
"229.8 445.13 LINE",
"164.25 419.16 OFFCURVE",
"94.23 397.36 OFFCURVE",
"20 379.47 CURVE",
"77.66 255.99 LINE",
"158.42 276.66 OFFCURVE",
"232.87 301.24 OFFCURVE",
"300.69 329.91 CURVE"
);
},
{
closed = 1;
nodes = (
"713.54 501.74 LINE",
"771.28 473.07 OFFCURVE",
"834.67 448.5 OFFCURVE",
"903.44 427.82 CURVE",
"954.65 540.34 LINE",
"891.45 558.22 OFFCURVE",
"831.83 580.03 OFFCURVE",
"776.02 606 CURVE"
);
},
{
closed = 1;
nodes = (
"699.33 329.91 LINE",
"767.15 301.24 OFFCURVE",
"841.6 276.67 OFFCURVE",
"922.36 255.99 CURVE",
"980.02 379.47 LINE",
"905.79 397.35 OFFCURVE",
"835.77 419.16 OFFCURVE",
"770.22 445.13 CURVE"
);
}
);
width = 1000;
}
);
},
{
export = 0;
glyphname = _part.0U09;
lastChange = "2024-04-30 01:46:24 +0000";
layers = (
{
layerId = "BC79775B-A37D-4048-B0B8-E652625BF997";
paths = (
{
closed = 1;
nodes = (
"143.24 292 LINE",
"253.43 292 LINE",
"253.43 600 LINE",
"143.24 600 LINE"
);
},
{
closed = 1;
nodes = (
"110.19 312 LINE",
"123.23 398.5 OFFCURVE",
"130.19 486.67 OFFCURVE",
"130.19 578 CURVE",
"48 584 LINE",
"48 495 OFFCURVE",
"41.9 414.33 OFFCURVE",
"28 332 CURVE"
);
},
{
closed = 1;
nodes = (
"856.76 600 LINE",
"746.57 600 LINE",
"746.57 292 LINE",
"856.76 292 LINE"
);
},
{
closed = 1;
nodes = (
"867.81 578 LINE",
"878.66 488.4 OFFCURVE",
"885.51 399.69 OFFCURVE",
"887.81 312 CURVE",
"970 332 LINE",
"966.29 418.47 OFFCURVE",
"959.6 502.45 OFFCURVE",
"950 584 CURVE"
);
}
);
width = 1000;
}
);
},
{
export = 0;
glyphname = _part.0U10;
lastChange = "2024-04-30 01:46:24 +0000";
layers = (
{
layerId = "BC79775B-A37D-4048-B0B8-E652625BF997";
paths = (
{
closed = 1;
nodes = (
"253.43 512.92 LINE",
"253.43 600 LINE",
"68.24 600 LINE",
"68.24 512.92 LINE"
);
},
{
closed = 1;
nodes = (
"253.43 294 LINE",
"253.43 381.08 LINE",
"68.24 381.08 LINE",
"68.24 294 LINE"
);
},
{
closed = 1;
nodes = (
"227.95 413.46 LINE",
"227.95 480.54 LINE",
"93.73 480.54 LINE",
"93.73 413.46 LINE"
);
},
{
closed = 1;
nodes = (
"152.24 294 LINE",
"152.24 600 LINE",
"68.25 600 LINE",
"68.25 294 LINE"
);
},
{
closed = 1;
nodes = (
"253.44 294 LINE",
"253.44 600 LINE",
"181.45 600 LINE",
"181.45 294 LINE"
);
},
{
closed = 1;
nodes = (
"931.78 512.92 LINE",
"931.78 600 LINE",
"746.59 600 LINE",
"746.59 512.92 LINE"
);
},
{
closed = 1;
nodes = (
"931.78 294 LINE",
"931.78 381.08 LINE",
"746.59 381.08 LINE",
"746.59 294 LINE"
);
},
{
closed = 1;
nodes = (
"906.3 413.46 LINE",
"906.3 480.54 LINE",
"772.08 480.54 LINE",
"772.08 413.46 LINE"
);
},
{
closed = 1;
nodes = (
"818.59 294 LINE",
"818.59 600 LINE",
"746.6 600 LINE",
"746.6 294 LINE"
);
},
{
closed = 1;
nodes = (
"931.79 294 LINE",
"931.79 600 LINE",
"847.8 600 LINE",
"847.8 294 LINE"
);
}
);
width = 1000;
}
);
},
{
export = 0;
glyphname = _part.0U11;
lastChange = "2024-04-30 01:46:24 +0000";
layers = (
{
layerId = "BC79775B-A37D-4048-B0B8-E652625BF997";
paths = (
{
closed = 1;
nodes = (
"275.24 76 LINE",
"395.12 76 LINE",
"395.12 409.29 LINE",
"275.25 409.29 LINE"
);
},
{
closed = 1;
nodes = (
"604.89 76 LINE",
"724.77 76 LINE",
"724.77 409.29 LINE",
"604.9 409.29 LINE"
);
},
{
closed = 1;
nodes = (
"191.92 189.51 LINE",
"335.2 189.51 LINE",
"335.2 274 LINE",
"50.77 274 LINE",
"50.77 76 LINE",
"335.2 76 LINE",
"335.2 174.42 LINE",
"191.92 174.42 LINE"
);
},
{
closed = 1;
nodes = (
"808.11 169.36 LINE",
"664.83 169.36 LINE",
"664.83 75.99 LINE",
"949.26 75.99 LINE",
"949.26 273.99 LINE",
"664.83 273.99 LINE",
"664.83 184.44 LINE",
"808.11 184.44 LINE"
);
}
);
width = 1000;
}
);
},
{
export = 0;
glyphname = _part.0U12;
lastChange = "2024-04-30 01:46:24 +0000";
layers = (
{
layerId = "BC79775B-A37D-4048-B0B8-E652625BF997";
paths = (
{
closed = 1;
nodes = (
"48 189.5 LINE",
"952 189.5 LINE",
"952 274 LINE",
"48 274 LINE"
);
},
{
closed = 1;
nodes = (
"48 76 LINE",
"396.93 76 LINE",
"396.93 162.5 LINE",
"48 162.5 LINE"
);
},
{
closed = 1;
nodes = (
"603.07 76 LINE",
"952 76 LINE",
"952 162.5 LINE",
"603.07 162.5 LINE"
);
},
{
closed = 1;
nodes = (
"273.43 116.25 LINE",
"396.93 116.25 LINE",
"396.93 409.29 LINE",
"273.43 409.29 LINE"
);
},
{
closed = 1;
nodes = (
"603.07 116.25 LINE",
"726.57 116.25 LINE",
"726.57 409.29 LINE",
"603.07 409.29 LINE"
);
}
);
width = 1000;
}
);
},
{
export = 0;
glyphname = _part.0U13;
lastChange = "2024-04-30 01:46:24 +0000";
layers = (
{
layerId = "BC79775B-A37D-4048-B0B8-E652625BF997";
paths = (
{
closed = 1;
nodes = (
"371.24 451.76 LINE",
"290.91 326.52 OFFCURVE",
"168.78 242.92 OFFCURVE",
"16 172.5 CURVE",
"101.75 40 LINE",
"255.77 115.19 OFFCURVE",
"391.24 239.33 OFFCURVE",
"467.24 404.57 CURVE",
"467.24 451.76 LINE"
);
},
{
closed = 1;
nodes = (
"532.77 451.76 LINE",
"532.77 404.57 LINE",
"608.77 239.34 OFFCURVE",
"744.23 115.19 OFFCURVE",
"898.26 40 CURVE",
"984.01 172.5 LINE",
"831.24 242.92 OFFCURVE",
"709.1 326.52 OFFCURVE",
"628.77 451.76 CURVE"
);
},
{
closed = 1;
nodes = (
"208.25 167 LINE",
"246.61 128.88 OFFCURVE",
"292.57 87.36 OFFCURVE",
"346.25 46 CURVE",
"426.94 153 LINE",
"378.69 188.31 OFFCURVE",
"331.91 227.31 OFFCURVE",
"286.48 269.75 CURVE"
);
},
{
closed = 1;
nodes = (
"713.54 269.75 LINE",
"668.11 227.31 OFFCURVE",
"621.33 188.31 OFFCURVE",
"573.08 153 CURVE",
"653.77 46 LINE",
"707.45 87.36 OFFCURVE",
"753.41 128.88 OFFCURVE",
"791.77 167 CURVE"
);
}
);
width = 1000;
}
);
},
{
export = 0;
glyphname = _part.0U14;
lastChange = "2024-04-30 01:46:24 +0000";
layers = (
{
layerId = "BC79775B-A37D-4048-B0B8-E652625BF997";
paths = (
{
closed = 1;
nodes = (
"235.71 380.76 LINE",
"267.83 338.41 OFFCURVE",
"297.63 295.08 OFFCURVE",
"324.94 250.7 CURVE",
"432.41 318.61 LINE",
"403.24 362.32 OFFCURVE",
"371.35 405.35 OFFCURVE",
"336.96 447.74 CURVE"
);
},
{
closed = 1;
nodes = (
"663.04 447.74 LINE",
"628.64 405.35 OFFCURVE",
"596.76 362.32 OFFCURVE",
"567.59 318.61 CURVE",
"675.06 250.7 LINE",
"702.37 295.07 OFFCURVE",
"732.17 338.4 OFFCURVE",
"764.29 380.76 CURVE"
);
},
{
closed = 1;
nodes = (
"291.24 75.99 LINE",
"396.24 75.99 LINE",
"396.24 273.99 LINE",
"291.24 273.99 LINE"
);
},
{
closed = 1;
nodes = (
"185 103.32 LINE",
"262 103.32 LINE",
"262 246.65 LINE",
"185 246.65 LINE"
);
},
{
closed = 1;
nodes = (
"50.76 75.98 LINE",
"155.76 75.98 LINE",
"155.76 273.98 LINE",
"50.76 273.98 LINE"
);
},
{
closed = 1;
nodes = (
"843.57 75.98 LINE",
"948.57 75.98 LINE",
"948.57 273.98 LINE",
"843.57 273.98 LINE"
);
},
{
closed = 1;
nodes = (
"737.33 103.31 LINE",
"814.33 103.31 LINE",
"814.33 246.64 LINE",
"737.33 246.64 LINE"
);
},
{
closed = 1;
nodes = (
"603.09 75.97 LINE",
"708.09 75.97 LINE",
"708.09 273.97 LINE",
"603.09 273.97 LINE"
);
},
{
closed = 1;
nodes = (
"50.77 195.48 LINE",
"396.26 195.48 LINE",
"396.26 273.97 LINE",
"50.77 273.97 LINE"
);
},
{
closed = 1;
nodes = (
"50.77 75.97 LINE",
"396.26 75.97 LINE",
"396.26 164.39 LINE",
"50.77 164.39 LINE"
);
},
{
closed = 1;
nodes = (
"603.09 195.47 LINE",
"948.58 195.47 LINE",
"948.58 273.96 LINE",
"603.09 273.96 LINE"
);
},
{
closed = 1;
nodes = (
"603.09 75.96 LINE",
"948.58 75.96 LINE",
"948.58 164.38 LINE",
"603.09 164.38 LINE"
);
}
);
width = 1000;
}
);
},
{
export = 0;
glyphname = _part.0U15;
lastChange = "2024-04-30 01:46:24 +0000";
layers = (
{
layerId = "BC79775B-A37D-4048-B0B8-E652625BF997";
paths = (
{
closed = 1;
nodes = (
"253.43 195.5 LINE",
"253.43 274 LINE",
"58.24 274 LINE",
"58.24 195.5 LINE"
);
},
{
closed = 1;
nodes = (
"253.43 76 LINE",
"253.43 164.42 LINE",
"58.24 164.42 LINE",
"58.24 76 LINE"
);
},
{
closed = 1;
nodes = (
"140.23 76 LINE",
"140.23 274 LINE",
"58.24 274 LINE",
"58.24 76 LINE"
);
},
{
closed = 1;
nodes = (
"253.43 76 LINE",
"253.43 274 LINE",
"179.44 274 LINE",
"179.44 76 LINE"
);
},
{
closed = 1;
nodes = (
"941.77 195.5 LINE",
"941.77 274 LINE",
"746.58 274 LINE",
"746.58 195.5 LINE"
);
},
{
closed = 1;
nodes = (
"941.77 76 LINE",
"941.77 164.42 LINE",
"746.58 164.42 LINE",
"746.58 76 LINE"
);
},
{
closed = 1;
nodes = (
"820.57 76 LINE",
"820.57 274 LINE",
"746.58 274 LINE",
"746.58 76 LINE"
);
},
{
closed = 1;
nodes = (
"941.77 76 LINE",
"941.77 274 LINE",
"859.78 274 LINE",
"859.78 76 LINE"
);
},
{
closed = 1;
nodes = (
"273.44 76 LINE",
"396.94 76 LINE",
"396.94 409.29 LINE",
"273.44 409.29 LINE"
);
},
{
closed = 1;
nodes = (
"603.08 76 LINE",
"726.58 76 LINE",
"726.58 409.29 LINE",
"603.08 409.29 LINE"
);
}
);
width = 1000;
}
);
},
{
export = 0;
glyphname = _part.0U16;
lastChange = "2024-04-30 01:46:24 +0000";
layers = (
{
layerId = "BC79775B-A37D-4048-B0B8-E652625BF997";
paths = (
{
closed = 1;
nodes = (
"423.12 -167.86 LINE",
"576.88 -167.86 LINE",
"576.88 181 LINE",
"423.12 181 LINE"
);
},
{
closed = 1;
nodes = (
"585.07 42.95 LINE",
"596.05 -26.57 OFFCURVE",
"603.72 -95.78 OFFCURVE",
"607.83 -164.66 CURVE",
"775.82 -152.19 LINE",
"769.12 -82.92 OFFCURVE",
"758.84 -12.76 OFFCURVE",
"745.22 58.22 CURVE"
);
},
{
closed = 1;
nodes = (
"770.53 40.21 LINE",
"783.67 -28.97 OFFCURVE",
"793.48 -97.93 OFFCURVE",
"799.72 -166.67 CURVE",
"967.24 -149.45 LINE",
"958.4 -80.4 OFFCURVE",
"945.93 -10.56 OFFCURVE",
"930.12 60 CURVE"
);
},
{
closed = 1;
nodes = (
"254.8 58.22 LINE",
"241.18 -12.76 OFFCURVE",
"230.9 -82.92 OFFCURVE",
"224.2 -152.19 CURVE",
"392.19 -164.66 LINE",
"396.3 -95.78 OFFCURVE",
"403.96 -26.56 OFFCURVE",
"414.95 42.95 CURVE"
);
},
{
closed = 1;
nodes = (
"69.91 60 LINE",
"54.09 -10.56 OFFCURVE",
"41.63 -80.4 OFFCURVE",
"32.79 -149.45 CURVE",
"200.31 -166.67 LINE",
"206.56 -97.93 OFFCURVE",
"216.37 -28.97 OFFCURVE",
"229.5 40.21 CURVE"
);
}
);
width = 1000;
}
);
},
{
export = 0;
glyphname = _part.0U17;
lastChange = "2024-04-30 01:46:24 +0000";
layers = (
{
layerId = "BC79775B-A37D-4048-B0B8-E652625BF997";
paths = (
{
closed = 1;
nodes = (
"423.12 -117.86 LINE",
"576.88 -117.86 LINE",
"576.88 181 LINE",
"423.12 181 LINE"
);
},
{
closed = 1;
nodes = (
"60 -150 LINE",
"940 -150 LINE",
"940 -21.5 LINE",
"60 -21.5 LINE"
);
},
{
closed = 1;
nodes = (
"60 -150 LINE",
"253.43 -150 LINE",
"253.43 56 LINE",
"60 56 LINE"
);
},
{
closed = 1;
nodes = (
"746.57 -150 LINE",
"940 -150 LINE",
"940 56 LINE",
"746.57 56 LINE"
);
},
{
closed = 1;
nodes = (
"263 39.57 LINE",
"279.14 9.47 OFFCURVE",
"293.27 -20.22 OFFCURVE",
"304.67 -49.33 CURVE",
"421.67 -49.33 LINE",
"406.2 -9.33 OFFCURVE",
"389.13 29.16 OFFCURVE",
"370.34 66 CURVE"
);
},
{
closed = 1;
nodes = (
"629.67 66 LINE",
"610.88 29.15 OFFCURVE",
"593.81 -9.33 OFFCURVE",
"578.34 -49.33 CURVE",
"695.34 -49.33 LINE",
"706.74 -20.21 OFFCURVE",
"720.87 9.47 OFFCURVE",
"737.01 39.57 CURVE"
);
}
);
width = 1000;
}
);
},
{
export = 0;
glyphname = _part.0U18;
lastChange = "2024-04-30 01:46:24 +0000";
layers = (
{
layerId = "BC79775B-A37D-4048-B0B8-E652625BF997";
paths = (
{
closed = 1;
nodes = (
"576.88 181 LINE",
"423.12 181 LINE",
"423.12 35.67 LINE",
"411.12 8.5 LINE",
"411.12 -160 LINE",
"588.88 -160 LINE",
"588.88 8.5 LINE",
"576.88 35.67 LINE"
);
},
{
closed = 1;
nodes = (
"500 102 LINE",
"353.24 28.67 OFFCURVE",
"201.24 -5 OFFCURVE",
"23.24 -21 CURVE",
"70.57 -160 LINE",
"231.82 -131.1 OFFCURVE",
"377.48 -86.13 OFFCURVE",
"500 -17.33 CURVE"
);
},
{
closed = 1;
nodes = (
"500 -17.33 LINE",
"622.52 -86.13 OFFCURVE",
"768.18 -131.1 OFFCURVE",
"929.43 -160 CURVE",
"976.76 -21 LINE",
"799.73 -4.5 OFFCURVE",
"646.76 28.67 OFFCURVE",
"500 102 CURVE"
);
},
{
closed = 1;
nodes = (
"254.24 98 LINE",
"127.24 28 LINE",
"262.24 -54 LINE",
"364.24 -7.5 LINE"
);
},
{
closed = 1;
nodes = (
"745.27 98 LINE",
"635.27 -7.5 LINE",
"737.27 -54 LINE",
"872.27 28 LINE"
);
}
);
width = 1000;
}
);
},
{
export = 0;
glyphname = _part.0U19;
lastChange = "2024-04-30 01:46:24 +0000";
layers = (
{
layerId = "BC79775B-A37D-4048-B0B8-E652625BF997";
paths = (
{
closed = 1;
nodes = (
"576.88 181 LINE",
"423.12 181 LINE",
"423.12 28.45 LINE",
"411.12 10.66 LINE",
"411.12 -168.01 LINE",
"588.88 -168.01 LINE",
"588.88 10.66 LINE",
"576.88 28.45 LINE"
);
},
{
closed = 1;
nodes = (
"28 -85 LINE",
"972 -85 LINE",
"972 48 LINE",
"28 48 LINE"
);
}
);
width = 1000;
}
);
},
{
export = 0;
glyphname = _part.0U20;
lastChange = "2024-04-30 01:46:24 +0000";
layers = (
{
layerId = "BC79775B-A37D-4048-B0B8-E652625BF997";
paths = (
{
closed = 1;
nodes = (
"423.12 -160 LINE",
"576.88 -160 LINE",
"576.88 181 LINE",
"423.12 181 LINE"
);
},
{
closed = 1;
nodes = (
"630.38 67.5 LINE",
"604.8 34.38 OFFCURVE",
"567.72 -8.55 OFFCURVE",
"532.48 -48.25 CURVE",
"532.21 -48.25 LINE SMOOTH",
"532.25 -48.3 OFFCURVE",
"532.3 -48.35 OFFCURVE",
"532.34 -48.4 CURVE SMOOTH",
"532.29 -48.45 OFFCURVE",
"532.25 -48.5 OFFCURVE",
"532.21 -48.55 CURVE SMOOTH",
"532.47 -48.55 LINE",
"568.11 -89.21 OFFCURVE",
"604.78 -132.08 OFFCURVE",
"631.86 -166 CURVE",
"789.91 -148.5 LINE",
"760.38 -113.08 OFFCURVE",
"731.11 -79.52 OFFCURVE",
"702.16 -48.39 CURVE",
"731.11 -17.46 OFFCURVE",
"760.39 16.12 OFFCURVE",
"789.91 51.72 CURVE"
);
},
{
closed = 1;
nodes = (
"822.71 67.51 LINE",
"797.13 34.39 OFFCURVE",
"760.05 -8.54 OFFCURVE",
"724.81 -48.24 CURVE",
"724.54 -48.24 LINE SMOOTH",
"724.58 -48.29 OFFCURVE",
"724.63 -48.34 OFFCURVE",
"724.67 -48.39 CURVE SMOOTH",
"724.63 -48.44 OFFCURVE",
"724.58 -48.49 OFFCURVE",
"724.54 -48.54 CURVE SMOOTH",
"724.8 -48.54 LINE",
"760.44 -89.2 OFFCURVE",
"797.11 -132.07 OFFCURVE",
"824.19 -165.99 CURVE",
"982.24 -148.49 LINE",
"952.71 -113.07 OFFCURVE",
"923.44 -79.51 OFFCURVE",
"894.49 -48.38 CURVE",
"923.44 -17.45 OFFCURVE",
"952.72 16.13 OFFCURVE",
"982.24 51.73 CURVE"
);
},
{
closed = 1;
nodes = (
"210.09 51.73 LINE",
"239.61 16.13 OFFCURVE",
"268.89 -17.45 OFFCURVE",
"297.84 -48.38 CURVE",
"268.89 -79.51 OFFCURVE",
"239.61 -113.07 OFFCURVE",
"210.09 -148.49 CURVE",
"368.14 -165.99 LINE",
"395.21 -132.07 OFFCURVE",
"431.89 -89.2 OFFCURVE",
"467.53 -48.54 CURVE",
"467.79 -48.54 LINE SMOOTH",
"467.75 -48.49 OFFCURVE",
"467.7 -48.44 OFFCURVE",
"467.66 -48.39 CURVE SMOOTH",
"467.7 -48.34 OFFCURVE",
"467.75 -48.29 OFFCURVE",
"467.79 -48.24 CURVE SMOOTH",
"467.52 -48.24 LINE",
"432.28 -8.54 OFFCURVE",
"395.2 34.38 OFFCURVE",
"369.62 67.51 CURVE"
);
},
{
closed = 1;
nodes = (
"17.76 51.72 LINE",
"47.28 16.12 OFFCURVE",
"76.56 -17.46 OFFCURVE",
"105.51 -48.39 CURVE",
"76.56 -79.52 OFFCURVE",
"47.28 -113.08 OFFCURVE",
"17.76 -148.5 CURVE",
"175.81 -166 LINE",
"202.88 -132.08 OFFCURVE",
"239.56 -89.21 OFFCURVE",
"275.2 -48.55 CURVE",
"275.46 -48.55 LINE SMOOTH",
"275.42 -48.5 OFFCURVE",
"275.37 -48.45 OFFCURVE",
"275.33 -48.4 CURVE SMOOTH",
"275.37 -48.35 OFFCURVE",
"275.42 -48.3 OFFCURVE",
"275.46 -48.25 CURVE SMOOTH",
"275.19 -48.25 LINE",
"239.95 -8.55 OFFCURVE",
"202.87 34.37 OFFCURVE",
"177.29 67.5 CURVE"
);
}
);
width = 1000;
}
);
},
{
export = 0;
glyphname = _part.1U01;
lastChange = "2024-04-30 01:46:24 +0000";
layers = (
{
layerId = "BC79775B-A37D-4048-B0B8-E652625BF997";
paths = (
{
closed = 1;
nodes = (
"105.9 622.63 LINE",
"451.23 622.63 OFFCURVE",
"667.73 624.67 OFFCURVE",
"923.23 635.54 CURVE",
"895.88 771.96 LINE",
"643.23 755.17 OFFCURVE",
"404.56 751.3 OFFCURVE",
"86.76 751.3 CURVE"
);
},
{
closed = 1;
nodes = (
"36 384.74 LINE",
"222.5 384.74 LINE",
"222.5 591.29 LINE",
"36 591.29 LINE"
);
},
{
closed = 1;
nodes = (
"777.5 384.74 LINE",
"964 384.74 LINE",
"964 591.29 LINE",
"777.5 591.29 LINE"
);
},
{
closed = 1;
nodes = (
"155.44 490.74 LINE",
"844.56 490.74 LINE",
"844.56 591.29 LINE",
"155.44 591.29 LINE"
);
},
{
closed = 1;
nodes = (
"339.26 525.29 LINE",
"314.76 665.29 LINE",
"161.44 665.29 LINE",
"185.94 525.29 LINE"
);
},
{
closed = 1;
nodes = (
"588.91 525.29 LINE",
"564.41 665.29 LINE",
"411.09 665.29 LINE",
"435.59 525.29 LINE"
);
},
{
closed = 1;
nodes = (
"660.74 525.29 LINE",
"814.06 525.29 LINE",
"838.56 665.29 LINE",
"685.24 665.29 LINE"
);
}
);
width = 1000;
}
);
},
{
export = 0;
glyphname = _part.1U02;
lastChange = "2024-04-30 01:46:24 +0000";
layers = (
{
layerId = "BC79775B-A37D-4048-B0B8-E652625BF997";
paths = (
{
closed = 1;
nodes = (
"36 384.74 LINE",
"222.5 384.74 LINE",
"222.5 621.29 LINE",
"36 621.29 LINE"
);
},
{
closed = 1;
nodes = (
"777.5 384.74 LINE",
"964 384.74 LINE",
"964 621.29 LINE",
"777.5 621.29 LINE"
);
},
{
closed = 1;
nodes = (
"155.44 490.74 LINE",
"844.56 490.74 LINE",
"844.56 621.29 LINE",
"155.44 621.29 LINE"
);
},
{
closed = 1;
nodes = (
"292.15 735.29 LINE",
"350.53 576.62 LINE",
"506.95 576.62 LINE",
"442.91 769.95 LINE"
);
},
{
closed = 1;
nodes = (
"91.01 733.28 LINE",
"149.39 574.61 LINE",
"305.81 574.61 LINE",
"241.77 767.94 LINE"
);
},
{
closed = 1;
nodes = (
"495.01 739.27 LINE",
"546.58 580.6 LINE",
"706.4 580.6 LINE",
"642.36 773.93 LINE"
);
},
{
closed = 1;
nodes = (
"909.25 735.26 LINE",
"758.5 769.93 LINE",
"694.46 576.6 LINE",
"850.88 576.6 LINE"
);
}
);
width = 1000;
}
);
},
{
export = 0;
glyphname = _part.1U03;
lastChange = "2024-04-30 01:46:24 +0000";
layers = (
{
layerId = "BC79775B-A37D-4048-B0B8-E652625BF997";
paths = (
{
closed = 1;
nodes = (
"42 384.74 LINE",
"222.5 384.74 LINE",
"222.5 593.29 LINE",
"42 593.29 LINE"
);
},
{
closed = 1;
nodes = (
"777.5 384.74 LINE",
"958 384.74 LINE",
"958 593.29 LINE",
"777.5 593.29 LINE"
);
},
{
closed = 1;
nodes = (
"155.44 490.74 LINE",
"844.55 490.74 LINE",
"844.55 593.29 LINE",
"155.44 593.29 LINE"
);
},
{
closed = 1;
nodes = (
"20 622.62 LINE",
"980 622.62 LINE",
"980 729.17 LINE",
"20 729.17 LINE"
);
},
{
closed = 1;
nodes = (
"181.43 530.62 LINE",
"337.93 530.62 LINE",
"337.93 772.73 LINE",
"181.43 772.73 LINE"
);
},
{
closed = 1;
nodes = (
"421.75 530.62 LINE",
"578.25 530.62 LINE",
"578.25 772.73 LINE",
"421.75 772.73 LINE"
);
},
{
closed = 1;
nodes = (
"662.07 530.62 LINE",
"818.57 530.62 LINE",
"818.57 772.73 LINE",
"662.07 772.73 LINE"
);
}
);
width = 1000;
}
);
},
{
export = 0;
glyphname = _part.1U04;
lastChange = "2024-04-30 01:46:24 +0000";
layers = (
{
layerId = "BC79775B-A37D-4048-B0B8-E652625BF997";
paths = (
{
closed = 1;
nodes = (
"20 666.19 LINE",
"980 666.19 LINE",
"980 760.74 LINE",
"20 760.74 LINE"
);
},
{
closed = 1;
nodes = (
"36 384.74 LINE",
"222.5 384.74 LINE",
"222.5 573.29 LINE",
"36 573.29 LINE"
);
},
{
closed = 1;
nodes = (
"777.5 384.74 LINE",
"964 384.74 LINE",
"964 573.29 LINE",
"777.5 573.29 LINE"
);
},
{
closed = 1;
nodes = (
"394.75 532.01 LINE",
"605.25 532.01 LINE",
"605.25 730.56 LINE",
"394.75 730.56 LINE"
);
},
{
closed = 1;
nodes = (
"155.44 490.73 LINE",
"844.56 490.73 LINE",
"844.56 573.28 LINE",
"155.44 573.28 LINE"
);
},
{
closed = 1;
nodes = (
"636.66 591.28 LINE",
"909.99 591.28 LINE",
"909.99 648.17 LINE",
"636.66 648.17 LINE"
);
},
{
closed = 1;
nodes = (
"89.99 591.28 LINE",
"363.32 591.28 LINE",
"363.32 648.17 LINE",
"89.99 648.17 LINE"
);
}
);
width = 1000;
}
);
},
{
export = 0;
glyphname = _part.1U05;
lastChange = "2024-04-30 01:46:24 +0000";
layers = (
{
layerId = "BC79775B-A37D-4048-B0B8-E652625BF997";
paths = (
{
closed = 1;
nodes = (
"42 384.74 LINE",
"222.5 384.74 LINE",
"222.5 591.29 LINE",
"42 591.29 LINE"
);
},
{
closed = 1;
nodes = (
"194.5 535.4 LINE",
"363 535.4 LINE",
"363 766.73 LINE",
"194.5 766.73 LINE"
);
},
{
closed = 1;
nodes = (
"637 535.4 LINE",
"805.5 535.4 LINE",
"805.5 766.73 LINE",
"637 766.73 LINE"
);
},
{
closed = 1;
nodes = (
"777.5 384.73 LINE",
"958 384.73 LINE",
"958 591.28 LINE",
"777.5 591.28 LINE"
);
},
{
closed = 1;
nodes = (
"155.44 490.73 LINE",
"844.56 490.73 LINE",
"844.56 591.28 LINE",
"155.44 591.28 LINE"
);
},
{
closed = 1;
nodes = (
"688.57 617.28 LINE",
"974 617.28 LINE",
"974 733.28 LINE",
"688.57 733.28 LINE"
);
},
{
closed = 1;
nodes = (
"26 617.28 LINE",
"311.43 617.28 LINE",
"311.43 733.28 LINE",
"26 733.28 LINE"
);
},
{
closed = 1;
nodes = (
"538 774.61 LINE",
"476.23 725.74 OFFCURVE",
"407.95 678.24 OFFCURVE",
"334 631.94 CURVE",
"442.67 581.94 LINE",
"513.6 629.11 OFFCURVE",
"580.6 680.56 OFFCURVE",
"644 735.94 CURVE"
);
},
{
closed = 1;
nodes = (
"348 735.94 LINE",
"418.88 684.85 OFFCURVE",
"487.33 634.23 OFFCURVE",
"549.33 581.94 CURVE",
"658 631.94 LINE",
"590.1 682.52 OFFCURVE",
"522.58 730.56 OFFCURVE",
"454 774.61 CURVE"
);
}
);
width = 1000;
}
);
},
{
export = 0;
glyphname = _part.1U06;
lastChange = "2024-04-30 01:46:24 +0000";
layers = (
{
layerId = "BC79775B-A37D-4048-B0B8-E652625BF997";
paths = (
{
closed = 1;
nodes = (
"175.28 248.74 LINE",
"230.48 295.93 OFFCURVE",
"282.68 344.64 OFFCURVE",
"331.91 394.88 CURVE",
"243.08 477.49 LINE",
"190.76 425.05 OFFCURVE",
"138.54 375.94 OFFCURVE",
"86.45 331.35 CURVE"
);
},
{
closed = 1;
nodes = (
"671.74 382.76 LINE",
"731.15 338.51 OFFCURVE",
"787.25 293.88 OFFCURVE",
"838.85 248.74 CURVE",
"923.23 333.04 LINE",
"868.61 380.89 OFFCURVE",
"812.9 425.56 OFFCURVE",
"756.12 467.06 CURVE"
);
},
{
closed = 1;
nodes = (
"602.23 467.29 LINE",
"602.23 363.29 LINE",
"428.23 363.29 LINE",
"428.23 477.49 LINE",
"291.23 477.49 LINE",
"291.23 319.76 LINE SMOOTH",
"291.23 282.3 OFFCURVE",
"317.73 258.3 OFFCURVE",
"354.69 258.3 CURVE SMOOTH",
"665.76 258.3 LINE SMOOTH",
"701.22 258.3 OFFCURVE",
"729.22 285.05 OFFCURVE",
"729.22 319.76 CURVE SMOOTH",
"729.22 459.3 LINE"
);
},
{
closed = 1;
nodes = (
"439.55 497.01 LINE",
"450.38 454.25 OFFCURVE",
"459.25 411.5 OFFCURVE",
"466.07 368.74 CURVE",
"584.88 392.45 LINE",
"577.91 435.28 OFFCURVE",
"569.05 478.03 OFFCURVE",
"558.36 520.71 CURVE"
);
}
);
width = 1000;
}
);
},
{
export = 0;
glyphname = _part.1U07;
lastChange = "2024-04-30 01:46:24 +0000";
layers = (
{
layerId = "BC79775B-A37D-4048-B0B8-E652625BF997";
paths = (
{
closed = 1;
nodes = (
"141.75 467.06 LINE",
"141.75 258.74 LINE",
"858.25 258.74 LINE",
"858.25 467.06 LINE"
);
},
{
closed = 1;
nodes = (
"639.24 351.29 LINE",
"360.77 351.29 LINE",
"360.77 376.5 LINE",
"639.24 376.5 LINE"
);
}
);
width = 1000;
}
);
},
{
export = 0;
glyphname = _part.1U08;
lastChange = "2024-04-30 01:46:24 +0000";
layers = (
{
layerId = "BC79775B-A37D-4048-B0B8-E652625BF997";
paths = (
{
closed = 1;
nodes = (
"125.75 467.06 LINE",
"125.75 258.74 LINE",
"490 258.74 LINE",
"490 467.06 LINE"
);
},
{
closed = 1;
nodes = (
"374.49 351.29 LINE",
"257.25 351.29 LINE",
"257.25 376.5 LINE",
"374.49 376.5 LINE"
);
},
{
closed = 1;
nodes = (
"509.99 467.05 LINE",
"509.99 258.73 LINE",
"874.24 258.73 LINE",
"874.24 467.05 LINE"
);
},
{
closed = 1;
nodes = (
"742.73 351.28 LINE",
"625.49 351.28 LINE",
"625.49 376.49 LINE",
"742.73 376.49 LINE"
);
}
);
width = 1000;
}
);
},
{
export = 0;
glyphname = _part.1U09;
lastChange = "2024-04-30 01:46:24 +0000";
layers = (
{
layerId = "BC79775B-A37D-4048-B0B8-E652625BF997";
paths = (
{
closed = 1;
nodes = (
"390.75 299.19 LINE",
"609.25 299.19 LINE",
"609.25 436.3 LINE",
"390.75 436.3 LINE"
);
},
{
closed = 1;
nodes = (
"672.8 299.19 LINE",
"883.3 299.19 LINE",
"883.3 388.3 LINE",
"672.8 388.3 LINE"
);
},
{
closed = 1;
nodes = (
"116.71 299.19 LINE",
"327.21 299.19 LINE",
"327.21 388.3 LINE",
"116.71 388.3 LINE"
);
},
{
closed = 1;
nodes = (
"251.54 399.85 LINE",
"748.46 399.85 LINE",
"748.46 472.74 LINE",
"251.54 472.74 LINE"
);
},
{
closed = 1;
nodes = (
"116.71 262.74 LINE",
"883.3 262.74 LINE",
"883.3 353.63 LINE",
"116.71 353.63 LINE"
);
}
);
width = 1000;
}
);
},
{
export = 0;
glyphname = _part.1U10;
lastChange = "2024-04-30 01:46:24 +0000";
layers = (
{
layerId = "BC79775B-A37D-4048-B0B8-E652625BF997";
paths = (
{
closed = 1;
nodes = (
"405.75 242.74 LINE",
"594.25 242.74 LINE",
"594.25 541.02 LINE",
"405.75 541.02 LINE"
);
},
{
closed = 1;
nodes = (
"68 262.74 LINE",
"385.75 262.74 LINE",
"385.75 364.74 LINE",
"68 364.74 LINE"
);
},
{
closed = 1;
nodes = (
"614.25 262.74 LINE",
"932 262.74 LINE",
"932 364.74 LINE",
"614.25 364.74 LINE"
);
},
{
closed = 1;
nodes = (
"614.25 384.74 LINE",
"757.5 384.74 LINE",
"757.5 470.74 LINE",
"614.25 470.74 LINE"
);
},
{
closed = 1;
nodes = (
"242.5 384.74 LINE",
"385.75 384.74 LINE",
"385.75 470.74 LINE",
"242.5 470.74 LINE"
);
}
);
width = 1000;
}
);
},
{
export = 0;
glyphname = _part.1U11;
lastChange = "2024-04-30 01:46:24 +0000";
layers = (
{
layerId = "BC79775B-A37D-4048-B0B8-E652625BF997";
paths = (
{
closed = 1;
nodes = (
"66.45 242.74 LINE",
"66.45 -159.26 LINE",
"481.24 -159.26 LINE",
"481.24 242.74 LINE"
);
},
{
closed = 1;
nodes = (
"341.69 144.79 LINE",
"341.69 124.3 LINE",
"208 124.3 LINE",
"208 144.79 LINE"
);
},
{
closed = 1;
nodes = (
"341.69 57.48 LINE",
"341.69 34.9 LINE",
"208 34.9 LINE",
"208 57.48 LINE"
);
},
{
closed = 1;
nodes = (
"208 -52.41 LINE",
"208 -31.92 LINE",
"341.69 -31.92 LINE",
"341.69 -52.41 LINE"
);
}
);
width = 1000;
}
);
},
{
export = 0;
glyphname = _part.1U12;
lastChange = "2024-04-30 01:46:24 +0000";
layers = (
{
layerId = "BC79775B-A37D-4048-B0B8-E652625BF997";
paths = (
{
closed = 1;
nodes = (
"165.57 263.35 LINE",
"130.02 215.67 OFFCURVE",
"82.52 174.62 OFFCURVE",
"22.9 140.3 CURVE",
"94.12 35.74 LINE",
"207.11 99.54 OFFCURVE",
"268.2 160.75 OFFCURVE",
"332.75 263.35 CURVE"
);
},
{
closed = 1;
nodes = (
"199.99 221.29 LINE",
"151.23 112.81 LINE",
"344.76 112.81 LINE",
"309.33 38.29 OFFCURVE",
"179.83 -28.71 OFFCURVE",
"36.23 -69.25 CURVE",
"143.23 -180.71 LINE",
"310.9 -133.38 OFFCURVE",
"428.23 -58.71 OFFCURVE",
"489.99 80.44 CURVE",
"489.99 221.29 LINE"
);
},
{
closed = 1;
nodes = (
"202.73 159.29 LINE",
"113.1 95.31 LINE",
"215.72 -40.31 LINE",
"303.33 30.7 LINE"
);
}
);
width = 1000;
}
);
},
{
export = 0;
glyphname = _part.1U13;
lastChange = "2024-04-30 01:46:24 +0000";
layers = (
{
layerId = "BC79775B-A37D-4048-B0B8-E652625BF997";
paths = (
{
closed = 1;
nodes = (
"102.24 100.13 LINE",
"102.24 -112.7 LINE",
"328.51 -112.7 LINE",
"328.51 100.13 LINE"
);
},
{
closed = 1;
nodes = (
"247.49 -14.84 LINE",
"183.38 -14.84 LINE",
"183.38 12.98 LINE",
"247.49 12.98 LINE"
);
},
{
closed = 1;
nodes = (
"101.33 263.36 LINE",
"83.72 223.79 OFFCURVE",
"59.67 186.33 OFFCURVE",
"28.9 151.06 CURVE",
"61.77 -6.69 LINE",
"148 74.57 OFFCURVE",
"208.16 164.59 OFFCURVE",
"242.27 263.37 CURVE"
);
},
{
closed = 1;
nodes = (
"143.87 236.76 LINE",
"142.72 120.65 LINE",
"351.46 120.65 LINE",
"349.71 -41.9 LINE",
"305.71 -41.9 LINE",
"318.53 -159.23 LINE",
"407.35 -159.23 LINE SMOOTH",
"458.53 -159.23 OFFCURVE",
"488.22 -134.9 OFFCURVE",
"488.88 -72.62 CURVE SMOOTH",
"492.04 236.77 LINE"
);
}
);
width = 1000;
}
);
},
{
export = 0;
glyphname = _part.1U14;
lastChange = "2024-04-30 01:46:24 +0000";
layers = (
{
layerId = "BC79775B-A37D-4048-B0B8-E652625BF997";
paths = (
{
closed = 1;
nodes = (
"68 -69.02 LINE",
"246.5 -69.02 LINE",
"246.5 248.74 LINE",
"68 248.74 LINE"
);
},
{
closed = 1;
nodes = (
"52 -175.26 LINE",
"493.51 -143.18 LINE",
"500 -6.71 LINE",
"24.24 -34.71 LINE"
);
},
{
closed = 1;
nodes = (
"209.24 135.43 LINE",
"488 135.43 LINE",
"488 226.73 LINE",
"209.24 226.73 LINE"
);
},
{
closed = 1;
nodes = (
"209.24 17.95 LINE",
"488 17.95 LINE",
"488 109.25 LINE",
"209.24 109.25 LINE"
);
}
);
width = 1000;
}
);
},
{
export = 0;
glyphname = _part.1U15;
lastChange = "2024-04-30 01:46:24 +0000";
layers = (
{
layerId = "BC79775B-A37D-4048-B0B8-E652625BF997";
paths = (
{
closed = 1;
nodes = (
"351.5 -169.26 LINE",
"490 -169.26 LINE",
"490 232.74 LINE",
"351.5 232.74 LINE"
);
},
{
closed = 1;
nodes = (
"216.5 -149.26 LINE",
"331.5 -149.26 LINE",
"331.5 222.74 LINE",
"216.5 222.74 LINE"
);
},
{
closed = 1;
nodes = (
"115.13 -9.16 LINE",
"432.88 -9.16 LINE",
"432.88 124.38 LINE",
"115.13 124.38 LINE"
);
},
{
closed = 1;
nodes = (
"196.51 232.74 LINE",
"58.01 232.74 LINE",
"58.01 108.48 LINE SMOOTH",
"58.01 12.29 OFFCURVE",
"47.91 -67.37 OFFCURVE",
"26.58 -152.71 CURVE",
"176.51 -176.04 LINE",
"191.24 -87.37 OFFCURVE",
"196.51 -13.71 OFFCURVE",
"196.51 92.48 CURVE SMOOTH"
);
}
);
width = 1000;
}
);
},
{
export = 0;
glyphname = _part.1U16;
lastChange = "2024-04-30 01:46:24 +0000";
layers = (
{
layerId = "BC79775B-A37D-4048-B0B8-E652625BF997";
paths = (
{
closed = 1;
nodes = (
"518 242.74 LINE",
"518 -159.26 LINE",
"932.79 -159.26 LINE",
"932.79 242.74 LINE"
);
},
{
closed = 1;
nodes = (
"791.24 142.71 LINE",
"791.24 124.3 LINE",
"657.55 124.3 LINE",
"657.55 142.71 LINE"
);
},
{
closed = 1;
nodes = (
"791.24 57.48 LINE",
"791.24 34.9 LINE",
"657.55 34.9 LINE",
"657.55 57.48 LINE"
);
},
{
closed = 1;
nodes = (
"657.55 -50.32 LINE",
"657.55 -31.91 LINE",
"791.24 -31.91 LINE",
"791.24 -50.32 LINE"
);
}
);
width = 1000;
}
);
},
{
export = 0;
glyphname = _part.1U17;
lastChange = "2024-04-30 01:46:24 +0000";
layers = (
{
layerId = "BC79775B-A37D-4048-B0B8-E652625BF997";
paths = (
{
closed = 1;
nodes = (
"500 98.3 LINE",
"970 98.3 LINE",
"970 221.3 LINE",
"500 221.3 LINE"
);
},
{
closed = 1;
nodes = (
"707 -175.25 LINE",
"862.9 -175.25 LINE",
"862.9 262.75 LINE",
"707 262.75 LINE"
);
},
{
closed = 1;
nodes = (
"657.86 27.75 LINE",
"666.9 73.5 LINE",
"520 73.5 LINE",
"500 -34.3 LINE",
"500 -105.25 LINE",
"970 -105.25 LINE",
"970 27.75 LINE"
);
}
);
width = 1000;
}
);
},
{
export = 0;
glyphname = _part.1U18;
lastChange = "2024-04-30 01:46:24 +0000";
layers = (
{
layerId = "BC79775B-A37D-4048-B0B8-E652625BF997";
paths = (
{
closed = 1;
nodes = (
"930.86 63.96 LINE",
"930.86 -61.71 LINE",
"919.3 -61.71 OFFCURVE",
"916.86 -58.71 OFFCURVE",
"916.86 -47.71 CURVE SMOOTH",
"916.86 242.74 LINE",
"519.62 242.74 LINE",
"519.62 134.29 LINE",
"779.86 134.29 LINE",
"779.86 -107.23 LINE SMOOTH",
"779.86 -142.71 OFFCURVE",
"795.61 -159.27 OFFCURVE",
"831.9 -159.27 CURVE SMOOTH",
"927.83 -159.27 LINE SMOOTH",
"964.12 -159.27 OFFCURVE",
"981.87 -143.72 OFFCURVE",
"981.87 -107.23 CURVE SMOOTH",
"981.87 55.95 LINE"
);
},
{
closed = 1;
nodes = (
"500.01 -26.72 LINE",
"834.41 -26.72 LINE",
"834.41 79.28 LINE",
"500.01 79.28 LINE"
);
},
{
closed = 1;
nodes = (
"582.25 -159.27 LINE",
"709.25 -159.27 LINE",
"709.25 179.28 LINE",
"582.25 179.28 LINE"
);
}
);
width = 1000;
}
);
},
{
export = 0;
glyphname = _part.1U19;
lastChange = "2024-04-30 01:46:24 +0000";
layers = (
{
layerId = "BC79775B-A37D-4048-B0B8-E652625BF997";
paths = (
{
closed = 1;
nodes = (
"828.24 25.3 LINE",
"823.82 -7.24 LINE SMOOTH",
"822.36 -17.61 OFFCURVE",
"818.4 -21.7 OFFCURVE",
"807.27 -21.7 CURVE SMOOTH",
"688.5 -21.7 LINE",
"688.5 248.75 LINE",
"510 248.75 LINE",
"510 -89.52 LINE SMOOTH",
"510 -142.36 OFFCURVE",
"531.24 -159.25 OFFCURVE",
"577.73 -159.25 CURVE SMOOTH",
"892.76 -159.25 LINE SMOOTH",
"935.57 -159.25 OFFCURVE",
"954.57 -141.03 OFFCURVE",
"959.96 -99.93 CURVE SMOOTH",
"973.23 3.56 LINE"
);
},
{
closed = 1;
nodes = (
"602.49 110.47 LINE",
"718.15 116.62 OFFCURVE",
"831.08 133.16 OFFCURVE",
"941.49 159.34 CURVE",
"866.49 246.76 LINE",
"782.15 221.7 OFFCURVE",
"687.14 207.23 OFFCURVE",
"583.49 201.37 CURVE"
);
},
{
closed = 1;
nodes = (
"912.51 132.12 LINE",
"827.68 108.31 OFFCURVE",
"732.4 95.47 OFFCURVE",
"628.65 91.53 CURVE",
"645.82 -1.18 LINE",
"761.58 2.81 OFFCURVE",
"874.82 17.4 OFFCURVE",
"985.74 41.84 CURVE"
);
}
);
width = 1000;
}
);
},
{
export = 0;
glyphname = _part.1U20;
lastChange = "2024-04-30 01:46:24 +0000";
layers = (
{
layerId = "BC79775B-A37D-4048-B0B8-E652625BF997";
paths = (
{
closed = 1;
nodes = (
"663.22 -149.26 LINE",
"774.01 -149.26 LINE",
"774.01 222.74 LINE",
"663.22 222.74 LINE"
);
},
{
closed = 1;
nodes = (
"565.18 -9.16 LINE",
"872.06 -9.16 LINE",
"872.06 124.38 LINE",
"565.18 124.38 LINE"
);
},
{
closed = 1;
nodes = (
"510.01 232.74 LINE",
"510.01 108.48 LINE SMOOTH",
"510.01 7.63 OFFCURVE",
"502 -67.29 OFFCURVE",
"480.58 -152.71 CURVE",
"620.15 -176.04 LINE",
"637.59 -86.71 OFFCURVE",
"643.78 -13.71 OFFCURVE",
"643.78 92.48 CURVE SMOOTH",
"643.78 232.74 LINE"
);
},
{
closed = 1;
nodes = (
"940.76 71.96 LINE",
"940.76 -61.71 LINE",
"929.59 -61.71 OFFCURVE",
"927.24 -58.71 OFFCURVE",
"927.24 -47.71 CURVE SMOOTH",
"927.24 232.74 LINE",
"793.48 232.74 LINE",
"793.48 -107.22 LINE SMOOTH",
"793.48 -142.7 OFFCURVE",
"808.69 -159.26 OFFCURVE",
"843.74 -159.26 CURVE SMOOTH",
"937.84 -159.26 LINE SMOOTH",
"972.88 -159.26 OFFCURVE",
"990.03 -143.71 OFFCURVE",
"990.03 -107.22 CURVE SMOOTH",
"990.03 63.96 LINE"
);
}
);
width = 1000;
}
);
},
{
export = 0;
glyphname = _part.2U01;
lastChange = "2024-04-30 01:46:24 +0000";
layers = (
{
layerId = "BC79775B-A37D-4048-B0B8-E652625BF997";
paths = (
{
closed = 1;
nodes = (
"262.76 705.11 LINE",
"262.76 -2.6 LINE",
"191.02 -2.6 LINE",
"210.68 -159.98 LINE",
"311.69 -159.98 LINE SMOOTH",
"366.93 -159.98 OFFCURVE",
"402 -124.59 OFFCURVE",
"402 -55.29 CURVE SMOOTH",
"402 705.11 LINE"
);
},
{
closed = 1;
nodes = (
"61.3 202.64 LINE",
"200.54 202.64 LINE",
"200.54 705.11 LINE",
"61.3 705.11 LINE"
);
},
{
closed = 1;
nodes = (
"18.9 138.22 LINE",
"335.73 138.22 LINE",
"335.73 279.81 LINE",
"18.9 279.81 LINE"
);
},
{
closed = 1;
nodes = (
"72.86 576.01 LINE",
"397.07 576.01 LINE",
"397.07 705.11 LINE",
"72.86 705.11 LINE"
);
},
{
closed = 1;
nodes = (
"68.27 444.21 LINE",
"392.48 444.21 LINE",
"392.48 543.41 LINE",
"68.27 543.41 LINE"
);
},
{
closed = 1;
nodes = (
"68.27 312.41 LINE",
"392.48 312.41 LINE",
"392.48 411.61 LINE",
"68.27 411.61 LINE"
);
},
{
closed = 1;
nodes = (
"134.87 180.47 LINE",
"105.79 104.26 OFFCURVE",
"65.26 31.37 OFFCURVE",
"14.41 -38.52 CURVE",
"121.43 -161.69 LINE",
"181.18 -69.84 OFFCURVE",
"224.09 33.48 OFFCURVE",
"249.14 148.95 CURVE"
);
},
{
closed = 1;
nodes = (
"299.12 665.1 LINE",
"320.74 764.1 LINE",
"166.45 764.1 LINE",
"144.83 665.1 LINE"
);
}
);
width = 1000;
}
);
},
{
export = 0;
glyphname = _part.2U02;
lastChange = "2024-04-30 01:46:24 +0000";
layers = (
{
layerId = "BC79775B-A37D-4048-B0B8-E652625BF997";
paths = (
{
closed = 1;
nodes = (
"310.87 652.43 LINE",
"310.87 82.66 LINE",
"140.7 76.66 LINE",
"140.7 652.43 LINE",
"34 652.43 LINE",
"34 -118.45 LINE",
"402 -98.45 LINE",
"402 652.43 LINE"
);
},
{
closed = 1;
nodes = (
"158.23 -27.34 LINE",
"293.35 -27.34 LINE",
"293.35 770 LINE",
"158.23 770 LINE"
);
}
);
width = 1000;
}
);
},
{
export = 0;
glyphname = _part.2U03;
lastChange = "2024-04-30 01:46:24 +0000";
layers = (
{
layerId = "BC79775B-A37D-4048-B0B8-E652625BF997";
paths = (
{
closed = 1;
nodes = (
"262.81 760 LINE",
"262.81 -2.6 LINE",
"191.09 -2.6 LINE",
"210.74 -159.98 LINE",
"311.72 -159.98 LINE SMOOTH",
"366.95 -159.98 OFFCURVE",
"402 -124.59 OFFCURVE",
"402 -55.29 CURVE SMOOTH",
"402 760 LINE"
);
},
{
closed = 1;
nodes = (
"198.8 760 LINE",
"59.6 760 LINE",
"59.6 307.92 LINE SMOOTH",
"59.6 147.77 OFFCURVE",
"45.4 17.77 OFFCURVE",
"17.23 -126.45 CURVE",
"159.56 -159.98 LINE",
"186.9 -18.23 OFFCURVE",
"198.79 127.77 OFFCURVE",
"198.79 279.92 CURVE SMOOTH"
);
},
{
closed = 1;
nodes = (
"129.19 593.11 LINE",
"334.05 593.11 LINE",
"334.05 760 LINE",
"129.19 760 LINE"
);
},
{
closed = 1;
nodes = (
"129.19 354.44 LINE",
"334.05 354.44 LINE",
"334.05 511.33 LINE",
"129.19 511.33 LINE"
);
},
{
closed = 1;
nodes = (
"129.19 115.77 LINE",
"334.05 115.77 LINE",
"334.05 272.66 LINE",
"129.19 272.66 LINE"
);
}
);
width = 1000;
}
);
},
{
export = 0;
glyphname = _part.2U04;
lastChange = "2024-04-30 01:46:24 +0000";
layers = (
{
layerId = "BC79775B-A37D-4048-B0B8-E652625BF997";
paths = (
{
closed = 1;
nodes = (
"83.73 776 LINE",
"66.21 679.19 OFFCURVE",
"45 581.77 OFFCURVE",
"20.23 483.77 CURVE",
"203.02 453.1 LINE",
"228.19 551.58 OFFCURVE",
"249.68 653.6 OFFCURVE",
"266.77 761.1 CURVE"
);
},
{
closed = 1;
nodes = (
"125.1 567.04 LINE",
"410.6 567.04 LINE",
"410.6 721.99 LINE",
"125.1 721.99 LINE"
);
},
{
closed = 1;
nodes = (
"78.92 379.74 LINE",
"381.73 379.74 LINE",
"381.73 528.69 LINE",
"78.92 528.69 LINE"
);
},
{
closed = 1;
nodes = (
"43.1 192.44 LINE",
"410.6 192.44 LINE",
"410.6 341.39 LINE",
"43.1 341.39 LINE"
);
},
{
closed = 1;
nodes = (
"311.32 -54.81 LINE",
"311.32 237.11 LINE",
"317.09 259.11 LINE",
"317.09 397.3 LINE",
"155.47 397.3 LINE",
"155.47 255.11 LINE",
"165.09 241.11 LINE",
"165.09 -54.81 LINE"
);
},
{
closed = 1;
nodes = (
"39.68 -19.56 LINE",
"63.09 -180.23 LINE",
"416.37 -129.56 LINE",
"404.41 22.45 LINE"
);
},
{
closed = 1;
nodes = (
"34.67 147.24 LINE",
"48.89 96.69 OFFCURVE",
"61.16 45.83 OFFCURVE",
"71.23 -5.38 CURVE",
"179.46 30.43 LINE",
"169.43 81.86 OFFCURVE",
"157.35 131.68 OFFCURVE",
"142.9 179.62 CURVE"
);
},
{
closed = 1;
nodes = (
"330.98 183.62 LINE",
"321.89 135.98 OFFCURVE",
"309.65 88.26 OFFCURVE",
"294.42 40.46 CURVE",
"389.18 13.62 LINE",
"404.21 61.5 OFFCURVE",
"416.24 108.75 OFFCURVE",
"425.74 158.12 CURVE"
);
}
);
width = 1000;
}
);
},
{
export = 0;
glyphname = _part.2U05;
lastChange = "2024-04-30 01:46:24 +0000";
layers = (
{
layerId = "BC79775B-A37D-4048-B0B8-E652625BF997";
paths = (
{
closed = 1;
nodes = (
"408.75 582.55 LINE",
"46 582.55 LINE",
"46 193.46 LINE",
"408.75 193.46 LINE"
);
},
{
closed = 1;
nodes = (
"263.86 475.82 LINE",
"263.86 436.53 LINE",
"190.89 436.53 LINE",
"190.89 475.82 LINE"
);
},
{
closed = 1;
nodes = (
"190.89 309.95 LINE",
"190.89 349.24 LINE",
"263.86 349.24 LINE",
"263.86 309.95 LINE"
);
},
{
closed = 1;
nodes = (
"30 608.55 LINE",
"420 608.55 LINE",
"420 760 LINE",
"30 760 LINE"
);
},
{
closed = 1;
nodes = (
"381.61 64.72 OFFCURVE",
"391.01 113.27 OFFCURVE",
"399.24 162.44 CURVE",
"266.37 188.45 LINE",
"255.98 128.57 OFFCURVE",
"243.11 67.7 OFFCURVE",
"228.07 5.97 CURVE",
"159.22 1.22 OFFCURVE",
"90.7 -2.86 OFFCURVE",
"22 -6.54 CURVE",
"30 -165.99 LINE",
"93.32 -157.83 OFFCURVE",
"287.72 -148.52 OFFCURVE",
"424.75 -137.99 CURVE",
"424.75 21.46 LINE",
"406.77 19.85 OFFCURVE",
"388.85 18.31 OFFCURVE",
"370.97 16.82 CURVE"
);
},
{
closed = 1;
nodes = (
"223.7 25.29 LINE",
"213.37 80.68 OFFCURVE",
"201.06 134.52 OFFCURVE",
"186.68 186.74 CURVE",
"55.51 164.15 LINE",
"69.45 108.75 OFFCURVE",
"81.26 53.34 OFFCURVE",
"90.8 -2.1 CURVE"
);
}
);
width = 1000;
}
);
},
{
export = 0;
glyphname = _part.2U06;
lastChange = "2024-04-30 01:46:24 +0000";
layers = (
{
layerId = "BC79775B-A37D-4048-B0B8-E652625BF997";
paths = (
{
closed = 1;
nodes = (
"430.41 493.77 LINE",
"580.95 493.77 LINE",
"580.95 722.6 LINE",
"430.41 722.6 LINE"
);
},
{
closed = 1;
nodes = (
"805.4 493.77 LINE",
"955.94 493.77 LINE",
"955.94 720.6 LINE",
"805.4 720.6 LINE"
);
},
{
closed = 1;
nodes = (
"613.89 522.1 LINE",
"772.47 522.1 LINE",
"772.47 764.1 LINE",
"613.89 764.1 LINE"
);
},
{
closed = 1;
nodes = (
"490.91 493.77 LINE",
"872.53 493.77 LINE",
"872.53 628.43 LINE",
"490.91 628.43 LINE"
);
}
);
width = 1000;
}
);
},
{
export = 0;
glyphname = _part.2U07;
lastChange = "2024-04-30 01:46:24 +0000";
layers = (
{
layerId = "BC79775B-A37D-4048-B0B8-E652625BF997";
paths = (
{
closed = 1;
nodes = (
"416.8 617.02 LINE",
"431.04 480.83 LINE",
"871.05 500.89 LINE",
"871.05 621.2 LINE"
);
},
{
closed = 1;
nodes = (
"719.08 664.6 LINE",
"762.61 599.35 OFFCURVE",
"802 533.51 OFFCURVE",
"836.58 467 CURVE",
"974.38 518.51 LINE",
"930.13 582.75 OFFCURVE",
"884.96 641.23 OFFCURVE",
"838.65 692.45 CURVE"
);
},
{
closed = 1;
nodes = (
"607.52 773.23 LINE",
"555.81 710.81 OFFCURVE",
"499.06 650.78 OFFCURVE",
"434.53 590.96 CURVE",
"524.14 514.74 LINE",
"609.75 576.02 OFFCURVE",
"693.43 643.96 OFFCURVE",
"775.59 717.16 CURVE"
);
}
);
width = 1000;
}
);
},
{
export = 0;
glyphname = _part.2U08;
lastChange = "2024-04-30 01:46:24 +0000";
layers = (
{
layerId = "BC79775B-A37D-4048-B0B8-E652625BF997";
paths = (
{
closed = 1;
nodes = (
"793.08 652.28 LINE",
"788.54 620.89 LINE SMOOTH",
"787.04 610.88 OFFCURVE",
"782.97 606.94 OFFCURVE",
"771.52 606.94 CURVE SMOOTH",
"614.34 606.94 LINE",
"614.34 769.99 LINE",
"430.93 769.99 LINE",
"430.93 555.02 LINE SMOOTH",
"430.93 504.05 OFFCURVE",
"452.76 487.76 OFFCURVE",
"500.57 487.76 CURVE SMOOTH",
"865.6 487.76 LINE SMOOTH",
"909.61 487.76 OFFCURVE",
"929.15 505.33 OFFCURVE",
"934.7 544.98 CURVE SMOOTH",
"946.6 632.07 LINE"
);
},
{
closed = 1;
nodes = (
"890.44 772.76 LINE",
"802.65 748.7 OFFCURVE",
"698.22 736.96 OFFCURVE",
"591.47 735.22 CURVE",
"606.77 632.88 LINE",
"725.85 634.38 OFFCURVE",
"842.63 647.6 OFFCURVE",
"957.25 671.7 CURVE"
);
}
);
width = 1000;
}
);
},
{
export = 0;
glyphname = _part.2U09;
lastChange = "2024-04-30 01:46:24 +0000";
layers = (
{
layerId = "BC79775B-A37D-4048-B0B8-E652625BF997";
paths = (
{
closed = 1;
nodes = (
"438 760 LINE",
"438 627.89 LINE",
"800.93 627.89 LINE",
"800.05 595.34 LINE",
"769.67 595.34 LINE",
"784.49 484.01 LINE",
"871.31 484.01 LINE SMOOTH",
"922.49 484.01 OFFCURVE",
"952.18 508.34 OFFCURVE",
"952.84 570.62 CURVE SMOOTH",
"956 760.01 LINE"
);
},
{
closed = 1;
nodes = (
"400.24 595.12 LINE",
"440.57 552.57 OFFCURVE",
"478.12 511.37 OFFCURVE",
"511.68 472.12 CURVE",
"629.22 537.12 LINE",
"593.42 577.24 OFFCURVE",
"556.17 616.56 OFFCURVE",
"517.54 655.12 CURVE"
);
},
{
closed = 1;
nodes = (
"590.07 595.12 LINE",
"627.59 553.91 OFFCURVE",
"662.17 512.89 OFFCURVE",
"692.87 472.12 CURVE",
"801.46 537.12 LINE",
"769.09 577.61 OFFCURVE",
"734.7 616.91 OFFCURVE",
"698.44 655.12 CURVE"
);
}
);
width = 1000;
}
);
},
{
export = 0;
glyphname = _part.2U10;
lastChange = "2024-04-30 01:46:24 +0000";
layers = (
{
layerId = "BC79775B-A37D-4048-B0B8-E652625BF997";
paths = (
{
closed = 1;
nodes = (
"463.74 639.97 LINE",
"910 639.97 LINE",
"910 760 LINE",
"463.74 760 LINE"
);
},
{
closed = 1;
nodes = (
"420 487.77 LINE",
"964 487.77 LINE",
"964 615.01 LINE",
"420 615.01 LINE"
);
},
{
closed = 1;
nodes = (
"673.24 540.96 LINE",
"866 540.96 LINE",
"910 639.97 LINE",
"804.24 661.78 LINE",
"717.24 639.97 LINE"
);
}
);
width = 1000;
}
);
},
{
export = 0;
glyphname = _part.2U11;
lastChange = "2024-04-30 01:46:24 +0000";
layers = (
{
layerId = "BC79775B-A37D-4048-B0B8-E652625BF997";
paths = (
{
closed = 1;
nodes = (
"416 293.88 LINE",
"978 293.88 LINE",
"978 433.01 LINE",
"416 433.01 LINE"
);
},
{
closed = 1;
nodes = (
"484.11 245.11 LINE",
"602.41 245.11 LINE",
"602.41 477.78 LINE",
"484.11 477.78 LINE"
);
},
{
closed = 1;
nodes = (
"628.47 245.11 LINE",
"746.77 245.11 LINE",
"746.77 477.78 LINE",
"628.47 477.78 LINE"
);
},
{
closed = 1;
nodes = (
"772.83 245.11 LINE",
"891.13 245.11 LINE",
"891.13 477.78 LINE",
"772.83 477.78 LINE"
);
}
);
width = 1000;
}
);
},
{
export = 0;
glyphname = _part.2U12;
lastChange = "2024-04-30 01:46:24 +0000";
layers = (
{
layerId = "BC79775B-A37D-4048-B0B8-E652625BF997";
paths = (
{
closed = 1;
nodes = (
"715.58 247.11 LINE SMOOTH",
"754.69 247.11 OFFCURVE",
"773.07 260.36 OFFCURVE",
"773.07 306.18 CURVE SMOOTH",
"773.07 477.77 LINE",
"612.61 477.77 LINE",
"612.61 359.44 LINE",
"562.5 359.44 LINE",
"575.03 247.11 LINE"
);
},
{
closed = 1;
nodes = (
"489.06 474.99 LINE",
"457.48 413.07 OFFCURVE",
"420.34 354.09 OFFCURVE",
"377.23 298.27 CURVE",
"502.65 241.36 LINE",
"546.86 300.87 OFFCURVE",
"584.94 364.69 OFFCURVE",
"617.61 432.32 CURVE"
);
},
{
closed = 1;
nodes = (
"738.84 432.32 LINE",
"783.02 368.03 OFFCURVE",
"821.92 304.32 OFFCURVE",
"853.8 241.36 CURVE",
"987.57 298.27 LINE",
"953.53 360.13 OFFCURVE",
"916.3 419.07 OFFCURVE",
"875.75 474.99 CURVE"
);
}
);
width = 1000;
}
);
},
{
export = 0;
glyphname = _part.2U13;
lastChange = "2024-04-30 01:46:24 +0000";
layers = (
{
layerId = "BC79775B-A37D-4048-B0B8-E652625BF997";
paths = (
{
closed = 1;
nodes = (
"430.5 478.38 LINE",
"423.63 407.3 OFFCURVE",
"412.4 334.99 OFFCURVE",
"397.24 261.56 CURVE",
"525.63 247.8 LINE",
"535.01 322.45 OFFCURVE",
"541.48 396.84 OFFCURVE",
"544.94 470.97 CURVE"
);
},
{
closed = 1;
nodes = (
"551.25 469.1 LINE",
"554.86 395.84 OFFCURVE",
"554.88 322.73 OFFCURVE",
"551.25 249.77 CURVE",
"684 253.1 LINE",
"682.31 327.09 OFFCURVE",
"678.38 400.22 OFFCURVE",
"672.04 472.43 CURVE"
);
},
{
closed = 1;
nodes = (
"684.03 467.1 LINE",
"692.24 395.86 OFFCURVE",
"697.53 323.37 OFFCURVE",
"700.17 249.77 CURVE",
"834.71 259.1 LINE",
"828.35 330.36 OFFCURVE",
"819.59 401.48 OFFCURVE",
"808.4 472.43 CURVE"
);
},
{
closed = 1;
nodes = (
"821.81 463.1 LINE",
"833.04 391.28 OFFCURVE",
"842.09 320.15 OFFCURVE",
"848.72 249.77 CURVE",
"981.47 265.1 LINE",
"972.55 335.44 OFFCURVE",
"960.85 404.58 OFFCURVE",
"946.19 472.43 CURVE"
);
}
);
width = 1000;
}
);
},
{
export = 0;
glyphname = _part.2U14;
lastChange = "2024-04-30 01:46:24 +0000";
layers = (
{
layerId = "BC79775B-A37D-4048-B0B8-E652625BF997";
paths = (
{
closed = 1;
nodes = (
"492.52 489.07 LINE",
"462.74 452.54 OFFCURVE",
"419.57 405.21 OFFCURVE",
"378.55 361.44 CURVE",
"378.24 361.44 LINE",
"378.4 361.27 LINE",
"378.35 361.21 OFFCURVE",
"378.3 361.16 OFFCURVE",
"378.24 361.1 CURVE SMOOTH",
"378.55 361.1 LINE",
"420.04 316.26 OFFCURVE",
"462.74 268.99 OFFCURVE",
"494.26 231.59 CURVE",
"638.11 250.88 LINE",
"603.74 289.93 OFFCURVE",
"569.65 326.94 OFFCURVE",
"535.95 361.27 CURVE",
"569.66 395.37 OFFCURVE",
"603.74 432.4 OFFCURVE",
"638.11 471.66 CURVE"
);
},
{
closed = 1;
nodes = (
"667.93 489.07 LINE",
"638.15 452.54 OFFCURVE",
"594.98 405.21 OFFCURVE",
"553.96 361.44 CURVE",
"553.65 361.44 LINE SMOOTH",
"553.7 361.38 OFFCURVE",
"553.75 361.33 OFFCURVE",
"553.8 361.27 CURVE SMOOTH",
"553.75 361.21 OFFCURVE",
"553.7 361.16 OFFCURVE",
"553.65 361.1 CURVE SMOOTH",
"553.96 361.1 LINE",
"595.45 316.26 OFFCURVE",
"638.15 268.99 OFFCURVE",
"669.67 231.59 CURVE",
"813.52 250.88 LINE",
"779.15 289.93 OFFCURVE",
"745.06 326.94 OFFCURVE",
"711.36 361.27 CURVE",
"745.07 395.37 OFFCURVE",
"779.15 432.4 OFFCURVE",
"813.52 471.66 CURVE"
);
},
{
closed = 1;
nodes = (
"843.34 489.07 LINE",
"813.56 452.54 OFFCURVE",
"770.39 405.21 OFFCURVE",
"729.37 361.44 CURVE",
"729.06 361.44 LINE SMOOTH",
"729.11 361.38 OFFCURVE",
"729.16 361.33 OFFCURVE",
"729.22 361.27 CURVE SMOOTH",
"729.17 361.21 OFFCURVE",
"729.12 361.16 OFFCURVE",
"729.06 361.1 CURVE SMOOTH",
"729.37 361.1 LINE",
"770.86 316.26 OFFCURVE",
"813.56 268.99 OFFCURVE",
"845.07 231.59 CURVE",
"988.92 250.88 LINE",
"954.55 289.93 OFFCURVE",
"920.46 326.94 OFFCURVE",
"886.76 361.27 CURVE",
"920.47 395.37 OFFCURVE",
"954.55 432.4 OFFCURVE",
"988.92 471.66 CURVE"
);
}
);
width = 1000;
}
);
},
{
export = 0;
glyphname = _part.2U15;
lastChange = "2024-04-30 01:46:24 +0000";
layers = (
{
layerId = "BC79775B-A37D-4048-B0B8-E652625BF997";
paths = (
{
closed = 1;
nodes = (
"428 469.77 LINE",
"428 253.1 LINE",
"950 253.1 LINE",
"950 469.77 LINE"
);
},
{
closed = 1;
nodes = (
"578.89 385.78 LINE",
"629.76 385.78 LINE",
"629.76 343.88 LINE",
"578.89 343.88 LINE"
);
},
{
closed = 1;
nodes = (
"748.24 343.88 LINE",
"748.24 385.78 LINE",
"799.11 385.78 LINE",
"799.11 343.88 LINE"
);
}
);
width = 1000;
}
);
},
{
export = 0;
glyphname = _part.2U16;
lastChange = "2024-04-30 01:46:24 +0000";
layers = (
{
layerId = "BC79775B-A37D-4048-B0B8-E652625BF997";
paths = (
{
closed = 1;
nodes = (
"809.3 229.11 LINE",
"809.3 -36.6 LINE",
"772.88 -36.6 LINE",
"793.69 -159.98 LINE",
"863.18 -159.98 LINE SMOOTH",
"921.67 -159.98 OFFCURVE",
"958.79 -124.59 OFFCURVE",
"958.79 -55.29 CURVE SMOOTH",
"958.79 229.11 LINE"
);
},
{
closed = 1;
nodes = (
"427.57 -159.98 LINE",
"577.06 -159.98 LINE",
"577.06 229.11 LINE",
"427.57 229.11 LINE"
);
},
{
closed = 1;
nodes = (
"592.9 -124.89 LINE",
"683.29 -124.89 LINE",
"683.29 200.47 LINE",
"592.9 200.47 LINE"
);
},
{
closed = 1;
nodes = (
"700.2 -124.89 LINE",
"790.59 -124.89 LINE",
"790.59 200.47 LINE",
"700.2 200.47 LINE"
);
},
{
closed = 1;
nodes = (
"451.05 95.77 LINE",
"932.43 95.77 LINE",
"932.43 229.1 LINE",
"451.05 229.1 LINE"
);
}
);
width = 1000;
}
);
},
{
export = 0;
glyphname = _part.2U17;
lastChange = "2024-04-30 01:46:24 +0000";
layers = (
{
layerId = "BC79775B-A37D-4048-B0B8-E652625BF997";
paths = (
{
closed = 1;
nodes = (
"432.75 235.11 LINE",
"432.75 117.11 LINE",
"751.43 117.11 LINE",
"694.43 57.78 OFFCURVE",
"575.94 4.44 OFFCURVE",
"388.96 -39.56 CURVE",
"446.76 -184.89 LINE",
"674.57 -118.45 OFFCURVE",
"869.8 -17.02 OFFCURVE",
"939.63 121.11 CURVE",
"939.63 235.11 LINE"
);
},
{
closed = 1;
nodes = (
"435.02 77.11 LINE",
"551.97 -50.22 OFFCURVE",
"709.3 -145.56 OFFCURVE",
"921.63 -184.89 CURVE",
"975.93 -37.89 LINE",
"777.53 11.78 OFFCURVE",
"664.3 55.11 OFFCURVE",
"580.27 160.11 CURVE"
);
}
);
width = 1000;
}
);
},
{
export = 0;
glyphname = _part.2U18;
lastChange = "2024-04-30 01:46:24 +0000";
layers = (
{
layerId = "BC79775B-A37D-4048-B0B8-E652625BF997";
paths = (
{
closed = 1;
nodes = (
"434.92 235.11 LINE",
"434.92 -151.98 LINE",
"951.17 -151.98 LINE",
"951.17 235.11 LINE"
);
},
{
closed = 1;
nodes = (
"782.23 128.38 LINE",
"782.23 97.24 LINE",
"599.86 97.24 LINE",
"599.86 128.38 LINE"
);
},
{
closed = 1;
nodes = (
"599.86 -33.49 LINE",
"599.86 1.57 LINE",
"782.23 1.57 LINE",
"782.23 -33.49 LINE"
);
}
);
width = 1000;
}
);
},
{
export = 0;
glyphname = _part.2U19;
lastChange = "2024-04-30 01:46:24 +0000";
layers = (
{
layerId = "BC79775B-A37D-4048-B0B8-E652625BF997";
paths = (
{
closed = 1;
nodes = (
"619.69 237.11 LINE",
"619.69 -4.22 LINE",
"562.07 -4.22 LINE",
"578.41 -159.99 LINE",
"695.62 -159.99 LINE SMOOTH",
"755.53 -159.99 OFFCURVE",
"778.42 -143.38 OFFCURVE",
"778.42 -72.89 CURVE SMOOTH",
"778.42 237.12 LINE"
);
},
{
closed = 1;
nodes = (
"475.49 234.46 LINE",
"453.65 126.86 OFFCURVE",
"427.12 17.89 OFFCURVE",
"396.44 -92.31 CURVE",
"537.27 -127.92 LINE",
"567.85 -18.37 OFFCURVE",
"593.81 93.19 OFFCURVE",
"615.38 206.66 CURVE"
);
},
{
closed = 1;
nodes = (
"784.19 211.73 LINE",
"803.65 91.69 OFFCURVE",
"818.96 -24.88 OFFCURVE",
"829.27 -137.24 CURVE",
"976.91 -112.51 LINE",
"964.56 5.06 OFFCURVE",
"949.14 118.96 OFFCURVE",
"930.14 228.57 CURVE"
);
}
);
width = 1000;
}
);
},
{
export = 0;
glyphname = _part.2U20;
lastChange = "2024-04-30 01:46:24 +0000";
layers = (
{
layerId = "BC79775B-A37D-4048-B0B8-E652625BF997";
paths = (
{
closed = 1;
nodes = (
"573.74 51.34 LINE",
"611.49 -7.76 OFFCURVE",
"646.95 -67.82 OFFCURVE",
"679.98 -128.89 CURVE",
"789.86 -52.73 LINE",
"756 7.94 OFFCURVE",
"720.65 65.92 OFFCURVE",
"683.73 121.09 CURVE"
);
},
{
closed = 1;
nodes = (
"462.93 232 LINE",
"462.93 107.74 LINE SMOOTH",
"462.93 6.89 OFFCURVE",
"452.91 -67.89 OFFCURVE",
"417.91 -153.45 CURVE",
"573 -176.78 LINE",
"603.57 -86.89 OFFCURVE",
"611.9 -14.45 OFFCURVE",
"611.9 91.74 CURVE SMOOTH",
"611.9 232 LINE"
);
},
{
closed = 1;
nodes = (
"917.43 99.22 LINE",
"917.43 -62.45 LINE",
"905.66 -62.45 OFFCURVE",
"903.18 -59.45 OFFCURVE",
"903.18 -48.45 CURVE SMOOTH",
"903.18 232 LINE",
"752.2 232 LINE",
"752.2 -107.96 LINE SMOOTH",
"752.2 -143.44 OFFCURVE",
"768.23 -160 OFFCURVE",
"805.17 -160 CURVE SMOOTH",
"935 -160 LINE SMOOTH",
"971.94 -160 OFFCURVE",
"990 -144.45 OFFCURVE",
"990 -107.96 CURVE SMOOTH",
"990 91.22 LINE"
);
},
{
closed = 1;
nodes = (
"505.86 110.66 LINE",
"860.23 110.66 LINE",
"860.23 232.01 LINE",
"505.86 232.01 LINE"
);
}
);
width = 1000;
}
);
},
{
export = 0;
glyphname = _part.3U01;
lastChange = "2024-04-30 01:46:24 +0000";
layers = (
{
layerId = "BC79775B-A37D-4048-B0B8-E652625BF997";
paths = (
{
closed = 1;
nodes = (
"42.41 596.32 LINE",
"60.82 465.7 LINE",
"498.03 486.79 LINE",
"498.03 600.7 LINE"
);
},
{
closed = 1;
nodes = (
"350.38 633.4 LINE",
"406.18 572.13 OFFCURVE",
"457.69 509.62 OFFCURVE",
"504.18 445.66 CURVE",
"627.7 518.44 LINE",
"571.86 580.29 OFFCURVE",
"519.11 631.91 OFFCURVE",
"464.04 678.76 CURVE"
);
},
{
closed = 1;
nodes = (
"258.79 773.22 LINE",
"199.11 708.16 OFFCURVE",
"129.61 643.91 OFFCURVE",
"54.03 581.52 CURVE",
"148.68 505.57 LINE",
"245.78 570.02 OFFCURVE",
"340.71 641.48 OFFCURVE",
"433.9 718.47 CURVE"
);
}
);
width = 1000;
}
);
},
{
export = 0;
glyphname = _part.3U02;
lastChange = "2024-04-30 01:46:24 +0000";
layers = (
{
layerId = "BC79775B-A37D-4048-B0B8-E652625BF997";
paths = (
{
closed = 1;
nodes = (
"446.12 641.79 LINE",
"441.15 609.52 LINE SMOOTH",
"439.51 599.23 OFFCURVE",
"435.06 595.18 OFFCURVE",
"422.54 595.18 CURVE SMOOTH",
"248.24 595.18 LINE",
"248.24 760 LINE",
"52 760 LINE",
"52 541.81 LINE SMOOTH",
"52 489.41 OFFCURVE",
"71.24 472.66 OFFCURVE",
"120.17 472.66 CURVE SMOOTH",
"531.44 472.66 LINE SMOOTH",
"577.9 472.66 OFFCURVE",
"594.95 490.73 OFFCURVE",
"601.02 531.48 CURVE SMOOTH",
"614.04 621.02 LINE"
);
},
{
closed = 1;
nodes = (
"566.62 765.66 LINE",
"466.57 740.61 OFFCURVE",
"344.37 728.85 OFFCURVE",
"227.61 727.06 CURVE",
"238.35 621.85 LINE",
"368.6 623.39 OFFCURVE",
"502.33 636.99 OFFCURVE",
"627.71 661.76 CURVE"
);
}
);
width = 1000;
}
);
},
{
export = 0;
glyphname = _part.3U03;
lastChange = "2024-04-30 01:46:24 +0000";
layers = (
{
layerId = "BC79775B-A37D-4048-B0B8-E652625BF997";
paths = (
{
closed = 1;
nodes = (
"137.25 772 LINE",
"108.76 728.12 OFFCURVE",
"67.46 671.25 OFFCURVE",
"28.2 618.66 CURVE",
"27.9 618.66 LINE",
"27.95 618.59 OFFCURVE",
"28 618.53 OFFCURVE",
"28.05 618.46 CURVE SMOOTH",
"28 618.39 OFFCURVE",
"27.95 618.33 OFFCURVE",
"27.9 618.26 CURVE",
"28.19 618.26 LINE",
"67.89 564.39 OFFCURVE",
"108.74 507.6 OFFCURVE",
"138.89 462.66 CURVE",
"288.66 485.84 LINE",
"255.77 532.76 OFFCURVE",
"223.16 577.22 OFFCURVE",
"190.91 618.46 CURVE",
"223.16 659.43 OFFCURVE",
"255.77 703.92 OFFCURVE",
"288.66 751.08 CURVE"
);
},
{
closed = 1;
nodes = (
"317.19 772 LINE",
"288.7 728.12 OFFCURVE",
"247.4 671.25 OFFCURVE",
"208.14 618.66 CURVE",
"207.84 618.66 LINE",
"207.89 618.59 OFFCURVE",
"207.94 618.53 OFFCURVE",
"207.99 618.46 CURVE SMOOTH",
"207.94 618.39 OFFCURVE",
"207.89 618.33 OFFCURVE",
"207.84 618.26 CURVE",
"208.13 618.26 LINE",
"247.83 564.39 OFFCURVE",
"288.68 507.6 OFFCURVE",
"318.84 462.66 CURVE",
"468.61 485.84 LINE",
"435.72 532.76 OFFCURVE",
"403.11 577.22 OFFCURVE",
"370.86 618.46 CURVE",
"403.11 659.43 OFFCURVE",
"435.72 703.92 OFFCURVE",
"468.61 751.08 CURVE"
);
},
{
closed = 1;
nodes = (
"497.14 772 LINE",
"468.65 728.12 OFFCURVE",
"427.35 671.25 OFFCURVE",
"388.09 618.66 CURVE",
"387.79 618.66 LINE",
"387.84 618.59 OFFCURVE",
"387.89 618.53 OFFCURVE",
"387.94 618.46 CURVE SMOOTH",
"387.89 618.39 OFFCURVE",
"387.84 618.33 OFFCURVE",
"387.79 618.26 CURVE",
"388.08 618.26 LINE",
"427.78 564.39 OFFCURVE",
"468.63 507.6 OFFCURVE",
"498.78 462.66 CURVE",
"648.55 485.84 LINE",
"615.66 532.76 OFFCURVE",
"583.05 577.22 OFFCURVE",
"550.8 618.46 CURVE",
"583.05 659.43 OFFCURVE",
"615.66 703.92 OFFCURVE",
"648.55 751.08 CURVE"
);
}
);
width = 1000;
}
);
},
{
export = 0;
glyphname = _part.3U04;
lastChange = "2024-04-30 01:46:24 +0000";
layers = (
{
layerId = "BC79775B-A37D-4048-B0B8-E652625BF997";
paths = (
{
closed = 1;
nodes = (
"50 472.66 LINE",
"197.48 472.66 LINE",
"197.48 714.35 LINE",
"50 714.35 LINE"
);
},
{
closed = 1;
nodes = (
"466.22 472.66 LINE",
"613.7 472.66 LINE",
"613.7 712.15 LINE",
"466.22 712.15 LINE"
);
},
{
closed = 1;
nodes = (
"254.8 503.82 LINE",
"408.89 503.82 LINE",
"408.89 760 LINE",
"254.8 760 LINE"
);
},
{
closed = 1;
nodes = (
"114.89 472.66 LINE",
"524.23 472.66 LINE",
"524.23 600.77 LINE",
"114.89 600.77 LINE"
);
}
);
width = 1000;
}
);
},
{
export = 0;
glyphname = _part.3U05;
lastChange = "2024-04-30 01:46:24 +0000";
layers = (
{
layerId = "BC79775B-A37D-4048-B0B8-E652625BF997";
paths = (
{
closed = 1;
nodes = (
"262.64 770 LINE",
"186.68 707.66 OFFCURVE",
"107.86 660.91 OFFCURVE",
"13.73 622.28 CURVE",
"71.37 467.61 LINE",
"170.88 516.28 OFFCURVE",
"247.71 563.41 OFFCURVE",
"332.48 632.72 CURVE SMOOTH",
"332.48 632.73 LINE",
"332.48 632.72 LINE SMOOTH",
"418.83 562.16 OFFCURVE",
"494.08 516.28 OFFCURVE",
"593.59 467.61 CURVE",
"651.23 622.28 LINE",
"557.66 660.91 OFFCURVE",
"477.56 707.16 OFFCURVE",
"402.32 770 CURVE"
);
},
{
closed = 1;
nodes = (
"166.88 472.66 LINE",
"498.08 472.66 LINE",
"498.08 580.98 LINE",
"166.88 580.98 LINE"
);
}
);
width = 1000;
}
);
},
{
export = 0;
glyphname = _part.3U06;
lastChange = "2024-04-30 01:46:24 +0000";
layers = (
{
layerId = "BC79775B-A37D-4048-B0B8-E652625BF997";
paths = (
{
closed = 1;
nodes = (
"28.41 260.66 LINE",
"144.88 260.66 LINE",
"144.88 372.66 LINE",
"203.23 372.66 LINE",
"203.23 260.66 LINE",
"311.7 260.66 LINE",
"311.7 452.66 LINE",
"28.41 452.66 LINE"
);
},
{
closed = 1;
nodes = (
"627.23 452.66 LINE",
"343.94 452.66 LINE",
"343.94 260.66 LINE",
"452.41 260.66 LINE",
"452.41 372.66 LINE",
"514.76 372.66 LINE",
"514.76 260.66 LINE",
"627.23 260.66 LINE"
);
},
{
closed = 1;
nodes = (
"67.92 260.66 LINE",
"281.23 260.66 LINE",
"281.23 344.66 LINE",
"67.92 344.66 LINE"
);
},
{
closed = 1;
nodes = (
"378.61 260.66 LINE",
"591.92 260.66 LINE",
"591.92 346.66 LINE",
"378.61 346.66 LINE"
);
}
);
width = 1000;
}
);
},
{
export = 0;
glyphname = _part.3U07;
lastChange = "2024-04-30 01:46:24 +0000";
layers = (
{
layerId = "BC79775B-A37D-4048-B0B8-E652625BF997";
paths = (
{
closed = 1;
nodes = (
"236.67 275.66 LINE",
"422.16 275.66 LINE",
"422.16 474.66 LINE",
"236.67 474.66 LINE"
);
},
{
closed = 1;
nodes = (
"31.13 261.7 LINE",
"627.7 261.7 LINE",
"627.7 384.84 LINE",
"31.13 384.84 LINE"
);
},
{
closed = 1;
nodes = (
"248.27 368.66 LINE",
"226.39 405.75 OFFCURVE",
"203.56 441.22 OFFCURVE",
"179.57 474.66 CURVE",
"49.57 451.66 LINE",
"76.13 413.87 OFFCURVE",
"99.68 377.73 OFFCURVE",
"118.24 344.33 CURVE"
);
},
{
closed = 1;
nodes = (
"540.61 344.33 LINE",
"565.96 378.75 OFFCURVE",
"588.85 414.53 OFFCURVE",
"609.28 451.66 CURVE",
"479.28 474.66 LINE",
"459.15 439.62 OFFCURVE",
"436.04 404.26 OFFCURVE",
"410.58 368.66 CURVE"
);
}
);
width = 1000;
}
);
},
{
export = 0;
glyphname = _part.3U08;
lastChange = "2024-04-30 01:46:24 +0000";
layers = (
{
layerId = "BC79775B-A37D-4048-B0B8-E652625BF997";
paths = (
{
closed = 1;
nodes = (
"473.65 468.66 LINE",
"341.84 426.85 OFFCURVE",
"186.48 381.13 OFFCURVE",
"11.9 338.74 CURVE",
"122.4 231.72 LINE",
"296.57 284 OFFCURVE",
"471.24 346 OFFCURVE",
"630.48 414.55 CURVE"
);
},
{
closed = 1;
nodes = (
"35.25 414.55 LINE",
"207.81 355.47 OFFCURVE",
"375.92 292.58 OFFCURVE",
"531.62 229.67 CURVE",
"648.58 338.75 LINE",
"493.27 388.95 OFFCURVE",
"325.9 434.18 OFFCURVE",
"185.66 468.67 CURVE"
);
}
);
width = 1000;
}
);
},
{
export = 0;
glyphname = _part.3U09;
lastChange = "2024-04-30 01:46:24 +0000";
layers = (
{
layerId = "BC79775B-A37D-4048-B0B8-E652625BF997";
paths = (
{
closed = 1;
nodes = (
"29.99 287.99 LINE",
"627.69 287.99 LINE",
"627.69 425.32 LINE",
"29.99 425.32 LINE"
);
},
{
closed = 1;
nodes = (
"139.32 250.65 LINE",
"296.52 250.65 LINE",
"296.52 462.65 LINE",
"139.32 462.65 LINE"
);
},
{
closed = 1;
nodes = (
"371.18 250.65 LINE",
"528.38 250.65 LINE",
"528.38 462.65 LINE",
"371.18 462.65 LINE"
);
}
);
width = 1000;
}
);
},
{
export = 0;
glyphname = _part.3U10;
lastChange = "2024-04-30 01:46:24 +0000";
layers = (
{
layerId = "BC79775B-A37D-4048-B0B8-E652625BF997";
paths = (
{
closed = 1;
nodes = (
"39.23 452.66 LINE",
"39.23 260.66 LINE",
"627.69 260.66 LINE",
"627.69 452.66 LINE"
);
},
{
closed = 1;
nodes = (
"467.59 341.1 LINE",
"199.33 341.1 LINE",
"199.33 378.23 LINE",
"467.59 378.23 LINE"
);
},
{
closed = 1;
nodes = (
"266.68 289.91 LINE",
"400.25 289.91 LINE",
"400.25 412.58 LINE",
"266.68 412.58 LINE"
);
}
);
width = 1000;
}
);
},
{
export = 0;
glyphname = _part.3U11;
lastChange = "2024-04-30 01:46:24 +0000";
layers = (
{
layerId = "BC79775B-A37D-4048-B0B8-E652625BF997";
paths = (
{
closed = 1;
nodes = (
"251.49 274.66 LINE",
"178.48 246.74 OFFCURVE",
"94.57 220.33 OFFCURVE",
"14.41 200.04 CURVE",
"45.86 43.69 LINE",
"149.56 84 OFFCURVE",
"247.56 125.33 OFFCURVE",
"333.8 171.84 CURVE",
"422.22 133.66 OFFCURVE",
"505.27 93.12 OFFCURVE",
"582.86 50.13 CURVE",
"630.22 188.78 LINE",
"561.47 219.04 OFFCURVE",
"482.55 247.79 OFFCURVE",
"403.89 274.66 CURVE"
);
},
{
closed = 1;
nodes = (
"621.22 -136 LINE",
"627.22 3.76 LINE",
"40.4 -16.24 LINE",
"50.4 -160 LINE"
);
},
{
closed = 1;
nodes = (
"255.11 -44.34 LINE",
"404.73 -44.34 LINE",
"404.73 195.47 LINE",
"255.11 195.47 LINE"
);
},
{
closed = 1;
nodes = (
"99.04 77.42 LINE",
"115.06 37.29 OFFCURVE",
"128.76 -1.15 OFFCURVE",
"139.04 -37.1 CURVE",
"252.63 -37.1 LINE",
"243.18 7.56 OFFCURVE",
"231.76 52.23 OFFCURVE",
"218.37 96.89 CURVE"
);
},
{
closed = 1;
nodes = (
"437.63 100.99 LINE",
"428.69 56.82 OFFCURVE",
"417.16 12.14 OFFCURVE",
"403.37 -33 CURVE",
"516.96 -33 LINE",
"531.26 2.72 OFFCURVE",
"544.55 41 OFFCURVE",
"556.96 81.52 CURVE"
);
}
);
width = 1000;
}
);
},
{
export = 0;
glyphname = _part.3U12;
lastChange = "2024-04-30 01:46:24 +0000";
layers = (
{
layerId = "BC79775B-A37D-4048-B0B8-E652625BF997";
paths = (
{
closed = 1;
nodes = (
"440.21 240.66 LINE",
"440.21 -52.62 LINE",
"333.79 -52.62 LINE",
"358.6 -160 LINE",
"506.09 -160 LINE SMOOTH",
"573.74 -160 OFFCURVE",
"607.7 -139.34 OFFCURVE",
"607.7 -61.31 CURVE SMOOTH",
"607.7 240.66 LINE"
);
},
{
closed = 1;
nodes = (
"54 -160 LINE",
"219.49 -160 LINE",
"219.49 240.66 LINE",
"54 240.66 LINE"
);
},
{
closed = 1;
nodes = (
"77.48 125.52 LINE",
"581.34 125.52 LINE",
"581.34 240.66 LINE",
"77.48 240.66 LINE"
);
},
{
closed = 1;
nodes = (
"132.59 -32.62 LINE",
"526.23 -32.62 LINE",
"526.23 74.82 LINE",
"132.59 74.82 LINE"
);
},
{
closed = 1;
nodes = (
"266.83 -12.9 LINE",
"393.86 -12.9 LINE",
"393.86 193.09 LINE",
"266.83 193.09 LINE"
);
}
);
width = 1000;
}
);
},
{
export = 0;
glyphname = _part.3U13;
lastChange = "2024-04-30 01:46:24 +0000";
layers = (
{
layerId = "BC79775B-A37D-4048-B0B8-E652625BF997";
paths = (
{
closed = 1;
nodes = (
"116.81 254.66 LINE",
"93.33 199.44 OFFCURVE",
"63.49 145.45 OFFCURVE",
"27.9 92.57 CURVE",
"149.19 5.3 LINE",
"182.19 51.52 OFFCURVE",
"212.42 102.67 OFFCURVE",
"237.76 154.74 CURVE SMOOTH",
"239.68 158.68 OFFCURVE",
"255.57 162.63 OFFCURVE",
"257.43 166.59 CURVE SMOOTH",
"271.29 196 OFFCURVE",
"283.54 225.59 OFFCURVE",
"293.82 254.67 CURVE"
);
},
{
closed = 1;
nodes = (
"167.02 111.92 LINE",
"599.39 111.92 LINE",
"599.39 230.67 LINE",
"167.02 230.67 LINE"
);
},
{
closed = 1;
nodes = (
"456.23 147.67 LINE",
"379.23 35.67 OFFCURVE",
"223.23 -15.33 OFFCURVE",
"27.9 -46.33 CURVE",
"120.23 -178.33 LINE",
"358.46 -120.66 OFFCURVE",
"536.64 -29.35 OFFCURVE",
"599.39 111.92 CURVE"
);
},
{
closed = 1;
nodes = (
"180.73 15.67 LINE",
"310.55 -48.62 OFFCURVE",
"436.08 -113.27 OFFCURVE",
"556.56 -178.33 CURVE",
"637.23 -41 LINE",
"509.79 16.98 OFFCURVE",
"379.54 67.6 OFFCURVE",
"244.73 118.17 CURVE"
);
}
);
width = 1000;
}
);
},
{
export = 0;
glyphname = _part.3U14;
lastChange = "2024-04-30 01:46:24 +0000";
layers = (
{
layerId = "BC79775B-A37D-4048-B0B8-E652625BF997";
paths = (
{
closed = 1;
nodes = (
"456.19 240.66 LINE",
"456.19 -36.62 LINE",
"415.82 -36.62 LINE",
"435.74 -160 LINE",
"510.95 -160 LINE SMOOTH",
"572.57 -160 OFFCURVE",
"611.68 -124.61 OFFCURVE",
"611.68 -55.31 CURVE SMOOTH",
"611.68 240.66 LINE"
);
},
{
closed = 1;
nodes = (
"51.98 -160 LINE",
"205.48 -160 LINE",
"205.48 240.66 LINE",
"51.98 240.66 LINE"
);
},
{
closed = 1;
nodes = (
"229.28 -124.91 LINE",
"318.85 -124.91 LINE",
"318.85 212.02 LINE",
"229.28 212.02 LINE"
);
},
{
closed = 1;
nodes = (
"342.73 -124.91 LINE",
"432.3 -124.91 LINE",
"432.3 212.02 LINE",
"342.73 212.02 LINE"
);
},
{
closed = 1;
nodes = (
"76.73 107.32 LINE",
"583.91 107.32 LINE",
"583.91 240.65 LINE",
"76.73 240.65 LINE"
);
}
);
width = 1000;
}
);
},
{
export = 0;
glyphname = _part.3U15;
lastChange = "2024-04-30 01:46:24 +0000";
layers = (
{
layerId = "BC79775B-A37D-4048-B0B8-E652625BF997";
paths = (
{
closed = 1;
nodes = (
"56 240.66 LINE",
"56 -153.34 LINE",
"611.7 -153.34 LINE",
"611.7 240.66 LINE"
);
},
{
closed = 1;
nodes = (
"461.87 144.66 LINE",
"461.87 124.58 LINE",
"211.92 124.58 LINE",
"211.92 144.66 LINE"
);
},
{
closed = 1;
nodes = (
"461.87 59.09 LINE",
"461.87 36.96 LINE",
"211.92 36.96 LINE",
"211.92 59.09 LINE"
);
},
{
closed = 1;
nodes = (
"211.92 -48.61 LINE",
"211.92 -28.53 LINE",
"461.87 -28.53 LINE",
"461.87 -48.61 LINE"
);
}
);
width = 1000;
}
);
},
{
export = 0;
glyphname = _part.3U16;
lastChange = "2024-04-30 01:46:24 +0000";
layers = (
{
layerId = "BC79775B-A37D-4048-B0B8-E652625BF997";
paths = (
{
closed = 1;
nodes = (
"812.32 760 LINE",
"812.32 17.38 LINE",
"697.32 17.38 LINE",
"717.32 -160 LINE",
"868.11 -160 LINE SMOOTH",
"924.32 -160 OFFCURVE",
"960 -124.61 OFFCURVE",
"960 -55.31 CURVE SMOOTH",
"960 760 LINE"
);
},
{
closed = 1;
nodes = (
"643.7 72.23 LINE",
"777.9 72.23 LINE",
"777.9 725.66 LINE",
"643.7 725.66 LINE"
);
}
);
width = 1000;
}
);
},
{
export = 0;
glyphname = _part.3U17;
lastChange = "2024-04-30 01:46:24 +0000";
layers = (
{
layerId = "BC79775B-A37D-4048-B0B8-E652625BF997";
paths = (
{
closed = 1;
nodes = (
"800.32 760 LINE",
"800.32 17.38 LINE",
"697.32 17.38 LINE",
"717.32 -160 LINE",
"858.11 -160 LINE SMOOTH",
"914.32 -160 OFFCURVE",
"950 -124.61 OFFCURVE",
"950 -55.31 CURVE SMOOTH",
"950 760 LINE"
);
},
{
closed = 1;
nodes = (
"627.7 472.32 LINE",
"990 472.32 LINE",
"990 633.66 LINE",
"627.7 633.66 LINE"
);
},
{
closed = 1;
nodes = (
"726.62 504.33 LINE",
"693.07 392.74 OFFCURVE",
"646.6 279.57 OFFCURVE",
"590.24 165.2 CURVE",
"672.07 -25 LINE",
"744.37 124.31 OFFCURVE",
"800.64 288.7 OFFCURVE",
"828.91 435.54 CURVE",
"828.91 504.33 LINE"
);
}
);
width = 1000;
}
);
},
{
export = 0;
glyphname = _part.3U18;
lastChange = "2024-04-30 01:46:24 +0000";
layers = (
{
layerId = "BC79775B-A37D-4048-B0B8-E652625BF997";
paths = (
{
closed = 1;
nodes = (
"679.9 777.66 LINE",
"667.23 665.69 OFFCURVE",
"645.9 560.13 OFFCURVE",
"610.33 452.99 CURVE",
"657.04 212.03 LINE",
"761.9 403.99 OFFCURVE",
"818.12 584.78 OFFCURVE",
"834.56 772.44 CURVE"
);
},
{
closed = 1;
nodes = (
"742.56 530.33 LINE",
"979.99 530.33 LINE",
"979.99 681.66 LINE",
"742.56 681.66 LINE"
);
},
{
closed = 1;
nodes = (
"824.35 569.66 LINE",
"805.23 336 OFFCURVE",
"737.9 166.99 OFFCURVE",
"599.4 -14.7 CURVE",
"705.64 -178.34 LINE",
"868.54 40.09 OFFCURVE",
"960.06 287 OFFCURVE",
"961.24 569.66 CURVE"
);
},
{
closed = 1;
nodes = (
"655.24 410 LINE",
"695.74 208.16 OFFCURVE",
"770.24 16.66 OFFCURVE",
"895.24 -178.34 CURVE",
"990 -6.34 LINE",
"877.24 154.99 OFFCURVE",
"789.9 340.99 OFFCURVE",
"742.57 563.66 CURVE"
);
}
);
width = 1000;
}
);
},
{
export = 0;
glyphname = _part.3U19;
lastChange = "2024-04-30 01:46:24 +0000";
layers = (
{
layerId = "BC79775B-A37D-4048-B0B8-E652625BF997";
paths = (
{
closed = 1;
nodes = (
"641.7 -160 LINE",
"791.79 -160 LINE",
"791.79 740 LINE",
"641.7 740 LINE"
);
},
{
closed = 1;
nodes = (
"955.24 588.81 LINE",
"955.24 739.99 LINE",
"698.24 739.99 LINE",
"740.8 589.83 LINE",
"822.24 589.83 LINE",
"790.24 341.98 LINE",
"818.57 237.06 OFFCURVE",
"828.99 132.84 OFFCURVE",
"818.24 109.74 CURVE SMOOTH",
"807.03 85.66 OFFCURVE",
"766.91 81.53 OFFCURVE",
"766.91 81.53 CURVE",
"806.24 -86.35 LINE",
"876.91 -86.35 OFFCURVE",
"968.24 -71.54 OFFCURVE",
"968.24 91.75 CURVE SMOOTH",
"968.24 211.66 OFFCURVE",
"922.24 341.98 OFFCURVE",
"922.24 341.98 CURVE"
);
}
);
width = 1000;
}
);
},
{
export = 0;
glyphname = _part.3U20;
lastChange = "2024-04-30 01:46:24 +0000";
layers = (
{
layerId = "BC79775B-A37D-4048-B0B8-E652625BF997";
paths = (
{
closed = 1;
nodes = (
"798.32 473.66 LINE",
"798.32 17.38 LINE",
"687.32 17.38 LINE",
"707.32 -160 LINE",
"858.11 -160 LINE SMOOTH",
"914.32 -160 OFFCURVE",
"950 -124.61 OFFCURVE",
"950 -55.31 CURVE SMOOTH",
"950 473.66 LINE"
);
},
{
closed = 1;
nodes = (
"627.7 389.5 LINE",
"980 389.5 LINE",
"980 533.5 LINE",
"627.7 533.5 LINE"
);
},
{
closed = 1;
nodes = (
"643.7 599.5 LINE",
"958 599.5 LINE",
"958 740 LINE",
"643.7 740 LINE"
);
},
{
closed = 1;
nodes = (
"738.55 364.04 LINE",
"613.89 317.24 LINE",
"701.93 104.66 LINE",
"828.08 160.08 LINE"
);
}
);
width = 1000;
}
);
},
{
export = 0;
glyphname = _part.4U01;
lastChange = "2024-04-30 01:46:24 +0000";
layers = (
{
layerId = "BC79775B-A37D-4048-B0B8-E652625BF997";
paths = (
{
closed = 1;
nodes = (
"187.81 777.54 LINE",
"136.42 718.85 OFFCURVE",
"81.17 662.19 OFFCURVE",
"22.42 607.37 CURVE",
"90.6 445.54 LINE",
"165.97 519.8 OFFCURVE",
"236.54 596.02 OFFCURVE",
"301.83 674.4 CURVE"
);
},
{
closed = 1;
nodes = (
"218.28 553.11 LINE",
"153.3 474.48 OFFCURVE",
"88.03 402.02 OFFCURVE",
"22.42 336.99 CURVE",
"66.03 138.88 LINE",
"150.46 223.23 OFFCURVE",
"229.15 312.9 OFFCURVE",
"301.83 408.13 CURVE"
);
},
{
closed = 1;
nodes = (
"102.57 -170 LINE",
"269.24 -170 LINE",
"269.24 299.79 LINE",
"102.57 299.79 LINE"
);
}
);
width = 1000;
}
);
},
{
export = 0;
glyphname = _part.4U02;
lastChange = "2024-04-30 01:46:24 +0000";
layers = (
{
layerId = "BC79775B-A37D-4048-B0B8-E652625BF997";
paths = (
{
closed = 1;
nodes = (
"135.59 226.12 LINE",
"133.71 23.38 LINE",
"36.71 23.38 LINE",
"55.11 -160 LINE",
"187.9 -160 LINE SMOOTH",
"244.11 -160 OFFCURVE",
"280.11 -124.61 OFFCURVE",
"280.74 -55.31 CURVE SMOOTH",
"283.28 226.12 LINE"
);
},
{
closed = 1;
nodes = (
"34.01 590.72 LINE",
"285.84 590.72 LINE",
"285.84 750 LINE",
"34.01 750 LINE"
);
},
{
closed = 1;
nodes = (
"52.01 364.23 LINE",
"285.84 364.23 LINE",
"285.84 523.51 LINE",
"52.01 523.51 LINE"
);
},
{
closed = 1;
nodes = (
"282.55 134.59 LINE",
"283.88 291.87 LINE",
"54.05 291.87 LINE",
"52.72 134.59 LINE"
);
},
{
closed = 1;
nodes = (
"136.16 471.66 LINE",
"285.84 471.66 LINE",
"285.84 640.8 LINE",
"136.16 640.8 LINE"
);
},
{
closed = 1;
nodes = (
"199.69 134.59 LINE",
"209.69 523.51 LINE",
"52.01 523.51 LINE",
"42.01 134.59 LINE"
);
}
);
width = 1000;
}
);
},
{
export = 0;
glyphname = _part.4U03;
lastChange = "2024-04-30 01:46:24 +0000";
layers = (
{
layerId = "BC79775B-A37D-4048-B0B8-E652625BF997";
paths = (
{
closed = 1;
nodes = (
"31.24 643.08 LINE",
"100.29 607.33 OFFCURVE",
"163.66 572.38 OFFCURVE",
"225.24 535.19 CURVE",
"317.83 668.89 LINE",
"255.82 705.63 OFFCURVE",
"195.29 738.3 OFFCURVE",
"129.24 772 CURVE"
);
},
{
closed = 1;
nodes = (
"13.24 452.15 LINE",
"82.8 416.43 OFFCURVE",
"149.22 379.37 OFFCURVE",
"211.24 340.44 CURVE",
"301.83 474.14 LINE",
"239.42 511.7 OFFCURVE",
"175.21 547.33 OFFCURVE",
"109.24 581.08 CURVE"
);
},
{
closed = 1;
nodes = (
"13.24 249.27 LINE",
"82.8 213.55 OFFCURVE",
"149.22 176.49 OFFCURVE",
"211.24 137.56 CURVE",
"301.83 271.26 LINE",
"239.42 308.82 OFFCURVE",
"175.21 344.45 OFFCURVE",
"109.24 378.2 CURVE"
);
},
{
closed = 1;
nodes = (
"129.91 152.23 LINE",
"101.87 64.1 OFFCURVE",
"70.99 -25.65 OFFCURVE",
"33.24 -118.56 CURVE",
"215.87 -169.1 LINE",
"251.28 -78.31 OFFCURVE",
"280.53 11.98 OFFCURVE",
"307.83 103.64 CURVE"
);
}
);
width = 1000;
}
);
},
{
export = 0;
glyphname = _part.4U04;
lastChange = "2024-04-30 01:46:24 +0000";
layers = (
{
layerId = "BC79775B-A37D-4048-B0B8-E652625BF997";
paths = (
{
closed = 1;
nodes = (
"30 521.36 LINE",
"247.63 521.36 LINE",
"247.63 674.67 LINE",
"30.01 674.67 LINE"
);
},
{
closed = 1;
nodes = (
"30.01 334.69 LINE",
"247.64 334.69 LINE",
"247.64 488 LINE",
"30.02 488 LINE"
);
},
{
closed = 1;
nodes = (
"30.02 148.02 LINE",
"247.65 148.02 LINE",
"247.65 301.33 LINE",
"30.02 301.33 LINE"
);
},
{
closed = 1;
nodes = (
"30.02 -38.65 LINE",
"247.65 -38.65 LINE",
"247.65 114.66 LINE",
"30.02 114.66 LINE"
);
},
{
closed = 1;
nodes = (
"122.44 -159.98 LINE",
"285.85 -159.98 LINE",
"285.85 766.02 LINE",
"122.44 766.02 LINE"
);
}
);
width = 1000;
}
);
},
{
export = 0;
glyphname = _part.4U05;
lastChange = "2024-04-30 01:46:24 +0000";
layers = (
{
layerId = "BC79775B-A37D-4048-B0B8-E652625BF997";
paths = (
{
closed = 1;
nodes = (
"92.9 760 LINE",
"92.9 17.38 LINE",
"27.9 17.38 LINE",
"47.9 -160 LINE",
"156.69 -160 LINE SMOOTH",
"212.9 -160 OFFCURVE",
"248.58 -124.61 OFFCURVE",
"248.58 -55.31 CURVE SMOOTH",
"248.58 760 LINE"
);
},
{
closed = 1;
nodes = (
"30 440.21 LINE",
"301.83 440.21 LINE",
"301.83 603.21 LINE",
"30 603.21 LINE"
);
},
{
closed = 1;
nodes = (
"305.83 180.22 LINE",
"297.83 359.21 LINE",
"18 307.22 LINE",
"34 136.22 LINE"
);
}
);
width = 1000;
}
);
},
{
export = 0;
glyphname = _part.4U06;
lastChange = "2024-04-30 01:46:24 +0000";
layers = (
{
layerId = "BC79775B-A37D-4048-B0B8-E652625BF997";
paths = (
{
closed = 1;
nodes = (
"301.83 471.33 LINE",
"382.16 471.33 LINE",
"382.16 726.16 LINE",
"301.83 726.16 LINE"
);
},
{
closed = 1;
nodes = (
"536.83 471.33 LINE",
"617.16 471.33 LINE",
"617.16 724.16 LINE",
"536.83 724.16 LINE"
);
},
{
closed = 1;
nodes = (
"399.92 495.66 LINE",
"519.07 495.66 LINE",
"519.07 761.66 LINE",
"399.92 761.66 LINE"
);
},
{
closed = 1;
nodes = (
"338.13 471.33 LINE",
"567.11 471.33 LINE",
"567.11 605.99 LINE",
"338.13 605.99 LINE"
);
},
{
closed = 1;
nodes = (
"291.83 296.88 LINE",
"627.16 296.88 LINE",
"627.16 446.88 LINE",
"291.83 446.88 LINE"
);
},
{
closed = 1;
nodes = (
"313.75 132.43 LINE",
"605.24 132.43 LINE",
"605.24 274.43 LINE",
"313.75 274.43 LINE"
);
},
{
closed = 1;
nodes = (
"313.75 244.43 LINE",
"313.75 128.21 LINE SMOOTH",
"313.75 51.21 OFFCURVE",
"303.9 3.88 OFFCURVE",
"277.24 -56.79 CURVE",
"397.95 -170 LINE",
"429.9 -107.45 OFFCURVE",
"446.24 -23.79 OFFCURVE",
"446.24 67.89 CURVE SMOOTH",
"446.24 173.21 LINE"
);
},
{
closed = 1;
nodes = (
"472.75 -30.28 LINE",
"605.24 -30.28 LINE",
"605.24 213.43 LINE",
"472.75 213.43 LINE"
);
},
{
closed = 1;
nodes = (
"627.16 97.21 LINE",
"459.49 4.21 LINE",
"500 -145.79 LINE",
"655.24 -53.17 LINE"
);
}
);
width = 1000;
}
);
},
{
export = 0;
glyphname = _part.4U07;
lastChange = "2024-04-30 01:46:24 +0000";
layers = (
{
layerId = "BC79775B-A37D-4048-B0B8-E652625BF997";
paths = (
{
closed = 1;
nodes = (
"311.83 -142 LINE",
"433.24 -142 LINE",
"433.24 742 LINE",
"311.83 742 LINE"
);
},
{
closed = 1;
nodes = (
"485.75 -142 LINE",
"607.16 -142 LINE",
"607.16 742 LINE",
"485.75 742 LINE"
);
},
{
closed = 1;
nodes = (
"311.83 579.4 LINE",
"604 579.4 LINE",
"604 742 LINE",
"311.83 742 LINE"
);
},
{
closed = 1;
nodes = (
"357.29 353.22 LINE",
"562.24 353.22 LINE",
"562.24 482.68 LINE",
"357.29 482.68 LINE"
);
},
{
closed = 1;
nodes = (
"357.29 127.04 LINE",
"562.24 127.04 LINE",
"562.24 256.5 LINE",
"357.29 256.5 LINE"
);
},
{
closed = 1;
nodes = (
"311.83 -142 LINE",
"607.7 -142 LINE",
"607.7 30.32 LINE",
"311.83 30.32 LINE"
);
}
);
width = 1000;
}
);
},
{
export = 0;
glyphname = _part.4U08;
lastChange = "2024-04-30 01:46:24 +0000";
layers = (
{
layerId = "BC79775B-A37D-4048-B0B8-E652625BF997";
paths = (
{
closed = 1;
nodes = (
"301.83 612.97 LINE",
"617.16 612.97 LINE",
"617.16 760 LINE",
"301.83 760 LINE"
);
},
{
closed = 1;
nodes = (
"311.83 469.6 LINE",
"607.16 469.6 LINE",
"607.16 581.29 LINE",
"311.83 581.29 LINE"
);
},
{
closed = 1;
nodes = (
"293.83 290.89 LINE",
"625.16 290.89 LINE",
"625.16 437.92 LINE",
"293.83 437.92 LINE"
);
},
{
closed = 1;
nodes = (
"386.91 345.35 LINE",
"532.07 345.35 LINE",
"532.07 691.47 LINE",
"386.91 691.47 LINE"
);
},
{
closed = 1;
nodes = (
"303.83 109.01 LINE",
"615.16 109.01 LINE",
"615.16 260.89 LINE",
"303.83 260.89 LINE"
);
},
{
closed = 1;
nodes = (
"303.83 -145.99 LINE",
"615.16 -145.99 LINE",
"615.16 12.13 LINE",
"303.83 12.13 LINE"
);
},
{
closed = 1;
nodes = (
"303.83 -94.28 LINE",
"437.91 -94.28 LINE",
"437.91 228.78 LINE",
"303.83 228.78 LINE"
);
},
{
closed = 1;
nodes = (
"481.08 -94.28 LINE",
"615.16 -94.28 LINE",
"615.16 228.78 LINE",
"481.08 228.78 LINE"
);
}
);
width = 1000;
}
);
},
{
export = 0;
glyphname = _part.4U09;
lastChange = "2024-04-30 01:46:24 +0000";
layers = (
{
layerId = "BC79775B-A37D-4048-B0B8-E652625BF997";
paths = (
{
closed = 1;
nodes = (
"475.24 -160 LINE",
"475.24 415.21 LINE",
"453.24 440.21 LINE",
"453.24 760 LINE",
"313.83 760 LINE",
"313.83 -160 LINE"
);
},
{
closed = 1;
nodes = (
"489.75 385.21 LINE",
"607.16 385.21 LINE",
"607.16 760 LINE",
"489.75 760 LINE"
);
},
{
closed = 1;
nodes = (
"389.53 619.56 LINE",
"563.9 619.56 LINE",
"563.9 760 LINE",
"389.53 760 LINE"
);
},
{
closed = 1;
nodes = (
"389.53 385.21 LINE",
"563.9 385.21 LINE",
"563.9 525.65 LINE",
"389.53 525.65 LINE"
);
},
{
closed = 1;
nodes = (
"389.53 173.27 LINE",
"617.16 173.27 LINE",
"617.16 323.71 LINE",
"389.53 323.71 LINE"
);
},
{
closed = 1;
nodes = (
"389.53 -38.67 LINE",
"617.16 -38.67 LINE",
"617.16 111.77 LINE",
"389.53 111.77 LINE"
);
}
);
width = 1000;
}
);
},
{
export = 0;
glyphname = _part.4U10;
lastChange = "2024-04-30 01:46:24 +0000";
layers = (
{
layerId = "BC79775B-A37D-4048-B0B8-E652625BF997";
paths = (
{
closed = 1;
nodes = (
"311.83 -82.55 LINE",
"453.24 -82.55 LINE",
"453.24 712 LINE",
"311.83 712 LINE"
);
},
{
closed = 1;
nodes = (
"489.75 249.71 LINE",
"607.16 249.71 LINE",
"607.16 712 LINE",
"489.75 712 LINE"
);
},
{
closed = 1;
nodes = (
"282.57 -13.12 LINE",
"307.83 -180.45 LINE",
"549.91 -71.78 LINE",
"528.58 85.55 LINE"
);
},
{
closed = 1;
nodes = (
"459.5 203.2 LINE",
"479.03 94.41 OFFCURVE",
"494.88 -34.34 OFFCURVE",
"508.88 -173.11 CURVE",
"643.25 -117.22 LINE",
"623.4 7.27 OFFCURVE",
"602.15 119.77 OFFCURVE",
"579.21 235.5 CURVE"
);
},
{
closed = 1;
nodes = (
"375.55 600.67 LINE",
"549.92 600.67 LINE",
"549.92 712.01 LINE",
"375.55 712.01 LINE"
);
},
{
closed = 1;
nodes = (
"375.55 424.2 LINE",
"549.92 424.2 LINE",
"549.92 537.54 LINE",
"375.55 537.54 LINE"
);
},
{
closed = 1;
nodes = (
"375.55 249.73 LINE",
"549.92 249.73 LINE",
"549.92 363.07 LINE",
"375.55 363.07 LINE"
);
},
{
closed = 1;
nodes = (
"539.92 681.57 LINE",
"523.92 770.02 LINE",
"369.55 770.02 LINE",
"385.55 681.57 LINE"
);
}
);
width = 1000;
}
);
},
{
export = 0;
glyphname = _part.4U11;
lastChange = "2024-04-30 01:46:24 +0000";
layers = (
{
layerId = "BC79775B-A37D-4048-B0B8-E652625BF997";
paths = (
{
closed = 1;
nodes = (
"643.16 218.17 LINE",
"779.91 218.17 LINE",
"779.91 347.93 LINE",
"643.16 347.93 LINE"
);
},
{
closed = 1;
nodes = (
"643.16 68.22 LINE",
"779.91 68.22 LINE",
"779.91 197.98 LINE",
"643.16 197.98 LINE"
);
}
);
width = 1000;
}
);
},
{
export = 0;
glyphname = _part.4U12;
lastChange = "2024-04-30 01:46:24 +0000";
layers = (
{
layerId = "BC79775B-A37D-4048-B0B8-E652625BF997";
paths = (
{
closed = 1;
nodes = (
"625.16 40.12 LINE",
"780.32 40.12 LINE",
"780.32 348.12 LINE",
"625.16 348.12 LINE"
);
},
{
closed = 1;
nodes = (
"689.44 234.12 LINE",
"711.03 234.12 LINE",
"711.03 166.85 LINE",
"689.44 166.85 LINE"
);
}
);
width = 1000;
}
);
},
{
export = 0;
glyphname = _part.4U13;
lastChange = "2024-04-30 01:46:24 +0000";
layers = (
{
layerId = "BC79775B-A37D-4048-B0B8-E652625BF997";
paths = (
{
closed = 1;
nodes = (
"639.16 219.65 LINE",
"914.63 219.65 LINE",
"914.63 344.12 LINE",
"639.16 344.12 LINE"
);
},
{
closed = 1;
nodes = (
"639.16 49.55 LINE",
"914.63 49.55 LINE",
"914.63 174.02 LINE",
"639.16 174.02 LINE"
);
},
{
closed = 1;
nodes = (
"639.16 98.4 LINE",
"760.24 98.4 LINE",
"760.24 308.96 LINE",
"639.16 308.96 LINE"
);
}
);
width = 1000;
}
);
},
{
export = 0;
glyphname = _part.4U14;
lastChange = "2024-04-30 01:46:24 +0000";
layers = (
{
layerId = "BC79775B-A37D-4048-B0B8-E652625BF997";
paths = (
{
closed = 1;
nodes = (
"643.16 56.64 LINE",
"770.24 56.64 LINE",
"770.24 348.12 LINE",
"643.16 348.12 LINE"
);
},
{
closed = 1;
nodes = (
"697.32 133.05 LINE",
"869.19 133.05 LINE",
"869.19 277.72 LINE",
"697.32 277.72 LINE"
);
}
);
width = 1000;
}
);
},
{
export = 0;
glyphname = _part.4U15;
lastChange = "2024-04-30 01:46:24 +0000";
layers = (
{
layerId = "BC79775B-A37D-4048-B0B8-E652625BF997";
paths = (
{
closed = 1;
nodes = (
"649.48 348.12 LINE",
"649.48 174.29 LINE",
"614.46 174.29 LINE",
"635.22 45.65 LINE",
"723.58 45.65 LINE SMOOTH",
"766.49 45.65 OFFCURVE",
"780.58 69.72 OFFCURVE",
"780.58 113.38 CURVE SMOOTH",
"780.58 348.12 LINE"
);
}
);
width = 1000;
}
);
},
{
export = 0;
glyphname = _part.4U16;
lastChange = "2024-04-30 01:46:24 +0000";
layers = (
{
layerId = "BC79775B-A37D-4048-B0B8-E652625BF997";
paths = (
{
closed = 1;
nodes = (
"624.26 701.92 LINE",
"653.02 644.64 OFFCURVE",
"676.41 592.48 OFFCURVE",
"697.69 539.22 CURVE",
"817.24 586.95 LINE",
"795.26 640.9 OFFCURVE",
"770.01 692.91 OFFCURVE",
"741.37 742.89 CURVE"
);
},
{
closed = 1;
nodes = (
"800.32 760.01 LINE",
"800.32 17.39 LINE",
"679.32 17.39 LINE",
"699.32 -159.99 LINE",
"860.11 -159.99 LINE SMOOTH",
"916.32 -159.99 OFFCURVE",
"952 -124.6 OFFCURVE",
"952 -55.3 CURVE SMOOTH",
"952 760.01 LINE"
);
},
{
closed = 1;
nodes = (
"637.16 368.13 LINE",
"914.63 368.13 LINE",
"914.63 524.13 LINE",
"637.16 524.13 LINE"
);
}
);
width = 1000;
}
);
},
{
export = 0;
glyphname = _part.4U17;
lastChange = "2024-04-30 01:46:24 +0000";
layers = (
{
layerId = "BC79775B-A37D-4048-B0B8-E652625BF997";
paths = (
{
closed = 1;
nodes = (
"643.16 750 LINE",
"643.16 479.66 LINE",
"643.16 368.12 LINE",
"800.32 368.12 LINE",
"800.32 17.38 LINE",
"679.32 17.38 LINE",
"699.32 -160 LINE",
"860.11 -160 LINE SMOOTH",
"916.32 -160 OFFCURVE",
"952 -124.61 OFFCURVE",
"952 -55.31 CURVE SMOOTH",
"952 750 LINE"
);
},
{
closed = 1;
nodes = (
"800.32 644 LINE",
"800.32 607.1 LINE",
"760.84 607.1 LINE",
"760.84 644 LINE"
);
},
{
closed = 1;
nodes = (
"760.84 482.12 LINE",
"760.84 519.02 LINE",
"800.32 519.02 LINE",
"800.32 482.12 LINE"
);
}
);
width = 1000;
}
);
},
{
export = 0;
glyphname = _part.4U18;
lastChange = "2024-04-30 01:46:24 +0000";
layers = (
{
layerId = "BC79775B-A37D-4048-B0B8-E652625BF997";
paths = (
{
closed = 1;
nodes = (
"800.32 528.12 LINE",
"800.32 17.38 LINE",
"679.32 17.38 LINE",
"699.32 -160 LINE",
"860.11 -160 LINE SMOOTH",
"916.32 -160 OFFCURVE",
"952 -124.61 OFFCURVE",
"952 -55.31 CURVE SMOOTH",
"952 528.12 LINE"
);
},
{
closed = 1;
nodes = (
"637.16 368.12 LINE",
"914.63 368.12 LINE",
"914.63 528.12 LINE",
"637.16 528.12 LINE"
);
},
{
closed = 1;
nodes = (
"668.24 458.88 LINE",
"822.58 458.88 LINE",
"822.58 767.66 LINE",
"668.24 767.66 LINE"
);
},
{
closed = 1;
nodes = (
"740.8 580.21 LINE",
"974.01 580.21 LINE",
"974.01 722.21 LINE",
"740.8 722.21 LINE"
);
}
);
width = 1000;
}
);
},
{
export = 0;
glyphname = _part.4U19;
lastChange = "2024-04-30 01:46:24 +0000";
layers = (
{
layerId = "BC79775B-A37D-4048-B0B8-E652625BF997";
paths = (
{
closed = 1;
nodes = (
"647.16 512.12 LINE",
"938.24 512.12 LINE",
"938.24 752 LINE",
"647.16 752 LINE"
);
},
{
closed = 1;
nodes = (
"765.81 656.61 LINE",
"810.6 656.61 LINE",
"810.6 618.92 LINE",
"765.81 618.92 LINE"
);
},
{
closed = 1;
nodes = (
"801.09 490.12 LINE",
"801.09 17.38 LINE",
"680.09 17.38 LINE",
"700.09 -160 LINE",
"860.88 -160 LINE SMOOTH",
"917.09 -160 OFFCURVE",
"952.77 -124.61 OFFCURVE",
"952.77 -55.31 CURVE SMOOTH",
"952.77 490.12 LINE"
);
},
{
closed = 1;
nodes = (
"637.16 368.12 LINE",
"914.63 368.12 LINE",
"914.63 490.12 LINE",
"637.16 490.12 LINE"
);
}
);
width = 1000;
}
);
},
{
export = 0;
glyphname = _part.4U20;
lastChange = "2024-04-30 01:46:24 +0000";
layers = (
{
layerId = "BC79775B-A37D-4048-B0B8-E652625BF997";
paths = (
{
closed = 1;
nodes = (
"800.32 524.12 LINE",
"800.32 17.38 LINE",
"679.32 17.38 LINE",
"699.32 -160 LINE",
"860.11 -160 LINE SMOOTH",
"916.32 -160 OFFCURVE",
"952 -124.61 OFFCURVE",
"952 -55.31 CURVE SMOOTH",
"952 524.12 LINE"
);
},
{
closed = 1;
nodes = (
"637.16 368.12 LINE",
"914.63 368.12 LINE",
"914.63 524.12 LINE",
"637.16 524.12 LINE"
);
},
{
closed = 1;
nodes = (
"693.24 769.21 LINE",
"667.21 710.28 OFFCURVE",
"634.69 650.07 OFFCURVE",
"597.24 588.9 CURVE",
"729.57 544.55 LINE",
"768.99 608.97 OFFCURVE",
"810.73 691.64 OFFCURVE",
"840.24 759.35 CURVE"
);
},
{
closed = 1;
nodes = (
"729.57 724.17 LINE",
"729.57 618.22 LINE",
"803.9 618.22 LINE",
"752.57 509.55 LINE",
"897.24 509.55 LINE",
"949.91 624.67 LINE",
"949.91 724.17 LINE"
);
}
);
width = 1000;
}
);
},
{
export = 0;
glyphname = _part.5U01;
lastChange = "2024-04-30 01:46:24 +0000";
layers = (
{
layerId = "BC79775B-A37D-4048-B0B8-E652625BF997";
paths = (
{
closed = 1;
nodes = (
"38 574.92 LINE",
"962 574.92 LINE",
"962 714.91 LINE",
"38 714.91 LINE"
);
},
{
closed = 1;
nodes = (
"400.97 530.92 LINE",
"599.02 530.92 LINE",
"599.02 768.92 LINE",
"400.97 768.92 LINE"
);
}
);
width = 1000;
}
);
},
{
export = 0;
glyphname = _part.5U02;
lastChange = "2024-04-30 01:46:24 +0000";
layers = (
{
layerId = "BC79775B-A37D-4048-B0B8-E652625BF997";
paths = (
{
closed = 1;
nodes = (
"414.74 628.92 LINE",
"374.74 768.92 LINE",
"182.69 768.92 LINE",
"222.69 628.92 LINE"
);
},
{
closed = 1;
nodes = (
"776.03 628.92 LINE",
"816.03 768.92 LINE",
"623.98 768.92 LINE",
"583.98 628.92 LINE"
);
},
{
closed = 1;
nodes = (
"52.72 560.92 LINE",
"486.72 560.92 LINE",
"486.72 690.91 LINE",
"52.72 690.91 LINE"
);
},
{
closed = 1;
nodes = (
"512.01 560.92 LINE",
"946.01 560.92 LINE",
"946.01 690.91 LINE",
"512.01 690.91 LINE"
);
}
);
width = 1000;
}
);
},
{
export = 0;
glyphname = _part.5U03;
lastChange = "2024-04-30 01:46:24 +0000";
layers = (
{
layerId = "BC79775B-A37D-4048-B0B8-E652625BF997";
paths = (
{
closed = 1;
nodes = (
"38 594.92 LINE",
"962 594.92 LINE",
"962 724.91 LINE",
"38 724.91 LINE"
);
},
{
closed = 1;
nodes = (
"417.88 550.92 LINE",
"582.12 550.92 LINE",
"582.12 770 LINE",
"417.88 770 LINE"
);
},
{
closed = 1;
nodes = (
"656.12 550.92 LINE",
"820.36 550.92 LINE",
"820.36 770 LINE",
"656.12 770 LINE"
);
},
{
closed = 1;
nodes = (
"179.64 550.92 LINE",
"343.88 550.92 LINE",
"343.88 770 LINE",
"179.64 770 LINE"
);
}
);
width = 1000;
}
);
},
{
export = 0;
glyphname = _part.5U04;
lastChange = "2024-04-30 01:46:24 +0000";
layers = (
{
layerId = "BC79775B-A37D-4048-B0B8-E652625BF997";
paths = (
{
closed = 1;
nodes = (
"34 590.92 LINE",
"966 590.92 LINE",
"966 724.91 LINE",
"34 724.91 LINE"
);
},
{
closed = 1;
nodes = (
"598.12 550.92 LINE",
"774.36 550.92 LINE",
"774.36 770 LINE",
"598.12 770 LINE"
);
},
{
closed = 1;
nodes = (
"225.64 550.92 LINE",
"401.88 550.92 LINE",
"401.88 770 LINE",
"225.64 770 LINE"
);
}
);
width = 1000;
}
);
},
{
export = 0;
glyphname = _part.5U05;
lastChange = "2024-04-30 01:46:24 +0000";
layers = (
{
layerId = "BC79775B-A37D-4048-B0B8-E652625BF997";
paths = (
{
closed = 1;
nodes = (
"38 560.92 LINE",
"962 560.92 LINE",
"962 700.91 LINE",
"38 700.91 LINE"
);
},
{
closed = 1;
nodes = (
"611.03 625.43 LINE",
"591.03 768.92 LINE",
"376.98 768.92 LINE",
"396.98 625.43 LINE"
);
}
);
width = 1000;
}
);
},
{
export = 0;
glyphname = _part.5U06;
lastChange = "2024-04-30 01:46:24 +0000";
layers = (
{
layerId = "BC79775B-A37D-4048-B0B8-E652625BF997";
paths = (
{
closed = 1;
nodes = (
"60 188 LINE",
"235.24 188 LINE",
"235.24 518.92 LINE",
"60 518.92 LINE"
);
},
{
closed = 1;
nodes = (
"308.76 363.82 LINE",
"474 363.82 LINE",
"474 518.92 LINE",
"308.76 518.92 LINE"
);
},
{
closed = 1;
nodes = (
"320.76 493.33 LINE",
"340.76 558.92 LINE",
"159.52 558.92 LINE",
"139.52 493.33 LINE"
);
},
{
closed = 1;
nodes = (
"322.76 188 LINE",
"488 188 LINE",
"488 345.1 LINE",
"322.76 345.1 LINE"
);
},
{
closed = 1;
nodes = (
"137.62 451.74 LINE",
"405.38 451.74 LINE",
"405.38 518.93 LINE",
"137.62 518.93 LINE"
);
},
{
closed = 1;
nodes = (
"137.62 363.83 LINE",
"405.38 363.83 LINE",
"405.38 431.02 LINE",
"137.62 431.02 LINE"
);
},
{
closed = 1;
nodes = (
"137.62 277.92 LINE",
"405.38 277.92 LINE",
"405.38 345.11 LINE",
"137.62 345.11 LINE"
);
},
{
closed = 1;
nodes = (
"137.62 188.01 LINE",
"405.38 188.01 LINE",
"405.38 257.2 LINE",
"137.62 257.2 LINE"
);
}
);
width = 1000;
}
);
},
{
export = 0;
glyphname = _part.5U07;
lastChange = "2024-04-30 01:46:24 +0000";
layers = (
{
layerId = "BC79775B-A37D-4048-B0B8-E652625BF997";
paths = (
{
closed = 1;
nodes = (
"78.17 540.92 LINE",
"78.17 198 LINE",
"484.95 198 LINE",
"484.95 540.92 LINE"
);
},
{
closed = 1;
nodes = (
"341.4 442.25 LINE",
"341.4 417.68 LINE",
"227.71 417.68 LINE",
"227.71 442.25 LINE"
);
},
{
closed = 1;
nodes = (
"227.71 304.27 LINE",
"227.71 328.84 LINE",
"341.4 328.84 LINE",
"341.4 304.27 LINE"
);
}
);
width = 1000;
}
);
},
{
export = 0;
glyphname = _part.5U08;
lastChange = "2024-04-30 01:46:24 +0000";
layers = (
{
layerId = "BC79775B-A37D-4048-B0B8-E652625BF997";
paths = (
{
closed = 1;
nodes = (
"334.56 540.92 LINE",
"331.73 327.09 LINE",
"263.31 327.09 LINE",
"280.84 195.99 LINE",
"384.33 195.99 LINE SMOOTH",
"451.98 195.99 OFFCURVE",
"486.19 216.65 OFFCURVE",
"487.12 294.68 CURVE SMOOTH",
"490.05 540.91 LINE"
);
},
{
closed = 1;
nodes = (
"153.07 399.68 LINE SMOOTH",
"143.15 336 OFFCURVE",
"118.85 265.24 OFFCURVE",
"85.19 211.8 CURVE",
"241.48 187.99 LINE",
"270.23 252.26 OFFCURVE",
"289.68 319.76 OFFCURVE",
"300.81 391.18 CURVE SMOOTH",
"309.24 445.27 OFFCURVE",
"314.19 477.08 OFFCURVE",
"314.19 477.08 CURVE",
"165.13 477.08 LINE"
);
},
{
closed = 1;
nodes = (
"50 418.91 LINE",
"398.24 418.91 LINE",
"398.24 540.91 LINE",
"50 540.91 LINE"
);
},
{
closed = 1;
nodes = (
"66.24 409.25 LINE",
"53.87 355.75 OFFCURVE",
"34.18 304.5 OFFCURVE",
"8.74 254.75 CURVE",
"89.24 242.75 LINE",
"116.24 295.75 OFFCURVE",
"131.24 344.42 OFFCURVE",
"142.24 400.25 CURVE"
);
}
);
width = 1000;
}
);
},
{
export = 0;
glyphname = _part.5U09;
lastChange = "2024-04-30 01:46:24 +0000";
layers = (
{
layerId = "BC79775B-A37D-4048-B0B8-E652625BF997";
paths = (
{
closed = 1;
nodes = (
"321.63 540.92 LINE",
"321.63 289.9 LINE",
"260.9 289.9 LINE",
"283.84 197.99 LINE",
"407.86 197.99 LINE SMOOTH",
"472.91 197.99 OFFCURVE",
"490 224.42 OFFCURVE",
"490 288.46 CURVE SMOOTH",
"490 540.91 LINE"
);
},
{
closed = 1;
nodes = (
"50 197.99 LINE",
"216.36 197.99 LINE",
"216.36 540.91 LINE",
"50 540.91 LINE"
);
},
{
closed = 1;
nodes = (
"73.61 434.33 LINE",
"463.51 434.33 LINE",
"463.51 540.91 LINE",
"73.61 540.91 LINE"
);
},
{
closed = 1;
nodes = (
"129.01 312.39 LINE",
"408.11 312.39 LINE",
"408.11 411.84 LINE",
"129.01 411.84 LINE"
);
}
);
width = 1000;
}
);
},
{
export = 0;
glyphname = _part.5U10;
lastChange = "2024-04-30 01:46:24 +0000";
layers = (
{
layerId = "BC79775B-A37D-4048-B0B8-E652625BF997";
paths = (
{
closed = 1;
nodes = (
"338.45 440.25 LINE",
"338.45 306.27 LINE",
"63.21 306.27 LINE",
"63.21 198 LINE",
"489.99 198 LINE",
"489.99 540.92 LINE",
"69.21 540.92 LINE",
"69.21 440.25 LINE"
);
},
{
closed = 1;
nodes = (
"356.32 418.25 LINE",
"83.21 418.25 LINE",
"83.21 328.27 LINE",
"356.32 328.27 LINE"
);
}
);
width = 1000;
}
);
},
{
export = 0;
glyphname = _part.5U11;
lastChange = "2024-04-30 01:46:24 +0000";
layers = (
{
layerId = "BC79775B-A37D-4048-B0B8-E652625BF997";
paths = (
{
closed = 1;
nodes = (
"905.45 486.69 LINE",
"927.47 558.92 LINE",
"769.89 558.92 LINE",
"747.87 486.69 LINE"
);
},
{
closed = 1;
nodes = (
"564.56 486.69 LINE",
"722.14 486.69 LINE",
"700.12 558.92 LINE",
"542.54 558.92 LINE"
);
},
{
closed = 1;
nodes = (
"643.98 178 LINE",
"826.03 178 LINE",
"826.03 439.35 LINE",
"643.98 439.35 LINE"
);
},
{
closed = 1;
nodes = (
"520.01 384.74 LINE",
"950.01 384.74 LINE",
"950.01 493.34 LINE",
"520.01 493.34 LINE"
);
},
{
closed = 1;
nodes = (
"500.01 236.42 LINE",
"970.01 236.42 LINE",
"970.01 353.55 LINE",
"500.01 353.55 LINE"
);
}
);
width = 1000;
}
);
},
{
export = 0;
glyphname = _part.5U12;
lastChange = "2024-04-30 01:46:24 +0000";
layers = (
{
layerId = "BC79775B-A37D-4048-B0B8-E652625BF997";
paths = (
{
closed = 1;
nodes = (
"514 540.92 LINE",
"514 198 LINE",
"920.78 198 LINE",
"920.78 540.92 LINE"
);
},
{
closed = 1;
nodes = (
"769.23 442.25 LINE",
"769.23 417.68 LINE",
"657.54 417.68 LINE",
"657.54 442.25 LINE"
);
},
{
closed = 1;
nodes = (
"657.54 304.27 LINE",
"657.54 328.84 LINE",
"769.23 328.84 LINE",
"769.23 304.27 LINE"
);
}
);
width = 1000;
}
);
},
{
export = 0;
glyphname = _part.5U13;
lastChange = "2024-04-30 01:46:24 +0000";
layers = (
{
layerId = "BC79775B-A37D-4048-B0B8-E652625BF997";
paths = (
{
closed = 1;
nodes = (
"814.41 359.77 LINE",
"809.58 329.49 LINE SMOOTH",
"808.16 320.52 OFFCURVE",
"804.3 316.98 OFFCURVE",
"793.46 316.98 CURVE SMOOTH",
"683.81 316.98 LINE",
"683.81 550.92 LINE",
"510 550.92 LINE",
"510 258.31 LINE SMOOTH",
"510 212.6 OFFCURVE",
"530.68 197.99 OFFCURVE",
"575.95 197.99 CURVE SMOOTH",
"882.7 197.99 LINE SMOOTH",
"924.38 197.99 OFFCURVE",
"942.88 213.75 OFFCURVE",
"948.14 249.3 CURVE SMOOTH",
"961.06 338.82 LINE"
);
},
{
closed = 1;
nodes = (
"644.53 433.03 LINE",
"743.73 438.35 OFFCURVE",
"840.6 452.66 OFFCURVE",
"935.3 475.3 CURVE",
"870.97 550.92 LINE",
"798.63 529.24 OFFCURVE",
"717.14 516.73 OFFCURVE",
"628.24 511.65 CURVE"
);
},
{
closed = 1;
nodes = (
"910.45 451.75 LINE",
"837.69 431.15 OFFCURVE",
"755.97 420.05 OFFCURVE",
"666.98 416.64 CURVE",
"681.7 336.44 LINE",
"780.99 339.89 OFFCURVE",
"878.12 352.52 OFFCURVE",
"973.25 373.65 CURVE"
);
}
);
width = 1000;
}
);
},
{
export = 0;
glyphname = _part.5U14;
lastChange = "2024-04-30 01:46:24 +0000";
layers = (
{
layerId = "BC79775B-A37D-4048-B0B8-E652625BF997";
paths = (
{
closed = 1;
nodes = (
"809.51 194.02 LINE",
"950 194.02 LINE",
"950 550.93 LINE",
"809.51 550.93 LINE"
);
},
{
closed = 1;
nodes = (
"672.57 215.78 LINE",
"789.22 215.78 LINE",
"789.22 538.05 LINE",
"672.57 538.05 LINE"
);
},
{
closed = 1;
nodes = (
"652.28 550.93 LINE",
"511.79 550.93 LINE",
"511.79 440.61 LINE SMOOTH",
"511.79 358.77 OFFCURVE",
"505.57 284.48 OFFCURVE",
"491.98 208.72 CURVE",
"640.04 188 LINE",
"647.22 266.83 OFFCURVE",
"652.28 344.27 OFFCURVE",
"652.28 426.4 CURVE SMOOTH"
);
}
);
width = 1000;
}
);
},
{
export = 0;
glyphname = _part.5U15;
lastChange = "2024-04-30 01:46:24 +0000";
layers = (
{
layerId = "BC79775B-A37D-4048-B0B8-E652625BF997";
paths = (
{
closed = 1;
nodes = (
"661.55 440.25 LINE",
"930.79 440.25 LINE",
"930.79 540.92 LINE",
"510.01 540.92 LINE",
"510.01 198 LINE",
"936.79 198 LINE",
"936.79 306.27 LINE",
"661.55 306.27 LINE"
);
},
{
closed = 1;
nodes = (
"643.68 328.27 LINE",
"916.79 328.27 LINE",
"916.79 418.25 LINE",
"643.68 418.25 LINE"
);
}
);
width = 1000;
}
);
},
{
export = 0;
glyphname = _part.5U16;
lastChange = "2024-04-30 01:46:24 +0000";
layers = (
{
layerId = "BC79775B-A37D-4048-B0B8-E652625BF997";
paths = (
{
closed = 1;
nodes = (
"214 -106.86 LINE",
"405.24 -106.86 LINE",
"405.24 90.92 LINE",
"214 90.92 LINE"
);
},
{
closed = 1;
nodes = (
"521.13 216.09 LINE",
"369.74 179.01 OFFCURVE",
"185.62 145.71 OFFCURVE",
"17.91 123.63 CURVE",
"88.44 -39.24 LINE",
"284.5 8.51 OFFCURVE",
"493.75 77.76 OFFCURVE",
"673.91 152.15 CURVE"
);
},
{
closed = 1;
nodes = (
"137.62 -45.24 LINE",
"149.62 -167.24 LINE",
"569.97 -139.24 LINE",
"581.23 28.76 LINE",
"333.47 -0.28 LINE",
"322.75 -23.54 LINE"
);
},
{
closed = 1;
nodes = (
"438.56 114.76 LINE",
"549.89 -39.91 OFFCURVE",
"714.56 -130.57 OFFCURVE",
"901.23 -155.91 CURVE",
"990.56 -11.91 LINE",
"836.56 2.76 OFFCURVE",
"693.89 51.42 OFFCURVE",
"585.23 152.09 CURVE"
);
},
{
closed = 1;
nodes = (
"775.9 2.75 LINE",
"833.92 41.4 OFFCURVE",
"891.2 84.62 OFFCURVE",
"947.9 131.42 CURVE",
"768.57 186.09 LINE",
"734.55 140.24 OFFCURVE",
"695.28 95.38 OFFCURVE",
"651.24 51.42 CURVE"
);
}
);
width = 1000;
}
);
},
{
export = 0;
glyphname = _part.5U17;
lastChange = "2024-04-30 01:46:25 +0000";
layers = (
{
layerId = "BC79775B-A37D-4048-B0B8-E652625BF997";
paths = (
{
closed = 1;
nodes = (
"34 -40.08 LINE",
"966 -40.08 LINE",
"966 109.91 LINE",
"34 109.91 LINE"
);
},
{
closed = 1;
nodes = (
"143.84 60.25 LINE SMOOTH",
"143.84 -8.9 OFFCURVE",
"130.57 -78.9 OFFCURVE",
"105.23 -146.23 CURVE",
"277.23 -176.23 LINE",
"295.56 -101.56 OFFCURVE",
"304.9 -26.4 OFFCURVE",
"304.9 49.54 CURVE SMOOTH",
"304.9 188 LINE",
"143.84 188 LINE"
);
},
{
closed = 1;
nodes = (
"726 -166.17 LINE",
"887.06 -166.17 LINE",
"887.06 188 LINE",
"726 188 LINE"
);
},
{
closed = 1;
nodes = (
"498.96 -148.17 LINE",
"498.96 178 LINE",
"334.72 178 LINE",
"334.72 20.77 LINE",
"330.72 6.77 LINE",
"330.72 -148.17 LINE"
);
},
{
closed = 1;
nodes = (
"528.77 -148.17 LINE",
"693.01 -148.17 LINE",
"693.01 178 LINE",
"528.77 178 LINE"
);
}
);
width = 1000;
}
);
},
{
export = 0;
glyphname = _part.5U18;
lastChange = "2024-04-30 01:46:25 +0000";
layers = (
{
layerId = "BC79775B-A37D-4048-B0B8-E652625BF997";
paths = (
{
closed = 1;
nodes = (
"34 -148.17 LINE",
"966 -148.17 LINE",
"966 1.82 LINE",
"34 1.82 LINE"
);
},
{
closed = 1;
nodes = (
"94 50.01 LINE",
"906 50.01 LINE",
"906 178 LINE",
"94 178 LINE"
);
},
{
closed = 1;
nodes = (
"94 -79.23 LINE",
"239.28 -79.23 LINE",
"239.28 160.1 LINE",
"94 160.1 LINE"
);
},
{
closed = 1;
nodes = (
"316.24 -79.23 LINE",
"461.52 -79.23 LINE",
"461.52 154.77 LINE",
"316.24 154.77 LINE"
);
},
{
closed = 1;
nodes = (
"538.48 -79.23 LINE",
"683.76 -79.23 LINE",
"683.76 154.77 LINE",
"538.48 154.77 LINE"
);
},
{
closed = 1;
nodes = (
"760.72 -79.23 LINE",
"906 -79.23 LINE",
"906 160.1 LINE",
"760.72 160.1 LINE"
);
}
);
width = 1000;
}
);
},
{
export = 0;
glyphname = _part.5U19;
lastChange = "2024-04-30 01:46:25 +0000";
layers = (
{
layerId = "BC79775B-A37D-4048-B0B8-E652625BF997";
paths = (
{
closed = 1;
nodes = (
"40 28.01 LINE",
"960 28.01 LINE",
"960 164 LINE",
"40 164 LINE"
);
},
{
closed = 1;
nodes = (
"396.2 81 LINE",
"603.8 81 LINE",
"603.8 200 LINE",
"396.2 200 LINE"
);
},
{
closed = 1;
nodes = (
"500 85 LINE",
"392.76 81 LINE",
"359.74 10.76 OFFCURVE",
"260.9 -2.57 OFFCURVE",
"22.24 -19.24 CURVE",
"62.24 -171.24 LINE",
"376.24 -143.24 OFFCURVE",
"583.24 -50.24 OFFCURVE",
"595.24 81 CURVE"
);
},
{
closed = 1;
nodes = (
"404.76 81 LINE",
"416.76 -50.24 OFFCURVE",
"623.76 -143.24 OFFCURVE",
"937.76 -171.24 CURVE",
"977.76 -19.24 LINE",
"739.09 -2.57 OFFCURVE",
"640.26 10.76 OFFCURVE",
"607.24 81 CURVE",
"500 85 LINE"
);
}
);
width = 1000;
}
);
},
{
export = 0;
glyphname = _part.5U20;
lastChange = "2024-04-30 01:46:25 +0000";
layers = (
{
layerId = "BC79775B-A37D-4048-B0B8-E652625BF997";
paths = (
{
closed = 1;
nodes = (
"34 -148.17 LINE",
"966 -148.17 LINE",
"966 -4.18 LINE",
"34 -4.18 LINE"
);
},
{
closed = 1;
nodes = (
"100 34.01 LINE",
"900 34.01 LINE",
"900 164 LINE",
"100 164 LINE"
);
},
{
closed = 1;
nodes = (
"396.2 -68.54 LINE",
"603.8 -68.54 LINE",
"603.8 200 LINE",
"396.2 200 LINE"
);
}
);
width = 1000;
}
);
},
{
export = 0;
glyphname = _part.6U01;
lastChange = "2024-04-30 01:46:25 +0000";
layers = (
{
layerId = "BC79775B-A37D-4048-B0B8-E652625BF997";
paths = (
{
closed = 1;
nodes = (
"395 780 LINE",
"279.57 716.6 OFFCURVE",
"165.68 672.61 OFFCURVE",
"24.57 635.7 CURVE",
"90.57 467.7 LINE",
"239 517.96 OFFCURVE",
"376.24 570.37 OFFCURVE",
"500 642.35 CURVE SMOOTH",
"500 642.36 LINE",
"500 642.35 LINE SMOOTH",
"624.49 568.57 OFFCURVE",
"761 517.96 OFFCURVE",
"909.43 467.7 CURVE",
"975.43 635.7 LINE",
"834.32 672.61 OFFCURVE",
"720.43 716.6 OFFCURVE",
"605 780 CURVE"
);
},
{
closed = 1;
nodes = (
"253 464.92 LINE",
"747 464.92 LINE",
"747 584.78 LINE",
"253 584.78 LINE"
);
}
);
width = 1000;
}
);
},
{
export = 0;
glyphname = _part.6U02;
lastChange = "2024-04-30 01:46:25 +0000";
layers = (
{
layerId = "BC79775B-A37D-4048-B0B8-E652625BF997";
paths = (
{
closed = 1;
nodes = (
"78.12 581.28 LINE",
"449.71 587.28 OFFCURVE",
"670.97 597.62 OFFCURVE",
"951.57 612.86 CURVE",
"923.44 771.23 LINE",
"647.16 750.29 OFFCURVE",
"402.11 742.04 OFFCURVE",
"58.43 737.51 CURVE"
);
},
{
closed = 1;
nodes = (
"488.77 473.29 LINE",
"467.14 646.57 LINE",
"317.47 646.57 LINE",
"341.38 454.94 LINE"
);
},
{
closed = 1;
nodes = (
"291.05 473.29 LINE",
"269.42 646.57 LINE",
"119.75 646.57 LINE",
"143.66 454.94 LINE"
);
},
{
closed = 1;
nodes = (
"686.48 473.29 LINE",
"664.85 646.57 LINE",
"515.18 646.57 LINE",
"539.09 454.94 LINE"
);
},
{
closed = 1;
nodes = (
"727.82 472.07 LINE",
"875.35 454.94 LINE",
"899.26 646.57 LINE",
"749.59 646.57 LINE"
);
}
);
width = 1000;
}
);
},
{
export = 0;
glyphname = _part.6U03;
lastChange = "2024-04-30 01:46:25 +0000";
layers = (
{
layerId = "BC79775B-A37D-4048-B0B8-E652625BF997";
paths = (
{
closed = 1;
nodes = (
"42 458.92 LINE",
"224.5 458.92 LINE",
"224.5 746 LINE",
"42 746 LINE"
);
},
{
closed = 1;
nodes = (
"775.5 458.92 LINE",
"958 458.92 LINE",
"958 746 LINE",
"775.5 746 LINE"
);
},
{
closed = 1;
nodes = (
"406.75 458.92 LINE",
"593.25 458.92 LINE",
"593.25 746 LINE",
"406.75 746 LINE"
);
},
{
closed = 1;
nodes = (
"155.44 615.26 LINE",
"844.55 615.26 LINE",
"844.55 746 LINE",
"155.44 746 LINE"
);
},
{
closed = 1;
nodes = (
"244.5 462.92 LINE",
"386.75 462.92 LINE",
"386.75 523.53 LINE",
"244.5 523.53 LINE"
);
},
{
closed = 1;
nodes = (
"613.25 462.92 LINE",
"755.5 462.92 LINE",
"755.5 523.53 LINE",
"613.25 523.53 LINE"
);
},
{
closed = 1;
nodes = (
"244.5 539.09 LINE",
"386.75 539.09 LINE",
"386.75 599.7 LINE",
"244.5 599.7 LINE"
);
},
{
closed = 1;
nodes = (
"613.25 539.09 LINE",
"755.5 539.09 LINE",
"755.5 599.7 LINE",
"613.25 599.7 LINE"
);
}
);
width = 1000;
}
);
},
{
export = 0;
glyphname = _part.6U04;
lastChange = "2024-04-30 01:46:25 +0000";
layers = (
{
layerId = "BC79775B-A37D-4048-B0B8-E652625BF997";
paths = (
{
closed = 1;
nodes = (
"95.57 651.71 LINE",
"480 651.71 LINE",
"480 756 LINE",
"95.57 756 LINE"
);
},
{
closed = 1;
nodes = (
"95.57 528.79 LINE",
"260.57 528.79 LINE",
"260.57 746.37 LINE",
"95.57 746.37 LINE"
);
},
{
closed = 1;
nodes = (
"315 528.79 LINE",
"480 528.79 LINE",
"480 746.37 LINE",
"315 746.37 LINE"
);
},
{
closed = 1;
nodes = (
"520 651.71 LINE",
"904.43 651.71 LINE",
"904.43 756 LINE",
"520 756 LINE"
);
},
{
closed = 1;
nodes = (
"520 528.79 LINE",
"685 528.79 LINE",
"685 746.37 LINE",
"520 746.37 LINE"
);
},
{
closed = 1;
nodes = (
"739.43 528.79 LINE",
"904.43 528.79 LINE",
"904.43 746.37 LINE",
"739.43 746.37 LINE"
);
},
{
closed = 1;
nodes = (
"40 464.93 LINE",
"960 464.93 LINE",
"960 592.65 LINE",
"40 592.65 LINE"
);
}
);
width = 1000;
}
);
},
{
export = 0;
glyphname = _part.6U05;
lastChange = "2024-04-30 01:46:25 +0000";
layers = (
{
layerId = "BC79775B-A37D-4048-B0B8-E652625BF997";
paths = (
{
closed = 1;
nodes = (
"409.5 526.79 LINE",
"590.5 526.79 LINE",
"590.5 770 LINE",
"409.5 770 LINE"
);
},
{
closed = 1;
nodes = (
"40 464.92 LINE",
"960 464.92 LINE",
"960 588.64 LINE",
"40 588.64 LINE"
);
},
{
closed = 1;
nodes = (
"90 612.27 LINE",
"910 612.27 LINE",
"910 721.99 LINE",
"90 721.99 LINE"
);
}
);
width = 1000;
}
);
},
{
export = 0;
glyphname = _part.6U06;
lastChange = "2024-04-30 01:46:25 +0000";
layers = (
{
layerId = "BC79775B-A37D-4048-B0B8-E652625BF997";
paths = (
{
closed = 1;
nodes = (
"58 334.87 LINE",
"484 334.87 LINE",
"484 444.93 LINE",
"58 444.93 LINE"
);
},
{
closed = 1;
nodes = (
"48.24 266.28 LINE",
"77.24 144 LINE",
"422.24 180.28 LINE",
"416.24 287.28 LINE"
);
},
{
closed = 1;
nodes = (
"156.24 377.28 LINE",
"129.61 324.98 OFFCURVE",
"98.91 274.2 OFFCURVE",
"63.24 225.28 CURVE",
"186.24 192.28 LINE",
"235.93 241.71 OFFCURVE",
"282.97 299.27 OFFCURVE",
"328.24 362.28 CURVE"
);
},
{
closed = 1;
nodes = (
"296.71 303.43 LINE",
"332.18 247.74 OFFCURVE",
"363.58 193.09 OFFCURVE",
"388.95 140.01 CURVE",
"512 175.4 LINE",
"479.64 228.13 OFFCURVE",
"445.51 278.72 OFFCURVE",
"409.34 326.84 CURVE"
);
}
);
width = 1000;
}
);
},
{
export = 0;
glyphname = _part.6U07;
lastChange = "2024-04-30 01:46:25 +0000";
layers = (
{
layerId = "BC79775B-A37D-4048-B0B8-E652625BF997";
paths = (
{
closed = 1;
nodes = (
"344.9 444.92 LINE",
"344.9 225.04 LINE",
"264.34 225.04 LINE",
"284.05 150 LINE",
"409.25 150 LINE SMOOTH",
"463.01 150 OFFCURVE",
"490 165.21 OFFCURVE",
"490 222.65 CURVE SMOOTH",
"490 444.93 LINE"
);
},
{
closed = 1;
nodes = (
"50 150.01 LINE",
"197.51 150.01 LINE",
"197.51 444.93 LINE",
"50 444.93 LINE"
);
},
{
closed = 1;
nodes = (
"68.66 342.17 LINE",
"469.05 342.17 LINE",
"469.05 444.93 LINE",
"68.66 444.93 LINE"
);
},
{
closed = 1;
nodes = (
"112.45 241.05 LINE",
"425.26 241.05 LINE",
"425.26 312.86 LINE",
"112.45 312.86 LINE"
);
},
{
closed = 1;
nodes = (
"227.13 258.29 LINE",
"314.08 258.29 LINE",
"314.08 409.92 LINE",
"227.13 409.92 LINE"
);
}
);
width = 1000;
}
);
},
{
export = 0;
glyphname = _part.6U08;
lastChange = "2024-04-30 01:46:25 +0000";
layers = (
{
layerId = "BC79775B-A37D-4048-B0B8-E652625BF997";
paths = (
{
closed = 1;
nodes = (
"60.74 444.92 LINE",
"60.74 150 LINE",
"490 150 LINE",
"490 444.92 LINE"
);
},
{
closed = 1;
nodes = (
"338.52 354.06 LINE",
"338.52 332.93 LINE",
"218.55 332.93 LINE",
"218.55 354.06 LINE"
);
},
{
closed = 1;
nodes = (
"218.55 247.39 LINE",
"218.55 268.52 LINE",
"338.52 268.52 LINE",
"338.52 247.39 LINE"
);
}
);
width = 1000;
}
);
},
{
export = 0;
glyphname = _part.6U09;
lastChange = "2024-04-30 01:46:25 +0000";
layers = (
{
layerId = "BC79775B-A37D-4048-B0B8-E652625BF997";
paths = (
{
closed = 1;
nodes = (
"355.5 140 LINE",
"490 140 LINE",
"490 454.92 LINE",
"355.5 454.92 LINE"
);
},
{
closed = 1;
nodes = (
"222.5 155.66 LINE",
"335.5 155.66 LINE",
"335.5 447.08 LINE",
"222.5 447.08 LINE"
);
},
{
closed = 1;
nodes = (
"121.13 265.41 LINE",
"432.88 265.41 LINE",
"432.88 370.03 LINE",
"121.13 370.03 LINE"
);
},
{
closed = 1;
nodes = (
"202.51 454.92 LINE",
"64.01 454.92 LINE",
"64.01 357.58 LINE SMOOTH",
"64.01 282.23 OFFCURVE",
"53.91 219.82 OFFCURVE",
"32.58 152.97 CURVE",
"182.51 134.69 LINE",
"197.24 204.15 OFFCURVE",
"202.51 261.86 OFFCURVE",
"202.51 345.05 CURVE SMOOTH"
);
}
);
width = 1000;
}
);
},
{
export = 0;
glyphname = _part.6U10;
lastChange = "2024-04-30 01:46:25 +0000";
layers = (
{
layerId = "BC79775B-A37D-4048-B0B8-E652625BF997";
paths = (
{
closed = 1;
nodes = (
"356.57 150 LINE",
"490 150 LINE",
"490 454.92 LINE",
"356.57 454.92 LINE"
);
},
{
closed = 1;
nodes = (
"211.43 175.82 LINE",
"336.57 175.82 LINE",
"336.57 443.55 LINE",
"211.43 443.55 LINE"
);
},
{
closed = 1;
nodes = (
"58 149.99 LINE",
"191.43 149.99 LINE",
"191.43 454.91 LINE",
"58 454.91 LINE"
);
},
{
closed = 1;
nodes = (
"58 149.99 LINE",
"490 149.99 LINE",
"490 272.27 LINE",
"58 272.27 LINE"
);
}
);
width = 1000;
}
);
},
{
export = 0;
glyphname = _part.6U11;
lastChange = "2024-04-30 01:46:25 +0000";
layers = (
{
layerId = "BC79775B-A37D-4048-B0B8-E652625BF997";
paths = (
{
closed = 1;
nodes = (
"520 150 LINE",
"693.24 150 LINE",
"693.24 446.92 LINE",
"520 446.92 LINE"
);
},
{
closed = 1;
nodes = (
"765.93 199.59 LINE",
"891.24 199.59 LINE",
"891.24 397.32 LINE",
"765.93 397.32 LINE"
);
},
{
closed = 1;
nodes = (
"640.23 359.89 LINE",
"953.42 359.89 LINE",
"953.42 446.91 LINE",
"640.23 446.91 LINE"
);
},
{
closed = 1;
nodes = (
"719.74 264.94 LINE",
"937.42 264.94 LINE",
"937.42 339.96 LINE",
"719.74 339.96 LINE"
);
},
{
closed = 1;
nodes = (
"640.23 149.99 LINE",
"963.42 149.99 LINE",
"963.42 243.01 LINE",
"640.23 243.01 LINE"
);
}
);
width = 1000;
}
);
},
{
export = 0;
glyphname = _part.6U12;
lastChange = "2024-04-30 01:46:25 +0000";
layers = (
{
layerId = "BC79775B-A37D-4048-B0B8-E652625BF997";
paths = (
{
closed = 1;
nodes = (
"792.9 444.92 LINE",
"792.9 275.04 LINE",
"696.34 275.04 LINE",
"722.05 166 LINE",
"869.25 166 LINE SMOOTH",
"923.01 166 OFFCURVE",
"950 181.21 OFFCURVE",
"950 238.65 CURVE SMOOTH",
"950 444.93 LINE"
);
},
{
closed = 1;
nodes = (
"510 150.01 LINE",
"673.51 150.01 LINE",
"673.51 444.93 LINE",
"510 444.93 LINE"
);
},
{
closed = 1;
nodes = (
"528.66 322.17 LINE",
"929.05 322.17 LINE",
"929.05 444.93 LINE",
"528.66 444.93 LINE"
);
}
);
width = 1000;
}
);
},
{
export = 0;
glyphname = _part.6U13;
lastChange = "2024-04-30 01:46:25 +0000";
layers = (
{
layerId = "BC79775B-A37D-4048-B0B8-E652625BF997";
paths = (
{
closed = 1;
nodes = (
"589.01 462.93 LINE",
"553.29 415.98 OFFCURVE",
"501.5 355.15 OFFCURVE",
"452.29 298.89 CURVE",
"451.92 298.89 LINE",
"451.98 298.82 OFFCURVE",
"452.04 298.75 OFFCURVE",
"452.11 298.67 CURVE SMOOTH",
"452.05 298.6 OFFCURVE",
"451.99 298.53 OFFCURVE",
"451.92 298.46 CURVE",
"452.29 298.46 LINE",
"502.07 240.83 OFFCURVE",
"553.28 180.07 OFFCURVE",
"591.09 132 CURVE",
"759.53 160.8 LINE",
"718.29 210.99 OFFCURVE",
"681.48 254.28 OFFCURVE",
"641.1 298.67 CURVE",
"683.43 341.77 OFFCURVE",
"719.35 384.02 OFFCURVE",
"759.53 436.55 CURVE"
);
},
{
closed = 1;
nodes = (
"805.61 462.93 LINE",
"769.89 415.98 OFFCURVE",
"718.1 355.15 OFFCURVE",
"668.89 298.89 CURVE",
"668.52 298.89 LINE",
"668.58 298.82 OFFCURVE",
"668.64 298.75 OFFCURVE",
"668.71 298.67 CURVE SMOOTH",
"668.65 298.6 OFFCURVE",
"668.59 298.53 OFFCURVE",
"668.52 298.46 CURVE",
"668.89 298.46 LINE",
"718.66 240.83 OFFCURVE",
"769.88 180.07 OFFCURVE",
"807.69 132 CURVE",
"980.26 160.8 LINE",
"938.58 210.86 OFFCURVE",
"899.24 255.03 OFFCURVE",
"857.71 298.67 CURVE",
"899.23 341.94 OFFCURVE",
"938.5 386.44 OFFCURVE",
"980.26 436.55 CURVE"
);
}
);
width = 1000;
}
);
},
{
export = 0;
glyphname = _part.6U14;
lastChange = "2024-04-30 01:46:25 +0000";
layers = (
{
layerId = "BC79775B-A37D-4048-B0B8-E652625BF997";
paths = (
{
closed = 1;
nodes = (
"659.22 155.67 LINE",
"768.01 155.67 LINE",
"768.01 447.09 LINE",
"659.22 447.09 LINE"
);
},
{
closed = 1;
nodes = (
"565.18 265.42 LINE",
"866.06 265.42 LINE",
"866.06 370.04 LINE",
"565.18 370.04 LINE"
);
},
{
closed = 1;
nodes = (
"510.01 454.93 LINE",
"510.01 357.59 LINE SMOOTH",
"510.01 278.58 OFFCURVE",
"502 219.89 OFFCURVE",
"480.58 152.98 CURVE",
"616.15 134.7 LINE",
"633.59 204.68 OFFCURVE",
"639.78 261.87 OFFCURVE",
"639.78 345.06 CURVE SMOOTH",
"639.78 454.94 LINE"
);
},
{
closed = 1;
nodes = (
"934.76 328.98 LINE",
"934.76 232.27 LINE",
"923.59 232.27 OFFCURVE",
"921.24 234.62 OFFCURVE",
"921.24 243.24 CURVE SMOOTH",
"921.24 454.94 LINE",
"787.48 454.94 LINE",
"787.48 194.61 LINE SMOOTH",
"787.48 163.62 OFFCURVE",
"802.69 147.85 OFFCURVE",
"837.74 147.85 CURVE SMOOTH",
"931.84 147.85 LINE SMOOTH",
"966.88 147.85 OFFCURVE",
"984.03 163.63 OFFCURVE",
"984.03 194.61 CURVE SMOOTH",
"984.03 322.71 LINE"
);
}
);
width = 1000;
}
);
},
{
export = 0;
glyphname = _part.6U15;
lastChange = "2024-04-30 01:46:25 +0000";
layers = (
{
layerId = "BC79775B-A37D-4048-B0B8-E652625BF997";
paths = (
{
closed = 1;
nodes = (
"672.05 280.29 LINE",
"788.36 280.29 LINE",
"788.36 443.56 LINE",
"672.05 443.56 LINE"
);
},
{
closed = 1;
nodes = (
"651.82 454.93 LINE",
"511.74 454.93 LINE",
"511.74 357.59 LINE SMOOTH",
"511.74 285.38 OFFCURVE",
"505.54 219.83 OFFCURVE",
"491.99 152.98 CURVE",
"639.62 134.7 LINE",
"646.78 204.26 OFFCURVE",
"651.82 272.59 OFFCURVE",
"651.82 345.06 CURVE SMOOTH"
);
},
{
closed = 1;
nodes = (
"808.59 454.94 LINE",
"808.59 264.31 LINE",
"684.88 264.31 LINE",
"701.36 146.02 LINE",
"863.81 146.02 LINE SMOOTH",
"915.73 146.02 OFFCURVE",
"948.68 178.8 OFFCURVE",
"948.68 242.99 CURVE SMOOTH",
"948.68 454.95 LINE"
);
}
);
width = 1000;
}
);
},
{
export = 0;
glyphname = _part.6U16;
lastChange = "2024-04-30 01:46:25 +0000";
layers = (
{
layerId = "BC79775B-A37D-4048-B0B8-E652625BF997";
paths = (
{
closed = 1;
nodes = (
"56.52 10.28 LINE",
"195 10.28 LINE",
"195 83.62 LINE",
"257.37 83.62 LINE",
"257.37 10.28 LINE",
"380.75 10.28 LINE",
"380.75 134 LINE",
"56.51 134 LINE"
);
},
{
closed = 1;
nodes = (
"101.45 10.28 LINE",
"344.08 10.28 LINE",
"344.08 61.28 LINE",
"101.45 61.28 LINE"
);
},
{
closed = 1;
nodes = (
"943.46 10.28 LINE",
"943.46 134 LINE",
"619.22 134 LINE",
"619.22 10.28 LINE",
"742.6 10.28 LINE",
"742.6 83.62 LINE",
"804.97 83.62 LINE",
"804.97 10.28 LINE"
);
},
{
closed = 1;
nodes = (
"898.51 61.28 LINE",
"655.88 61.28 LINE",
"655.88 10.28 LINE",
"898.51 10.28 LINE"
);
},
{
closed = 1;
nodes = (
"409.36 -87.28 LINE",
"590.6 -87.28 LINE",
"590.6 140.01 LINE",
"409.36 140.01 LINE"
);
},
{
closed = 1;
nodes = (
"37.98 -144.16 LINE",
"961.98 -144.16 LINE",
"961.98 -9.71 LINE",
"37.98 -9.71 LINE"
);
}
);
width = 1000;
}
);
},
{
export = 0;
glyphname = _part.6U17;
lastChange = "2024-04-30 01:46:25 +0000";
layers = (
{
layerId = "BC79775B-A37D-4048-B0B8-E652625BF997";
paths = (
{
closed = 1;
nodes = (
"616.6 124.27 LINE",
"612.48 -13.62 LINE",
"387.5 -13.62 LINE",
"387.5 130.36 LINE",
"221.62 130.36 LINE",
"221.62 -82.29 LINE SMOOTH",
"221.62 -131.85 OFFCURVE",
"245.22 -152.39 OFFCURVE",
"292.57 -152.39 CURVE SMOOTH",
"706.22 -152.39 LINE SMOOTH",
"750.22 -152.39 OFFCURVE",
"776.1 -135.27 OFFCURVE",
"777.11 -85.13 CURVE SMOOTH",
"782.15 94.94 LINE"
);
},
{
closed = 1;
nodes = (
"58.96 128.94 LINE",
"51.4 43.05 OFFCURVE",
"39.25 -42.96 OFFCURVE",
"23.17 -129.07 CURVE",
"179.01 -150.81 LINE",
"195.48 -62.06 OFFCURVE",
"206.85 25.89 OFFCURVE",
"212.8 113.01 CURVE"
);
},
{
closed = 1;
nodes = (
"789.03 120.5 LINE",
"799.99 28.95 OFFCURVE",
"808.6 -56.35 OFFCURVE",
"814.68 -146.73 CURVE",
"976.57 -136.21 LINE",
"966.65 -44.83 OFFCURVE",
"954.89 42.72 OFFCURVE",
"940.75 125.27 CURVE"
);
},
{
closed = 1;
nodes = (
"349.56 69.34 LINE",
"412.85 38.69 OFFCURVE",
"471.68 7.51 OFFCURVE",
"524.58 -24.39 CURVE",
"648.89 85.38 LINE",
"585.41 119.27 OFFCURVE",
"520.54 148.78 OFFCURVE",
"453.67 172 CURVE"
);
}
);
width = 1000;
}
);
},
{
export = 0;
glyphname = _part.6U18;
lastChange = "2024-04-30 01:46:25 +0000";
layers = (
{
layerId = "BC79775B-A37D-4048-B0B8-E652625BF997";
paths = (
{
closed = 1;
nodes = (
"30 2.28 LINE",
"970 2.28 LINE",
"970 130 LINE",
"30 130 LINE"
);
},
{
closed = 1;
nodes = (
"388.14 -156.17 LINE",
"611.86 -156.17 LINE",
"611.86 73.83 LINE",
"388.14 73.83 LINE"
);
},
{
closed = 1;
nodes = (
"295.38 42.28 LINE",
"211.96 11.05 OFFCURVE",
"118.95 -19.34 OFFCURVE",
"19.43 -49.17 CURVE",
"97.04 -164.17 LINE",
"189.5 -136.78 OFFCURVE",
"279.79 -106.3 OFFCURVE",
"367.91 -72.72 CURVE"
);
},
{
closed = 1;
nodes = (
"631.91 -72.72 LINE",
"720.02 -106.3 OFFCURVE",
"810.32 -136.78 OFFCURVE",
"902.78 -164.17 CURVE",
"980.39 -49.17 LINE",
"880.87 -19.34 OFFCURVE",
"787.86 11.06 OFFCURVE",
"704.44 42.28 CURVE"
);
}
);
width = 1000;
}
);
},
{
export = 0;
glyphname = _part.6U19;
lastChange = "2024-04-30 01:46:25 +0000";
layers = (
{
layerId = "BC79775B-A37D-4048-B0B8-E652625BF997";
paths = (
{
closed = 1;
nodes = (
"18 0.11 LINE",
"982 0.11 LINE",
"982 130 LINE",
"18 130 LINE"
);
},
{
closed = 1;
nodes = (
"504.34 4.01 LINE",
"517.71 -51.45 OFFCURVE",
"527.05 -106.67 OFFCURVE",
"532.05 -161.63 CURVE",
"736.59 -151.68 LINE",
"728.43 -96.41 OFFCURVE",
"715.91 -40.44 OFFCURVE",
"699.33 16.19 CURVE"
);
},
{
closed = 1;
nodes = (
"282.82 6.17 LINE",
"290.91 -50.18 OFFCURVE",
"294.18 -101.19 OFFCURVE",
"295.12 -159.95 CURVE",
"504.21 -153.85 LINE",
"497.58 -98.45 OFFCURVE",
"486.61 -42.25 OFFCURVE",
"471.59 14.67 CURVE"
);
},
{
closed = 1;
nodes = (
"69.38 16.68 LINE",
"61.89 -39.21 OFFCURVE",
"50.88 -96.09 OFFCURVE",
"36.76 -153.85 CURVE",
"241.52 -161.96 LINE",
"252.67 -109.55 OFFCURVE",
"260.12 -53.24 OFFCURVE",
"264.65 6.16 CURVE"
);
},
{
closed = 1;
nodes = (
"733.7 1.81 LINE",
"749.7 -53.38 OFFCURVE",
"761.64 -108.4 OFFCURVE",
"769.25 -163.24 CURVE",
"973.23 -149.5 LINE",
"962.46 -94.41 OFFCURVE",
"947.29 -38.69 OFFCURVE",
"928.03 17.6 CURVE"
);
}
);
width = 1000;
}
);
},
{
export = 0;
glyphname = _part.6U20;
lastChange = "2024-04-30 01:46:25 +0000";
layers = (
{
layerId = "BC79775B-A37D-4048-B0B8-E652625BF997";
paths = (
{
closed = 1;
nodes = (
"401.5 -86.31 LINE",
"598.5 -86.31 LINE",
"598.5 152 LINE",
"401.5 152 LINE"
);
},
{
closed = 1;
nodes = (
"36 -152.17 LINE",
"964 -152.17 LINE",
"964 -15.1 LINE",
"36 -15.1 LINE"
);
},
{
closed = 1;
nodes = (
"80 10.26 LINE",
"920 10.26 LINE",
"920 128.01 LINE",
"80 128.01 LINE"
);
}
);
width = 1000;
}
);
},
{
export = 0;
glyphname = _part.7U01;
lastChange = "2024-04-30 01:46:25 +0000";
layers = (
{
layerId = "BC79775B-A37D-4048-B0B8-E652625BF997";
paths = (
{
closed = 1;
nodes = (
"179.11 778.45 LINE",
"133.08 714.45 OFFCURVE",
"78.84 652.15 OFFCURVE",
"17.77 591.25 CURVE",
"41.75 388.88 LINE",
"157.39 507.57 OFFCURVE",
"259.46 628.83 OFFCURVE",
"344.3 753.35 CURVE"
);
},
{
closed = 1;
nodes = (
"179.1 483.44 LINE",
"133.07 419.44 OFFCURVE",
"78.83 357.14 OFFCURVE",
"17.76 296.24 CURVE",
"41.74 93.87 LINE",
"136.64 191.27 OFFCURVE",
"222.38 290.4 OFFCURVE",
"296.98 391.65 CURVE",
"251.85 472.39 LINE"
);
},
{
closed = 1;
nodes = (
"148.94 13.21 LINE",
"315.25 13.21 LINE",
"315.25 629.25 LINE",
"148.94 629.25 LINE"
);
},
{
closed = 1;
nodes = (
"506.33 -2.16 LINE",
"519.7 -57.38 OFFCURVE",
"529.04 -112.35 OFFCURVE",
"534.04 -167.07 CURVE",
"738.58 -157.16 LINE",
"730.42 -102.14 OFFCURVE",
"717.9 -46.41 OFFCURVE",
"701.32 9.97 CURVE"
);
},
{
closed = 1;
nodes = (
"286.81 0 LINE",
"294.9 -56.1 OFFCURVE",
"298.17 -106.89 OFFCURVE",
"299.11 -165.38 CURVE",
"508.2 -159.31 LINE",
"501.57 -104.15 OFFCURVE",
"490.6 -48.2 OFFCURVE",
"475.58 8.47 CURVE"
);
},
{
closed = 1;
nodes = (
"69.37 10.47 LINE",
"61.88 -45.17 OFFCURVE",
"50.87 -101.8 OFFCURVE",
"36.75 -159.31 CURVE",
"241.51 -167.38 LINE",
"252.66 -115.2 OFFCURVE",
"260.11 -59.14 OFFCURVE",
"264.64 0 CURVE"
);
},
{
closed = 1;
nodes = (
"733.69 -4.33 LINE",
"749.69 -59.28 OFFCURVE",
"761.63 -114.05 OFFCURVE",
"769.24 -168.65 CURVE",
"973.22 -154.97 LINE",
"962.45 -100.12 OFFCURVE",
"947.28 -44.65 OFFCURVE",
"928.02 11.39 CURVE"
);
}
);
width = 1000;
}
);
},
{
export = 0;
glyphname = _part.7U02;
lastChange = "2024-04-30 01:46:25 +0000";
layers = (
{
layerId = "BC79775B-A37D-4048-B0B8-E652625BF997";
paths = (
{
closed = 1;
nodes = (
"40 575.3 LINE",
"327.26 575.3 LINE",
"327.26 720 LINE",
"40 720 LINE"
);
},
{
closed = 1;
nodes = (
"40 279.91 LINE",
"327.26 279.91 LINE",
"327.26 424.61 LINE",
"40 424.61 LINE"
);
},
{
closed = 1;
nodes = (
"223.69 424.61 LINE",
"327.26 575.31 LINE",
"242.24 579.31 LINE",
"143.57 575.31 LINE",
"40 424.61 LINE",
"152.24 420.61 LINE"
);
},
{
closed = 1;
nodes = (
"200.24 306.66 LINE",
"178.24 163.88 OFFCURVE",
"119.91 56.21 OFFCURVE",
"14.24 -46.12 CURVE",
"142.24 -180.12 LINE",
"255.35 -46.91 OFFCURVE",
"316.17 118.67 OFFCURVE",
"327.26 279.91 CURVE"
);
},
{
closed = 1;
nodes = (
"12.24 183.88 LINE",
"154.91 -16.79 OFFCURVE",
"264.91 -159.99 OFFCURVE",
"504.24 -159.99 CURVE SMOOTH",
"958.24 -159.99 LINE",
"976.24 -0.78 LINE",
"515.26 -0.78 LINE SMOOTH",
"327.26 -0.78 OFFCURVE",
"243.24 90.41 OFFCURVE",
"114.24 273.23 CURVE"
);
}
);
width = 1000;
}
);
},
{
export = 0;
glyphname = _part.7U03;
lastChange = "2024-04-30 01:46:25 +0000";
layers = (
{
layerId = "BC79775B-A37D-4048-B0B8-E652625BF997";
paths = (
{
closed = 1;
nodes = (
"40 173.17 LINE",
"327.26 173.17 LINE",
"327.26 321.87 LINE",
"40 321.87 LINE"
);
},
{
closed = 1;
nodes = (
"159.24 59.87 LINE",
"327.26 59.87 LINE",
"327.26 243.04 LINE",
"159.24 243.04 LINE"
);
},
{
closed = 1;
nodes = (
"189.63 124.6 LINE",
"24.24 -31.13 LINE",
"162.24 -180.13 LINE",
"327.26 59.87 LINE"
);
},
{
closed = 1;
nodes = (
"143.24 -13.72 LINE",
"281.24 -116.13 OFFCURVE",
"366.74 -160 OFFCURVE",
"532.7 -160 CURVE SMOOTH",
"958.24 -160 LINE",
"976.24 -0.8 LINE",
"544 -0.8 LINE SMOOTH",
"453.9 -0.8 OFFCURVE",
"393.24 15.87 OFFCURVE",
"327.26 59.87 CURVE"
);
},
{
closed = 1;
nodes = (
"61.91 640.02 LINE",
"129.12 602.37 OFFCURVE",
"193.9 563.41 OFFCURVE",
"255.91 522.95 CURVE",
"363.91 645.11 LINE",
"301.15 684.96 OFFCURVE",
"237.44 723.22 OFFCURVE",
"172.75 759.87 CURVE"
);
},
{
closed = 1;
nodes = (
"33.91 430.94 LINE",
"101.12 393.29 OFFCURVE",
"165.9 354.33 OFFCURVE",
"227.91 313.87 CURVE",
"335.91 436.03 LINE",
"273.15 475.88 OFFCURVE",
"209.44 514.14 OFFCURVE",
"144.75 550.79 CURVE"
);
}
);
width = 1000;
}
);
},
{
export = 0;
glyphname = _part.7U04;
lastChange = "2024-04-30 01:46:25 +0000";
layers = (
{
layerId = "BC79775B-A37D-4048-B0B8-E652625BF997";
paths = (
{
closed = 1;
nodes = (
"812.67 48.96 LINE",
"810.32 -0.8 LINE",
"363.97 -0.8 LINE",
"363.97 98.74 LINE",
"208.09 98.74 LINE",
"208.09 -83.91 LINE SMOOTH",
"208.09 -133.47 OFFCURVE",
"231.69 -154.01 OFFCURVE",
"279.04 -154.01 CURVE SMOOTH",
"904.07 -154.01 LINE SMOOTH",
"948.07 -154.01 OFFCURVE",
"973.95 -136.89 OFFCURVE",
"974.96 -86.75 CURVE SMOOTH",
"978.24 15.36 LINE"
);
},
{
closed = 1;
nodes = (
"40 -160.01 LINE",
"188.09 -160.01 LINE",
"188.09 739.99 LINE",
"40 739.99 LINE"
);
},
{
closed = 1;
nodes = (
"337.96 624.68 LINE",
"337.96 739.99 LINE",
"110.91 739.99 LINE",
"143.95 615.46 LINE",
"219.44 615.46 LINE",
"186.7 436.43 LINE",
"212.31 356.4 OFFCURVE",
"223.65 276.92 OFFCURVE",
"213.93 259.3 CURVE SMOOTH",
"203.8 240.93 OFFCURVE",
"167.54 237.78 OFFCURVE",
"167.54 237.78 CURVE",
"203.09 109.74 LINE",
"266.95 109.74 OFFCURVE",
"349.49 121.04 OFFCURVE",
"349.49 245.58 CURVE SMOOTH",
"349.49 337.04 OFFCURVE",
"305.99 436.43 OFFCURVE",
"305.99 436.43 CURVE"
);
}
);
width = 1000;
}
);
},
{
export = 0;
glyphname = _part.7U05;
lastChange = "2024-04-30 01:46:25 +0000";
layers = (
{
layerId = "BC79775B-A37D-4048-B0B8-E652625BF997";
paths = (
{
closed = 1;
nodes = (
"273.9 133.79 LINE",
"347.26 293.87 LINE",
"40 293.87 LINE",
"40 133.79 LINE"
);
},
{
closed = 1;
nodes = (
"812.67 48.96 LINE",
"810.32 -0.8 LINE",
"273.87 -0.8 LINE",
"347.25 293.87 LINE",
"174.56 274.6 LINE",
"98.41 -3.13 LINE",
"71.56 -88.8 OFFCURVE",
"111.22 -158 OFFCURVE",
"209.22 -158 CURVE SMOOTH",
"904.05 -158 LINE SMOOTH",
"948.05 -158 OFFCURVE",
"973.93 -140.88 OFFCURVE",
"974.94 -90.74 CURVE SMOOTH",
"978.22 15.37 LINE"
);
},
{
closed = 1;
nodes = (
"225.68 759.87 LINE",
"160.99 720.49 OFFCURVE",
"97.28 679.37 OFFCURVE",
"34.52 636.55 CURVE",
"142.52 505.27 LINE",
"204.53 548.75 OFFCURVE",
"269.31 590.62 OFFCURVE",
"336.52 631.07 CURVE"
);
},
{
closed = 1;
nodes = (
"237.68 535.13 LINE",
"172.99 495.75 OFFCURVE",
"109.28 454.63 OFFCURVE",
"46.52 411.81 CURVE",
"154.52 280.53 LINE",
"216.53 324.01 OFFCURVE",
"281.31 365.88 OFFCURVE",
"348.52 406.33 CURVE"
);
}
);
width = 1000;
}
);
},
{
export = 0;
glyphname = _part.7U06;
lastChange = "2024-04-30 01:46:25 +0000";
layers = (
{
layerId = "BC79775B-A37D-4048-B0B8-E652625BF997";
paths = (
{
closed = 1;
nodes = (
"411.59 769.87 LINE",
"393.06 746.29 OFFCURVE",
"371.43 724.81 OFFCURVE",
"347.03 705.2 CURVE",
"373.56 565.87 LINE",
"450.3 614.2 OFFCURVE",
"527.99 688.87 OFFCURVE",
"579.52 769.87 CURVE"
);
},
{
closed = 1;
nodes = (
"426.3 629.87 LINE",
"936.75 629.87 LINE",
"936.75 743.87 LINE",
"426.3 743.87 LINE"
);
},
{
closed = 1;
nodes = (
"743.07 641.87 LINE",
"674.87 579.87 OFFCURVE",
"555.79 554.37 OFFCURVE",
"337.26 541.37 CURVE",
"370.97 404.87 LINE",
"662.41 435.85 OFFCURVE",
"851.89 513.29 OFFCURVE",
"910.13 641.87 CURVE"
);
},
{
closed = 1;
nodes = (
"390.55 641.87 LINE",
"448.79 513.29 OFFCURVE",
"638.27 435.85 OFFCURVE",
"929.71 404.87 CURVE",
"963.42 541.37 LINE",
"744.89 554.37 OFFCURVE",
"625.81 579.87 OFFCURVE",
"557.61 641.87 CURVE"
);
}
);
width = 1000;
}
);
},
{
export = 0;
glyphname = _part.7U07;
lastChange = "2024-04-30 01:46:25 +0000";
layers = (
{
layerId = "BC79775B-A37D-4048-B0B8-E652625BF997";
paths = (
{
closed = 1;
nodes = (
"337.26 414.6 LINE",
"962 414.6 LINE",
"962 548.87 LINE",
"337.26 548.87 LINE"
);
},
{
closed = 1;
nodes = (
"357.26 595.51 LINE",
"942 595.51 LINE",
"942 713.78 LINE",
"357.26 713.78 LINE"
);
},
{
closed = 1;
nodes = (
"435.3 488.73 LINE",
"596.63 488.73 LINE",
"596.63 759.99 LINE",
"435.3 759.99 LINE"
);
},
{
closed = 1;
nodes = (
"702.63 488.73 LINE",
"863.96 488.73 LINE",
"863.96 759.99 LINE",
"702.63 759.99 LINE"
);
}
);
width = 1000;
}
);
},
{
export = 0;
glyphname = _part.7U08;
lastChange = "2024-04-30 01:46:25 +0000";
layers = (
{
layerId = "BC79775B-A37D-4048-B0B8-E652625BF997";
paths = (
{
closed = 1;
nodes = (
"337.26 414.6 LINE",
"962 414.6 LINE",
"962 517.87 LINE",
"337.26 517.87 LINE"
);
},
{
closed = 1;
nodes = (
"371.26 533.87 LINE",
"928 533.87 LINE",
"928 619.14 LINE",
"371.26 619.14 LINE"
);
},
{
closed = 1;
nodes = (
"353.26 635.14 LINE",
"946 635.14 LINE",
"946 724.41 LINE",
"353.26 724.41 LINE"
);
},
{
closed = 1;
nodes = (
"560.13 464.24 LINE",
"739.13 464.24 LINE",
"739.13 770 LINE",
"560.13 770 LINE"
);
}
);
width = 1000;
}
);
},
{
export = 0;
glyphname = _part.7U09;
lastChange = "2024-04-30 01:46:25 +0000";
layers = (
{
layerId = "BC79775B-A37D-4048-B0B8-E652625BF997";
paths = (
{
closed = 1;
nodes = (
"361.26 414.6 LINE",
"950 414.6 LINE",
"950 513.87 LINE",
"361.26 513.87 LINE"
);
},
{
closed = 1;
nodes = (
"389.02 533.87 LINE",
"922.23 533.87 LINE",
"922.23 615.14 LINE",
"389.02 615.14 LINE"
);
},
{
closed = 1;
nodes = (
"361.26 635.14 LINE",
"950 635.14 LINE",
"950 724.41 LINE",
"361.26 724.41 LINE"
);
},
{
closed = 1;
nodes = (
"731.13 464.24 LINE",
"731.13 679.78 LINE",
"745.13 694.54 LINE",
"745.13 770 LINE",
"566.13 770 LINE",
"566.13 697.21 LINE",
"580.13 682.54 LINE",
"580.13 464.24 LINE"
);
},
{
closed = 1;
nodes = (
"361.26 414.61 LINE",
"518.24 414.61 LINE",
"518.24 724.42 LINE",
"361.26 724.42 LINE"
);
},
{
closed = 1;
nodes = (
"793.02 414.61 LINE",
"950 414.61 LINE",
"950 724.42 LINE",
"793.02 724.42 LINE"
);
}
);
width = 1000;
}
);
},
{
export = 0;
glyphname = _part.7U10;
lastChange = "2024-04-30 01:46:25 +0000";
layers = (
{
layerId = "BC79775B-A37D-4048-B0B8-E652625BF997";
paths = (
{
closed = 1;
nodes = (
"360.97 564.06 LINE",
"639.27 564.06 LINE",
"639.27 760 LINE",
"360.97 760 LINE"
);
},
{
closed = 1;
nodes = (
"465.88 677.34 LINE",
"534.36 677.34 LINE",
"534.36 645.1 LINE",
"465.88 645.1 LINE"
);
},
{
closed = 1;
nodes = (
"659.27 564.07 LINE",
"937.57 564.07 LINE",
"937.57 760.01 LINE",
"659.27 760.01 LINE"
);
},
{
closed = 1;
nodes = (
"764.18 677.35 LINE",
"832.66 677.35 LINE",
"832.66 645.11 LINE",
"764.18 645.11 LINE"
);
},
{
closed = 1;
nodes = (
"336.54 414.35 LINE",
"962 414.35 LINE",
"962 546.07 LINE",
"336.54 546.07 LINE"
);
}
);
width = 1000;
}
);
},
{
export = 0;
glyphname = _part.7U11;
lastChange = "2024-04-30 01:46:25 +0000";
layers = (
{
layerId = "BC79775B-A37D-4048-B0B8-E652625BF997";
paths = (
{
closed = 1;
nodes = (
"565.42 423.87 LINE",
"493.52 392.19 OFFCURVE",
"416.72 365.59 OFFCURVE",
"335.3 343.77 CURVE",
"401.27 206.5 LINE",
"489.86 231.72 OFFCURVE",
"571.52 261.7 OFFCURVE",
"645.9 296.68 CURVE"
);
},
{
closed = 1;
nodes = (
"572.9 227.62 LINE",
"488.46 195.94 OFFCURVE",
"398.25 169.34 OFFCURVE",
"302.63 147.52 CURVE",
"376.9 -3.12 LINE",
"480.94 22.1 OFFCURVE",
"576.85 52.08 OFFCURVE",
"664.21 87.06 CURVE"
);
}
);
width = 1000;
}
);
},
{
export = 0;
glyphname = _part.7U12;
lastChange = "2024-04-30 01:46:25 +0000";
layers = (
{
layerId = "BC79775B-A37D-4048-B0B8-E652625BF997";
paths = (
{
closed = 1;
nodes = (
"516 27.2 LINE",
"640.13 27.2 LINE",
"640.13 390.6 LINE",
"516 390.6 LINE"
);
},
{
closed = 1;
nodes = (
"347.26 27.2 LINE",
"471.39 27.2 LINE",
"471.39 390.6 LINE",
"347.26 390.6 LINE"
);
},
{
closed = 1;
nodes = (
"347.26 266.23 LINE",
"640.13 266.23 LINE",
"640.13 390.6 LINE",
"347.26 390.6 LINE"
);
},
{
closed = 1;
nodes = (
"347.26 27.2 LINE",
"640.13 27.2 LINE",
"640.13 155.57 LINE",
"347.26 155.57 LINE"
);
}
);
width = 1000;
}
);
},
{
export = 0;
glyphname = _part.7U13;
lastChange = "2024-04-30 01:46:25 +0000";
layers = (
{
layerId = "BC79775B-A37D-4048-B0B8-E652625BF997";
paths = (
{
closed = 1;
nodes = (
"526.02 394.6 LINE",
"526.02 122.39 LINE",
"503.01 122.39 LINE",
"515.76 23.21 LINE",
"589.56 23.21 LINE SMOOTH",
"624.32 23.21 OFFCURVE",
"641.77 33.71 OFFCURVE",
"641.77 79.61 CURVE SMOOTH",
"641.77 394.61 LINE"
);
},
{
closed = 1;
nodes = (
"357.26 23.21 LINE",
"471.98 23.21 LINE",
"471.98 394.61 LINE",
"357.26 394.61 LINE"
);
},
{
closed = 1;
nodes = (
"369.33 276.28 LINE",
"628.23 276.28 LINE",
"628.23 394.61 LINE",
"369.33 394.61 LINE"
);
},
{
closed = 1;
nodes = (
"397.65 145.46 LINE",
"599.92 145.46 LINE",
"599.92 248.7 LINE",
"397.65 248.7 LINE"
);
}
);
width = 1000;
}
);
},
{
export = 0;
glyphname = _part.7U14;
lastChange = "2024-04-30 01:46:25 +0000";
layers = (
{
layerId = "BC79775B-A37D-4048-B0B8-E652625BF997";
paths = (
{
closed = 1;
nodes = (
"341.26 288.67 LINE",
"636.13 288.67 LINE",
"636.13 390.61 LINE",
"341.26 390.61 LINE"
);
},
{
closed = 1;
nodes = (
"349.26 174.64 LINE",
"628.13 174.64 LINE",
"628.13 268.58 LINE",
"349.26 268.58 LINE"
);
},
{
closed = 1;
nodes = (
"337.26 42.55 LINE",
"640.13 42.55 LINE",
"640.13 154.55 LINE",
"337.26 154.55 LINE"
);
},
{
closed = 1;
nodes = (
"421.19 -2.78 LINE",
"556.19 -2.78 LINE",
"556.19 416.62 LINE",
"421.19 416.62 LINE"
);
}
);
width = 1000;
}
);
},
{
export = 0;
glyphname = _part.7U15;
lastChange = "2024-04-30 01:46:25 +0000";
layers = (
{
layerId = "BC79775B-A37D-4048-B0B8-E652625BF997";
paths = (
{
closed = 1;
nodes = (
"341.26 286.47 LINE",
"636.13 286.47 LINE",
"636.13 394.34 LINE",
"341.26 394.34 LINE"
);
},
{
closed = 1;
nodes = (
"349.26 163.57 LINE",
"628.13 163.57 LINE",
"628.13 262.81 LINE",
"349.26 262.81 LINE"
);
},
{
closed = 1;
nodes = (
"640.13 23.2 LINE",
"638.13 137.91 LINE",
"333.26 135.91 LINE",
"341.26 15.2 LINE"
);
},
{
closed = 1;
nodes = (
"429.35 87.87 LINE",
"548.04 87.87 LINE",
"548.04 339.4 LINE",
"429.35 339.4 LINE"
);
}
);
width = 1000;
}
);
},
{
export = 0;
glyphname = _part.7U16;
lastChange = "2024-04-30 01:46:25 +0000";
layers = (
{
layerId = "BC79775B-A37D-4048-B0B8-E652625BF997";
paths = (
{
closed = 1;
nodes = (
"634.14 296.67 LINE",
"708.52 261.7 OFFCURVE",
"790.18 231.72 OFFCURVE",
"878.77 206.49 CURVE",
"944.74 343.76 LINE",
"863.32 365.58 OFFCURVE",
"786.52 392.18 OFFCURVE",
"714.62 423.86 CURVE"
);
},
{
closed = 1;
nodes = (
"615.83 87.03 LINE",
"701.53 52.72 OFFCURVE",
"797.88 22.37 OFFCURVE",
"903.14 -3.15 CURVE",
"977.41 147.49 LINE",
"881.79 169.31 OFFCURVE",
"791.58 195.91 OFFCURVE",
"707.14 227.59 CURVE"
);
}
);
width = 1000;
}
);
},
{
export = 0;
glyphname = _part.7U17;
lastChange = "2024-04-30 01:46:25 +0000";
layers = (
{
layerId = "BC79775B-A37D-4048-B0B8-E652625BF997";
paths = (
{
closed = 1;
nodes = (
"804.32 404.6 LINE",
"804.32 148.58 LINE",
"697.32 148.58 LINE",
"715.32 23.2 LINE",
"854.11 23.2 LINE SMOOTH",
"910.32 23.2 OFFCURVE",
"946 58.59 OFFCURVE",
"946 127.89 CURVE SMOOTH",
"946 404.6 LINE"
);
},
{
closed = 1;
nodes = (
"660.13 168.58 LINE",
"784.32 168.58 LINE",
"784.32 398.6 LINE",
"660.13 398.6 LINE"
);
}
);
width = 1000;
}
);
},
{
export = 0;
glyphname = _part.7U18;
lastChange = "2024-04-30 01:46:25 +0000";
layers = (
{
layerId = "BC79775B-A37D-4048-B0B8-E652625BF997";
paths = (
{
closed = 1;
nodes = (
"830.66 394.6 LINE",
"830.66 122.39 LINE",
"807.41 122.39 LINE",
"820.29 23.21 LINE",
"894.87 23.21 LINE SMOOTH",
"929.99 23.21 OFFCURVE",
"947.63 33.71 OFFCURVE",
"947.63 79.61 CURVE SMOOTH",
"947.63 394.61 LINE"
);
},
{
closed = 1;
nodes = (
"660.13 23.21 LINE",
"776.06 23.21 LINE",
"776.06 394.61 LINE",
"660.13 394.61 LINE"
);
},
{
closed = 1;
nodes = (
"672.32 276.28 LINE",
"933.94 276.28 LINE",
"933.94 394.61 LINE",
"672.32 394.61 LINE"
);
},
{
closed = 1;
nodes = (
"700.93 145.46 LINE",
"905.32 145.46 LINE",
"905.32 248.7 LINE",
"700.93 248.7 LINE"
);
}
);
width = 1000;
}
);
},
{
export = 0;
glyphname = _part.7U19;
lastChange = "2024-04-30 01:46:25 +0000";
layers = (
{
layerId = "BC79775B-A37D-4048-B0B8-E652625BF997";
paths = (
{
closed = 1;
nodes = (
"822.32 394.6 LINE",
"822.32 143.14 LINE",
"767.32 143.14 LINE",
"785.32 19.2 LINE",
"868.11 19.2 LINE SMOOTH",
"924.32 19.2 OFFCURVE",
"960 54.59 OFFCURVE",
"960 123.89 CURVE SMOOTH",
"960 394.6 LINE"
);
},
{
closed = 1;
nodes = (
"645.16 274.6 LINE",
"922.63 274.6 LINE",
"922.63 394.6 LINE",
"645.16 394.6 LINE"
);
},
{
closed = 1;
nodes = (
"668.79 226.4 LINE SMOOTH",
"664.63 162.32 OFFCURVE",
"642.74 81.04 OFFCURVE",
"613.92 27.26 CURVE",
"754.37 13.36 LINE",
"777.3 78.03 OFFCURVE",
"790.64 145.96 OFFCURVE",
"795.3 217.84 CURVE SMOOTH",
"798.83 272.27 OFFCURVE",
"800.91 304.28 OFFCURVE",
"800.91 304.28 CURVE",
"673.85 304.28 LINE"
);
}
);
width = 1000;
}
);
},
{
export = 0;
glyphname = _part.7U20;
lastChange = "2024-04-30 01:46:25 +0000";
layers = (
{
layerId = "BC79775B-A37D-4048-B0B8-E652625BF997";
paths = (
{
closed = 1;
nodes = (
"846.11 184.17 LINE",
"844.35 148.41 LINE",
"770.77 148.41 LINE",
"770.77 394.34 LINE",
"650.13 394.34 LINE",
"650.13 79.3 LINE SMOOTH",
"650.13 32.87 OFFCURVE",
"667.79 19.2 OFFCURVE",
"703.22 19.2 CURVE SMOOTH",
"906.5 19.2 LINE SMOOTH",
"939.43 19.2 OFFCURVE",
"958.74 32.2 OFFCURVE",
"959.54 76.46 CURVE SMOOTH",
"962 162.57 LINE"
);
},
{
closed = 1;
nodes = (
"650.13 302.47 LINE",
"950 302.47 LINE",
"950 394.34 LINE",
"650.13 394.34 LINE"
);
},
{
closed = 1;
nodes = (
"668.63 192.27 LINE",
"950 192.27 LINE",
"950 274.82 LINE",
"668.63 274.82 LINE"
);
},
{
closed = 1;
nodes = (
"830.74 192.27 LINE",
"950 192.27 LINE",
"950 394.34 LINE",
"830.74 394.34 LINE"
);
}
